<svg preserveAspectRatio="none" width="100%" height="100%" overflow="visible" style="display: block;" viewBox="0 0 724 178" fill="none" xmlns="http://www.w3.org/2000/svg">
<g id="Border">
<rect x="11" y="11" width="702" height="156" stroke="var(--stroke-0, #1A1815)" stroke-width="22"/>
<g id="CHESS">
<path d="M99.9266 142.46C92.8213 142.46 86.592 141.146 81.2386 138.518C75.8853 135.793 71.7 132.045 68.6826 127.276C65.7626 122.409 64.3026 116.764 64.3026 110.34V65.0801C64.3026 58.5587 65.7626 52.9134 68.6826 48.1441C71.7 43.3747 75.8853 39.6761 81.2386 37.0481C86.592 34.3227 92.8213 32.9601 99.9266 32.9601C107.129 32.9601 113.359 34.3227 118.615 37.0481C123.968 39.6761 128.105 43.3747 131.025 48.1441C134.042 52.9134 135.551 58.5587 135.551 65.0801H113.651C113.651 60.7974 112.434 57.5367 110.001 55.2981C107.665 53.0594 104.307 51.9401 99.9266 51.9401C95.5466 51.9401 92.14 53.0594 89.7066 55.2981C87.3706 57.5367 86.2026 60.7974 86.2026 65.0801V110.34C86.2026 114.525 87.3706 117.786 89.7066 120.122C92.14 122.361 95.5466 123.48 99.9266 123.48C104.307 123.48 107.665 122.361 110.001 120.122C112.434 117.786 113.651 114.525 113.651 110.34H135.551C135.551 116.764 134.042 122.409 131.025 127.276C128.105 132.045 123.968 135.793 118.615 138.518C113.359 141.146 107.129 142.46 99.9266 142.46Z" fill="var(--fill-0, #1A1815)"/>
<path d="M196.522 141V34.4201H218.422V75.3001H242.95V34.4201H264.85V141H242.95V95.7401H218.422V141H196.522Z" fill="var(--fill-0, #1A1815)"/>
<path d="M329.909 141V34.4201H395.609V53.1081H351.371V77.0521H390.499V95.7401H351.371V122.312H395.609V141H329.909Z" fill="var(--fill-0, #1A1815)"/>
<path d="M493.372 142.46C485.877 142.46 479.356 141.195 473.808 138.664C468.26 136.133 463.977 132.581 460.96 128.006C457.942 123.431 456.434 118.029 456.434 111.8H478.334C478.334 115.401 479.696 118.273 482.422 120.414C485.244 122.458 489.04 123.48 493.81 123.48C498.384 123.48 501.937 122.458 504.468 120.414C507.096 118.37 508.41 115.547 508.41 111.946C508.41 108.831 507.436 106.155 505.49 103.916C503.543 101.677 500.818 100.169 497.314 99.3901L486.51 96.9081C477.458 94.7667 470.401 90.8247 465.34 85.0821C460.376 79.2421 457.894 72.1367 457.894 63.7661C457.894 57.5367 459.305 52.1347 462.128 47.5601C465.048 42.8881 469.136 39.2867 474.392 36.7561C479.648 34.2254 485.877 32.9601 493.08 32.9601C503.981 32.9601 512.595 35.6854 518.922 41.1361C525.346 46.4894 528.558 53.7407 528.558 62.8901H506.658C506.658 59.4834 505.441 56.8067 503.008 54.8601C500.672 52.9134 497.265 51.9401 492.788 51.9401C488.602 51.9401 485.39 52.9134 483.152 54.8601C480.913 56.7094 479.794 59.3861 479.794 62.8901C479.794 66.0047 480.67 68.6814 482.422 70.9201C484.271 73.0614 486.85 74.5214 490.16 75.3001L501.548 77.9281C510.989 80.0694 518.143 83.9627 523.01 89.6081C527.876 95.1561 530.31 102.261 530.31 110.924C530.31 117.153 528.752 122.653 525.638 127.422C522.62 132.191 518.338 135.89 512.79 138.518C507.339 141.146 500.866 142.46 493.372 142.46Z" fill="var(--fill-0, #1A1815)"/>
<path d="M624.715 142.46C617.22 142.46 610.698 141.195 605.15 138.664C599.602 136.133 595.32 132.581 592.303 128.006C589.285 123.431 587.777 118.029 587.777 111.8H609.676C609.676 115.401 611.039 118.273 613.764 120.414C616.587 122.458 620.383 123.48 625.152 123.48C629.727 123.48 633.28 122.458 635.811 120.414C638.439 118.37 639.753 115.547 639.753 111.946C639.753 108.831 638.779 106.155 636.832 103.916C634.886 101.677 632.161 100.169 628.657 99.3901L617.853 96.9081C608.8 94.7667 601.744 90.8247 596.683 85.0821C591.719 79.2421 589.236 72.1367 589.236 63.7661C589.236 57.5367 590.648 52.1347 593.47 47.5601C596.39 42.8881 600.479 39.2867 605.735 36.7561C610.991 34.2254 617.22 32.9601 624.423 32.9601C635.324 32.9601 643.938 35.6854 650.264 41.1361C656.688 46.4894 659.9 53.7407 659.9 62.8901H638.001C638.001 59.4834 636.784 56.8067 634.35 54.8601C632.014 52.9134 628.608 51.9401 624.131 51.9401C619.945 51.9401 616.733 52.9134 614.494 54.8601C612.256 56.7094 611.136 59.3861 611.136 62.8901C611.136 66.0047 612.012 68.6814 613.764 70.9201C615.614 73.0614 618.193 74.5214 621.503 75.3001L632.89 77.9281C642.332 80.0694 649.486 83.9627 654.353 89.6081C659.219 95.1561 661.652 102.261 661.652 110.924C661.652 117.153 660.095 122.653 656.98 127.422C653.963 132.191 649.68 135.89 644.132 138.518C638.682 141.146 632.209 142.46 624.715 142.46Z" fill="var(--fill-0, #1A1815)"/>
</g>
</g>
</svg>
