<svg preserveAspectRatio="none" width="100%" height="100%" overflow="visible" style="display: block;" viewBox="0 0 736.565 139.68" fill="none" xmlns="http://www.w3.org/2000/svg">
<g id="Narrative">
<path d="M24.672 116.064C23.2 121.888 23.2 126.336 24.672 129.408C26.144 132.48 28.832 134.464 32.736 135.36L36.768 135.936C37.152 136 37.44 136.128 37.632 136.32C37.888 136.448 38.016 136.672 38.016 136.992C38.016 137.312 37.888 137.568 37.632 137.76C37.376 137.888 37.056 137.952 36.672 137.952H1.728C1.152 137.952 0.736 137.888 0.48 137.76C0.16 137.632 0 137.408 0 137.088C0 136.512 0.448 136.128 1.344 135.936L4.512 135.36C8.16 134.528 11.648 132.576 14.976 129.504C18.368 126.368 20.832 121.76 22.368 115.68L44.832 29.952C45.216 28.608 45.28 27.36 45.024 26.208C44.768 25.056 44.416 23.936 43.968 22.848L37.632 5.75999C37.504 5.376 37.44 5.024 37.44 4.704C37.44 4.32 37.568 4.032 37.824 3.84C38.08 3.64799 38.432 3.55199 38.88 3.55199H61.344C62.304 3.55199 63.072 3.776 63.648 4.224C64.288 4.672 64.864 5.664 65.376 7.19999C68.064 15.328 70.56 22.816 72.864 29.664C75.168 36.512 77.344 42.944 79.392 48.96C81.44 54.912 83.392 60.608 85.248 66.048C87.168 71.488 89.024 76.832 90.816 82.08C92.608 87.264 94.4 92.544 96.192 97.92C97.984 103.296 99.84 108.928 101.76 114.816L99.552 116.352L123.456 17.856C124.992 11.712 127.104 7.19999 129.792 4.32C132.48 1.44 135.456 0 138.72 0C141.28 0 143.232 0.672001 144.576 2.016C145.984 3.36 146.688 5.08799 146.688 7.19999C146.624 9.76 145.728 12.16 144 14.4C142.272 16.576 139.36 19.04 135.264 21.792C132.448 23.712 130.048 25.664 128.064 27.648C126.08 29.632 124.448 31.808 123.168 34.176C121.888 36.544 120.864 39.296 120.096 42.432L102.912 112.608C102.656 113.76 102.528 114.752 102.528 115.584C102.528 116.416 102.752 117.536 103.2 118.944L108.48 135.552C108.672 136.32 108.672 136.928 108.48 137.376C108.352 137.76 107.904 137.952 107.136 137.952H82.464C81.632 137.952 81.024 137.728 80.64 137.28C80.32 136.768 80.192 136 80.256 134.976C80.32 133.696 80.288 132.704 80.16 132C80.032 131.232 79.808 130.304 79.488 129.216C77.888 124.352 76.096 118.976 74.112 113.088C72.192 107.2 70.112 100.928 67.872 94.272C65.632 87.552 63.296 80.576 60.864 73.344C58.496 66.112 56.064 58.816 53.568 51.456C51.136 44.032 48.704 36.64 46.272 29.28L47.616 28.704L24.672 116.064Z" fill="var(--fill-0, #1A1815)"/>
<path d="M199.236 115.488C197.572 121.632 196.868 125.696 197.124 127.68C197.444 129.6 198.468 130.56 200.196 130.56C201.476 130.56 202.884 130.016 204.42 128.928C206.02 127.84 207.972 125.824 210.276 122.88C210.724 122.304 211.044 121.952 211.236 121.824C211.492 121.632 211.716 121.568 211.908 121.632C212.228 121.696 212.356 121.952 212.292 122.4C212.292 122.784 212.1 123.328 211.716 124.032C209.156 128.704 205.636 132.48 201.156 135.36C196.74 138.24 191.652 139.68 185.892 139.68C181.988 139.68 179.172 138.848 177.444 137.184C175.78 135.456 174.948 132.992 174.948 129.792C174.948 128.64 175.076 127.168 175.332 125.376C175.652 123.52 176.1 121.376 176.676 118.944C177.252 116.448 177.924 113.696 178.692 110.688C179.524 107.616 180.452 104.288 181.476 100.704L182.436 101.376C179.428 109.312 176.1 116.16 172.452 121.92C168.804 127.616 164.74 132 160.26 135.072C155.844 138.144 150.852 139.68 145.284 139.68C138.756 139.68 133.764 137.376 130.308 132.768C126.916 128.096 125.7 121.12 126.66 111.84C127.108 105.568 128.548 99.488 130.98 93.6C133.476 87.712 136.74 82.24 140.772 77.184C144.804 72.128 149.444 67.68 154.692 63.84C160.004 60 165.764 57.024 171.972 54.912C178.18 52.736 184.644 51.648 191.364 51.648C196.292 51.648 200.74 52 204.708 52.704C208.676 53.408 211.844 54.24 214.212 55.2C216.58 56.096 217.732 56.896 217.668 57.6C217.668 58.24 217.348 58.72 216.708 59.04C216.132 59.36 215.492 59.68 214.788 60C214.148 60.32 213.7 60.896 213.444 61.728L199.236 115.488ZM149.796 114.336C149.028 120.8 149.348 125.376 150.756 128.064C152.164 130.752 154.02 132.096 156.324 132.096C158.372 132.096 160.484 131.2 162.66 129.408C164.9 127.616 167.14 124.96 169.38 121.44C171.684 117.856 173.988 113.44 176.292 108.192C178.66 102.88 180.996 96.736 183.3 89.76C185.668 82.72 188.036 74.848 190.404 66.144C191.364 62.368 191.716 59.456 191.46 57.408C191.204 55.296 189.924 54.24 187.62 54.24C184.1 54.24 180.644 55.424 177.252 57.792C173.86 60.096 170.628 63.296 167.556 67.392C164.484 71.424 161.7 76.032 159.204 81.216C156.772 86.4 154.724 91.84 153.06 97.536C151.46 103.168 150.372 108.768 149.796 114.336Z" fill="var(--fill-0, #1A1815)"/>
<path d="M223.263 71.616C223.071 71.488 222.975 71.296 222.975 71.04C223.039 70.784 223.199 70.4 223.455 69.888C225.823 66.176 228.511 62.976 231.519 60.288C234.591 57.536 237.823 55.424 241.215 53.952C244.671 52.416 248.159 51.648 251.679 51.648C255.135 51.648 257.695 52.448 259.359 54.048C261.023 55.584 261.855 57.728 261.855 60.48C261.855 62.912 261.503 65.472 260.799 68.16C260.095 70.784 259.135 73.728 257.919 76.992C256.767 80.192 255.487 83.808 254.079 87.84C252.671 91.872 251.295 96.48 249.951 101.664L248.991 101.28C251.295 93.856 253.951 87.136 256.959 81.12C259.967 75.04 263.199 69.824 266.655 65.472C270.111 61.056 273.695 57.664 277.407 55.296C281.119 52.864 284.863 51.648 288.639 51.648C292.607 51.648 295.487 53.088 297.279 55.968C299.135 58.848 299.807 62.4 299.295 66.624C298.911 69.632 298.079 72.224 296.799 74.4C295.519 76.576 293.919 78.24 291.999 79.392C290.143 80.48 288.063 81.024 285.759 81.024C283.391 81.024 281.471 80.448 279.999 79.296C278.591 78.144 277.887 76.448 277.887 74.208C277.887 72.8 278.047 71.488 278.367 70.272C278.687 68.992 278.847 67.776 278.847 66.624C278.847 65.408 278.623 64.448 278.175 63.744C277.791 63.04 277.087 62.688 276.063 62.688C273.887 62.688 271.295 64.256 268.287 67.392C265.279 70.464 262.175 75.104 258.975 81.312C255.775 87.52 252.767 95.328 249.951 104.736C248.735 108.96 247.711 112.608 246.879 115.68C246.111 118.688 245.727 121.216 245.727 123.264C245.727 124.8 246.079 125.984 246.783 126.816C247.551 127.648 248.287 128.352 248.991 128.928C249.759 129.44 250.143 130.048 250.143 130.752C250.143 131.84 249.119 133.088 247.071 134.496C245.023 135.904 242.271 137.12 238.815 138.144C235.423 139.168 231.679 139.68 227.583 139.68C225.023 139.68 223.167 139.168 222.015 138.144C220.863 137.184 220.287 135.776 220.287 133.92C220.287 132 220.671 129.664 221.439 126.912L236.895 76.224C238.559 70.912 239.263 67.296 239.007 65.376C238.751 63.456 237.791 62.496 236.127 62.496C234.847 62.496 233.343 63.072 231.615 64.224C229.951 65.312 227.711 67.456 224.895 70.656C224.575 71.04 224.287 71.296 224.031 71.424C223.775 71.552 223.519 71.616 223.263 71.616Z" fill="var(--fill-0, #1A1815)"/>
<path d="M298.772 71.616C298.58 71.488 298.484 71.296 298.484 71.04C298.548 70.784 298.708 70.4 298.964 69.888C301.332 66.176 304.02 62.976 307.028 60.288C310.1 57.536 313.332 55.424 316.724 53.952C320.18 52.416 323.667 51.648 327.188 51.648C330.643 51.648 333.204 52.448 334.868 54.048C336.532 55.584 337.364 57.728 337.364 60.48C337.364 62.912 337.012 65.472 336.308 68.16C335.604 70.784 334.644 73.728 333.428 76.992C332.276 80.192 330.996 83.808 329.588 87.84C328.18 91.872 326.804 96.48 325.46 101.664L324.5 101.28C326.804 93.856 329.46 87.136 332.468 81.12C335.476 75.04 338.708 69.824 342.164 65.472C345.62 61.056 349.204 57.664 352.916 55.296C356.628 52.864 360.372 51.648 364.148 51.648C368.116 51.648 370.996 53.088 372.788 55.968C374.644 58.848 375.316 62.4 374.804 66.624C374.42 69.632 373.588 72.224 372.308 74.4C371.028 76.576 369.428 78.24 367.508 79.392C365.652 80.48 363.572 81.024 361.268 81.024C358.9 81.024 356.98 80.448 355.508 79.296C354.1 78.144 353.396 76.448 353.396 74.208C353.396 72.8 353.556 71.488 353.876 70.272C354.196 68.992 354.356 67.776 354.356 66.624C354.356 65.408 354.132 64.448 353.684 63.744C353.3 63.04 352.596 62.688 351.572 62.688C349.396 62.688 346.804 64.256 343.796 67.392C340.788 70.464 337.684 75.104 334.484 81.312C331.284 87.52 328.276 95.328 325.46 104.736C324.244 108.96 323.22 112.608 322.388 115.68C321.62 118.688 321.236 121.216 321.236 123.264C321.236 124.8 321.588 125.984 322.292 126.816C323.06 127.648 323.796 128.352 324.5 128.928C325.268 129.44 325.652 130.048 325.652 130.752C325.652 131.84 324.628 133.088 322.58 134.496C320.532 135.904 317.78 137.12 314.324 138.144C310.932 139.168 307.188 139.68 303.092 139.68C300.532 139.68 298.675 139.168 297.523 138.144C296.371 137.184 295.796 135.776 295.796 133.92C295.796 132 296.18 129.664 296.948 126.912L312.404 76.224C314.068 70.912 314.772 67.296 314.516 65.376C314.26 63.456 313.3 62.496 311.636 62.496C310.356 62.496 308.852 63.072 307.124 64.224C305.46 65.312 303.22 67.456 300.404 70.656C300.084 71.04 299.796 71.296 299.54 71.424C299.284 71.552 299.028 71.616 298.772 71.616Z" fill="var(--fill-0, #1A1815)"/>
<path d="M442.824 115.488C441.16 121.632 440.456 125.696 440.712 127.68C441.032 129.6 442.056 130.56 443.784 130.56C445.064 130.56 446.472 130.016 448.008 128.928C449.608 127.84 451.56 125.824 453.864 122.88C454.312 122.304 454.632 121.952 454.824 121.824C455.08 121.632 455.304 121.568 455.496 121.632C455.816 121.696 455.944 121.952 455.88 122.4C455.88 122.784 455.688 123.328 455.304 124.032C452.744 128.704 449.224 132.48 444.744 135.36C440.328 138.24 435.24 139.68 429.48 139.68C425.576 139.68 422.76 138.848 421.032 137.184C419.368 135.456 418.536 132.992 418.536 129.792C418.536 128.64 418.664 127.168 418.92 125.376C419.24 123.52 419.688 121.376 420.264 118.944C420.84 116.448 421.512 113.696 422.28 110.688C423.112 107.616 424.04 104.288 425.064 100.704L426.024 101.376C423.016 109.312 419.688 116.16 416.04 121.92C412.392 127.616 408.328 132 403.848 135.072C399.432 138.144 394.44 139.68 388.872 139.68C382.344 139.68 377.352 137.376 373.896 132.768C370.504 128.096 369.288 121.12 370.248 111.84C370.696 105.568 372.136 99.488 374.568 93.6C377.064 87.712 380.328 82.24 384.36 77.184C388.392 72.128 393.032 67.68 398.28 63.84C403.592 60 409.352 57.024 415.56 54.912C421.768 52.736 428.232 51.648 434.952 51.648C439.88 51.648 444.328 52 448.296 52.704C452.264 53.408 455.432 54.24 457.8 55.2C460.168 56.096 461.32 56.896 461.256 57.6C461.256 58.24 460.936 58.72 460.296 59.04C459.72 59.36 459.08 59.68 458.376 60C457.736 60.32 457.288 60.896 457.032 61.728L442.824 115.488ZM393.384 114.336C392.616 120.8 392.936 125.376 394.344 128.064C395.752 130.752 397.608 132.096 399.912 132.096C401.96 132.096 404.072 131.2 406.248 129.408C408.488 127.616 410.728 124.96 412.968 121.44C415.272 117.856 417.576 113.44 419.88 108.192C422.248 102.88 424.584 96.736 426.888 89.76C429.256 82.72 431.624 74.848 433.992 66.144C434.952 62.368 435.304 59.456 435.048 57.408C434.792 55.296 433.512 54.24 431.208 54.24C427.688 54.24 424.232 55.424 420.84 57.792C417.448 60.096 414.216 63.296 411.144 67.392C408.072 71.424 405.288 76.032 402.792 81.216C400.36 86.4 398.312 91.84 396.648 97.536C395.048 103.168 393.96 108.768 393.384 114.336Z" fill="var(--fill-0, #1A1815)"/>
<path d="M480.771 56.928L473.379 55.872C472.995 55.744 472.707 55.584 472.515 55.392C472.387 55.136 472.323 54.88 472.323 54.624C472.323 54.304 472.451 54.048 472.707 53.856C473.027 53.664 473.379 53.568 473.763 53.568H483.651C484.291 53.568 484.803 53.504 485.187 53.376C485.635 53.184 486.115 52.864 486.627 52.416L508.803 35.616C509.059 35.36 509.347 35.168 509.667 35.04C510.051 34.848 510.435 34.752 510.819 34.752C511.203 34.752 511.459 34.88 511.587 35.136C511.779 35.328 511.875 35.616 511.875 36C511.875 36.192 511.843 36.512 511.779 36.96C511.715 37.344 511.619 37.856 511.491 38.496L489.411 117.024C487.875 122.4 487.459 126.016 488.163 127.872C488.931 129.664 490.307 130.56 492.291 130.56C494.403 130.56 496.579 129.76 498.819 128.16C501.123 126.496 503.587 123.936 506.211 120.48C506.595 119.904 506.883 119.552 507.075 119.424C507.331 119.232 507.587 119.136 507.843 119.136C508.099 119.2 508.227 119.424 508.227 119.808C508.291 120.128 508.163 120.64 507.843 121.344C506.435 123.904 504.707 126.304 502.659 128.544C500.611 130.784 498.275 132.736 495.651 134.4C493.027 136.064 490.147 137.344 487.011 138.24C483.875 139.2 480.547 139.68 477.027 139.68C473.187 139.68 470.211 139.008 468.099 137.664C466.051 136.32 464.867 134.208 464.547 131.328C464.227 128.384 464.739 124.608 466.083 120L482.499 62.016C482.947 60.288 483.043 59.072 482.787 58.368C482.595 57.6 481.923 57.12 480.771 56.928ZM501.987 55.872L503.139 53.568H523.203C524.099 53.568 524.547 53.888 524.547 54.528C524.547 54.976 524.323 55.328 523.875 55.584C523.491 55.776 522.979 55.872 522.339 55.872H501.987Z" fill="var(--fill-0, #1A1815)"/>
<path d="M545.076 116.544C543.348 122.048 542.708 125.76 543.156 127.68C543.668 129.6 544.724 130.56 546.324 130.56C547.604 130.56 549.044 130.016 550.644 128.928C552.244 127.84 554.196 125.824 556.5 122.88C556.948 122.304 557.268 121.952 557.46 121.824C557.716 121.632 557.94 121.568 558.132 121.632C558.452 121.696 558.58 121.952 558.516 122.4C558.516 122.784 558.356 123.328 558.036 124.032C555.412 128.704 551.828 132.48 547.284 135.36C542.74 138.24 537.268 139.68 530.868 139.68C527.156 139.68 524.34 139.008 522.42 137.664C520.564 136.256 519.572 134.112 519.444 131.232C519.316 128.352 519.956 124.768 521.364 120.48L535.764 76.32C537.492 71.072 538.196 67.456 537.876 65.472C537.62 63.488 536.628 62.496 534.9 62.496C533.62 62.496 532.148 63.072 530.484 64.224C528.82 65.312 526.58 67.456 523.764 70.656C523.444 71.04 523.156 71.296 522.9 71.424C522.644 71.552 522.388 71.616 522.132 71.616C521.876 71.488 521.78 71.296 521.844 71.04C521.908 70.72 522.068 70.336 522.324 69.888C525.78 64.32 529.908 59.904 534.708 56.64C539.508 53.312 544.532 51.648 549.78 51.648C553.044 51.648 555.668 52.384 557.652 53.856C559.636 55.328 560.82 57.6 561.204 60.672C561.588 63.68 561.012 67.52 559.476 72.192L545.076 116.544ZM553.332 39.456C550.068 39.456 547.572 38.624 545.844 36.96C544.116 35.296 543.252 33.184 543.252 30.624C543.252 28.064 543.988 25.408 545.46 22.656C546.996 19.904 549.044 17.568 551.604 15.648C554.228 13.728 557.172 12.768 560.436 12.768C564.276 12.768 567.028 13.632 568.692 15.36C570.356 17.024 571.188 19.104 571.188 21.6C571.188 24.544 570.452 27.392 568.98 30.144C567.508 32.896 565.428 35.136 562.74 36.864C560.116 38.592 556.98 39.456 553.332 39.456Z" fill="var(--fill-0, #1A1815)"/>
<path d="M655.185 68.16C655.185 75.008 654.129 81.856 652.017 88.704C649.969 95.552 647.057 102.048 643.281 108.192C639.569 114.272 635.249 119.712 630.321 124.512C625.393 129.248 620.049 132.96 614.289 135.648C608.529 138.336 602.577 139.68 596.433 139.68C591.121 139.68 586.897 138.432 583.761 135.936C580.689 133.376 579.185 129.504 579.249 124.32C579.249 119.072 580.465 114.208 582.897 109.728C585.393 105.248 588.465 101.12 592.113 97.344C595.761 93.568 599.473 90.112 603.249 86.976C607.089 83.84 610.385 80.992 613.137 78.432C615.889 75.808 617.521 73.44 618.033 71.328L618.609 72.768C614.833 72.768 611.217 72.288 607.761 71.328C604.305 70.304 601.009 69.12 597.873 67.776C594.801 66.432 591.889 65.216 589.137 64.128C586.385 63.04 583.825 62.432 581.457 62.304C578.641 62.112 576.433 62.688 574.833 64.032C573.297 65.376 572.433 66.944 572.241 68.736C571.793 71.68 573.905 73.824 578.577 75.168C581.649 76 583.921 77.088 585.393 78.432C586.929 79.776 587.601 81.472 587.409 83.52C587.217 85.376 586.385 86.88 584.913 88.032C583.505 89.12 581.713 89.664 579.537 89.664C575.889 89.664 572.913 88.256 570.609 85.44C568.369 82.624 567.569 78.976 568.209 74.496C568.785 70.208 570.321 66.368 572.817 62.976C575.313 59.52 578.481 56.8 582.321 54.816C586.225 52.768 590.481 51.744 595.089 51.744C597.841 51.744 600.721 52 603.729 52.512C606.801 52.96 609.681 53.44 612.369 53.952C615.057 54.4 617.233 54.624 618.897 54.624C619.793 54.624 620.497 54.432 621.009 54.048C621.585 53.664 622.065 53.28 622.449 52.896C622.833 52.512 623.217 52.32 623.601 52.32C623.921 52.32 624.145 52.48 624.273 52.8C624.401 53.056 624.465 53.504 624.465 54.144C624.337 56.704 623.665 59.84 622.449 63.552C621.297 67.264 619.825 71.36 618.033 75.84C616.305 80.32 614.577 84.992 612.849 89.856C611.185 94.656 609.777 99.488 608.625 104.352C607.537 109.152 606.993 113.728 606.993 118.08C606.993 122.432 607.601 125.632 608.817 127.68C610.097 129.664 611.889 130.688 614.193 130.752C617.201 130.752 620.529 129.408 624.177 126.72C627.889 124.032 631.441 120.48 634.833 116.064C638.289 111.648 641.137 106.816 643.377 101.568C645.681 96.256 646.961 90.976 647.217 85.728C647.409 82.912 646.961 80.832 645.873 79.488C644.849 78.144 643.409 76.864 641.553 75.648C638.737 73.792 636.785 71.936 635.697 70.08C634.609 68.224 634.161 66.048 634.353 63.552C634.481 61.504 635.089 59.584 636.177 57.792C637.265 56 638.641 54.528 640.305 53.376C641.969 52.224 643.761 51.648 645.681 51.648C648.753 51.648 651.089 53.056 652.689 55.872C654.353 58.624 655.185 62.72 655.185 68.16Z" fill="var(--fill-0, #1A1815)"/>
<path d="M670.805 97.632C670.805 97.632 671.956 97.248 674.26 96.48C676.628 95.648 679.636 94.592 683.284 93.312C686.996 92.032 690.869 90.688 694.901 89.28C698.933 87.872 702.709 86.592 706.229 85.44C709.813 84.224 712.629 83.264 714.677 82.56L712.372 84.672C713.14 82.816 713.78 80.544 714.292 77.856C714.804 75.104 715.092 71.84 715.156 68.064C715.156 63.776 714.517 60.32 713.237 57.696C711.957 55.072 710.133 53.76 707.765 53.76C705.205 53.76 702.644 54.752 700.084 56.736C697.524 58.72 695.093 61.6 692.789 65.376C690.549 69.088 688.564 73.6 686.836 78.912C685.108 84.224 683.797 90.176 682.901 96.768C681.621 106.624 682.549 114.208 685.685 119.52C688.821 124.832 693.973 127.488 701.141 127.488C704.725 127.488 708.116 126.752 711.316 125.28C714.58 123.808 717.589 121.568 720.341 118.56C723.093 115.552 725.556 111.744 727.732 107.136C728.052 106.624 728.34 106.272 728.596 106.08C728.852 105.888 729.109 105.856 729.365 105.984C729.685 105.984 729.876 106.176 729.94 106.56C730.068 106.88 730.036 107.36 729.844 108C727.156 114.656 723.701 120.352 719.477 125.088C715.317 129.824 710.453 133.44 704.885 135.936C699.317 138.432 693.044 139.68 686.068 139.68C679.668 139.68 674.228 138.272 669.748 135.456C665.268 132.64 662.036 128.48 660.052 122.976C658.132 117.408 657.684 110.624 658.708 102.624C659.604 95.52 661.525 88.864 664.469 82.656C667.413 76.448 671.124 70.976 675.604 66.24C680.148 61.504 685.236 57.792 690.868 55.104C696.5 52.416 702.484 51.072 708.82 51.072C714.26 51.072 718.74 52.16 722.26 54.336C725.844 56.512 728.469 59.36 730.133 62.88C731.861 66.336 732.692 70.08 732.628 74.112C732.564 74.944 732.725 75.584 733.109 76.032C733.493 76.48 734.197 76.704 735.221 76.704C735.733 76.704 736.052 76.768 736.18 76.896C736.372 77.024 736.501 77.216 736.565 77.472C736.565 77.728 736.468 77.984 736.276 78.24C736.084 78.432 735.733 78.624 735.221 78.816C734.197 79.072 731.924 79.776 728.404 80.928C724.948 82.016 720.821 83.36 716.021 84.96C711.221 86.56 706.228 88.224 701.044 89.952C695.86 91.616 691.029 93.216 686.549 94.752C682.069 96.224 678.42 97.44 675.604 98.4C672.852 99.296 671.477 99.744 671.477 99.744L670.805 97.632Z" fill="var(--fill-0, #1A1815)"/>
</g>
</svg>
