<svg preserveAspectRatio="none" width="100%" height="100%" overflow="visible" style="display: block;" viewBox="0 0 200 200" fill="none" xmlns="http://www.w3.org/2000/svg">
<g id="Frame">
<path id="Outline" opacity="0.8" d="M45.0007 169L43.0007 169V169H45.0007ZM80.1326 128.309L78.6591 126.957L78.5833 127.04L78.5173 127.13L80.1326 128.309ZM52.2253 132.697L51.0498 134.315L51.0498 134.315L52.2253 132.697ZM47.7263 104.865L49.3517 106.03L49.3819 105.988L49.4099 105.945L47.7263 104.865ZM72.2839 66.5721L73.9675 67.6518L74.0408 67.5374L74.098 67.4141L72.2839 66.5721ZM93.2493 115.178L93.8848 113.282L93.2493 115.178ZM91.8644 115.528L93.3378 116.88L91.8644 115.528ZM94.0055 117.094L95.7404 118.089L94.0055 117.094ZM73.485 151.474L73.0919 149.513L73.485 151.474ZM74.8462 150.5L73.1112 149.505L74.8462 150.5ZM79.2948 56.5028L77.8747 55.0945L79.2948 56.5028ZM79.6509 54.0145L81.3874 53.0222L79.6509 54.0145ZM155.024 168.885L153.064 168.49V168.49L155.024 168.885ZM105.503 46.0071L107.401 45.3746L105.503 46.0071ZM105.509 45.9999L105.508 47.9999L105.509 45.9999ZM105.498 46.0143L105.553 44.0151L105.498 46.0143ZM104.502 45.9615L105.243 44.104L104.502 45.9615ZM104.707 46.0013L104.696 48.0013L104.707 46.0013ZM74.6665 39.3369L74.7535 37.3388L74.6665 39.3369ZM74.6665 39.3369L74.5795 41.3351C86.0428 41.8343 96.1977 44.8 103.76 47.819L104.502 45.9615L105.243 44.104C97.3929 40.9702 86.7868 37.8629 74.7535 37.3388L74.6665 39.3369ZM104.707 46.0013L104.696 48.0013C104.946 48.0027 105.195 48.0067 105.443 48.0135L105.498 46.0143L105.553 44.0151C105.275 44.0074 104.997 44.0029 104.718 44.0013L104.707 46.0013ZM105.509 45.9999L105.508 47.9999C123.286 48.0021 135.04 55.1169 142.824 65.7908C150.688 76.5753 154.596 91.1387 156.219 106.083C159.462 135.955 153.481 166.423 153.064 168.49L155.024 168.885L156.985 169.281C157.417 167.137 163.508 136.166 160.195 105.651C158.54 90.4011 154.514 75.0334 146.056 63.434C137.517 51.7241 124.56 44.0023 105.509 43.9999L105.509 45.9999ZM155.001 169.205H153.001V177H155.001H157.001V169.205H155.001ZM153.001 179V177H47.0007V179V181H153.001V179ZM45.0007 177H47.0007V169H45.0007H43.0007V177H45.0007ZM45.0007 169L47.0007 169C47.0008 166.314 49.0789 163.305 53.9075 160.395C58.6385 157.544 65.516 155.111 73.8781 153.435L73.485 151.474L73.0919 149.513C64.4733 151.241 57.1088 153.796 51.8429 156.969C46.6746 160.084 43.0009 164.136 43.0007 169L45.0007 169ZM74.8462 150.5L76.5811 151.495L95.7404 118.089L94.0055 117.094L92.2706 116.099L73.1112 149.505L74.8462 150.5ZM91.8644 115.528L90.3909 114.175L78.6591 126.957L80.1326 128.309L81.606 129.662L93.3378 116.88L91.8644 115.528ZM80.1326 128.309L78.5173 127.13C72.6669 135.143 61.4318 136.914 53.4009 131.079L52.2253 132.697L51.0498 134.315C60.8658 141.447 74.5976 139.283 81.7479 129.489L80.1326 128.309ZM52.2253 132.697L53.4009 131.079C45.3898 125.259 43.59 114.066 49.3517 106.03L47.7263 104.865L46.1009 103.7C39.0587 113.522 41.258 127.201 51.0498 134.315L52.2253 132.697ZM47.7263 104.865L49.4099 105.945L73.9675 67.6518L72.2839 66.5721L70.6004 65.4925L46.0428 103.785L47.7263 104.865ZM72.2839 66.5721L74.098 67.4141C75.7443 63.8673 77.9933 60.6554 80.7149 57.9111L79.2948 56.5028L77.8747 55.0945C74.8306 58.164 72.3135 61.758 70.4698 65.7301L72.2839 66.5721ZM79.6509 54.0145L81.3874 53.0222L74.6669 41.2616L72.9304 42.2539L71.1939 43.2462L77.9145 55.0068L79.6509 54.0145ZM93.2493 115.178L93.8848 113.282C92.6663 112.873 91.2908 113.195 90.3909 114.175L91.8644 115.528L93.3378 116.88C93.139 117.097 92.8493 117.153 92.6139 117.074L93.2493 115.178ZM94.0055 117.094L95.7404 118.089C96.8197 116.207 95.8067 113.926 93.8848 113.282L93.2493 115.178L92.6139 117.074C92.2784 116.962 92.0237 116.529 92.2706 116.099L94.0055 117.094ZM73.485 151.474L73.8781 153.435C75.0025 153.21 75.9977 152.513 76.5811 151.495L74.8462 150.5L73.1112 149.505C73.1132 149.502 73.1138 149.503 73.1098 149.506C73.1055 149.509 73.0992 149.512 73.0919 149.513L73.485 151.474ZM47.0007 179V177H47.0007H45.0007H43.0007C43.0007 179.209 44.7916 181 47.0007 181V179ZM155.001 177H153.001V177V179V181C155.21 181 157.001 179.209 157.001 177H155.001ZM79.2948 56.5028L80.7149 57.9111C81.9665 56.6491 82.3218 54.6573 81.3874 53.0222L79.6509 54.0145L77.9145 55.0068C77.9149 55.0075 77.9148 55.0075 77.9146 55.0068C77.9144 55.0063 77.9143 55.006 77.9144 55.0064C77.9145 55.0071 77.9153 55.0121 77.9139 55.0214C77.9109 55.0415 77.8998 55.0692 77.8747 55.0945L79.2948 56.5028ZM155.024 168.885L153.064 168.49C153.035 168.63 153.014 168.774 153.005 168.937C153.001 169.009 153.001 169.069 153.001 169.11C153.001 169.131 153.001 169.2 153.001 169.205H155.001H157.001C157.001 169.184 157.001 169.164 157.001 169.151C157.001 169.136 157.001 169.128 157.001 169.122C157.001 169.111 157.001 169.126 156.999 169.151C156.999 169.164 156.998 169.179 156.996 169.195C156.995 169.211 156.993 169.226 156.991 169.24C156.987 169.267 156.984 169.283 156.985 169.281L155.024 168.885ZM105.503 46.0071L107.401 45.3746C107.884 46.825 106.698 48 105.508 47.9999L105.509 45.9999L105.509 43.9999C104.312 43.9997 103.12 45.1821 103.606 46.6395L105.503 46.0071ZM105.498 46.0143L105.443 48.0135C106.834 48.0519 107.841 46.6954 107.401 45.3746L105.503 46.0071L103.606 46.6395C103.168 45.326 104.169 43.9769 105.553 44.0151L105.498 46.0143ZM104.502 45.9615L103.76 47.819C104.063 47.9399 104.38 47.9995 104.696 48.0013L104.707 46.0013L104.718 44.0013C104.893 44.0023 105.072 44.0355 105.243 44.104L104.502 45.9615ZM74.6665 39.3369L74.7535 37.3388C71.5709 37.2002 69.6885 40.6118 71.1939 43.2462L72.9304 42.2539L74.6669 41.2616C74.6614 41.2519 74.6615 41.2494 74.6625 41.2535C74.6635 41.2573 74.6642 41.2626 74.664 41.2683C74.6638 41.2786 74.6613 41.2844 74.6591 41.2881C74.6567 41.2921 74.6476 41.3054 74.6244 41.3185C74.6125 41.3252 74.5999 41.3301 74.5883 41.3328C74.5764 41.3357 74.5724 41.3347 74.5795 41.3351L74.6665 39.3369Z" fill="var(--stroke-0, white)"/>
<g id="Piece">
<mask id="path-2-inside-1_0_4" fill="white">
<path d="M72.93 42.2538C72.1682 40.9205 73.132 39.2701 74.6662 39.3369C86.4146 39.8486 96.7952 42.8851 104.502 45.9615C104.567 45.9877 104.636 46.0009 104.707 46.0013C104.971 46.0028 105.234 46.007 105.497 46.0143C105.5 46.0144 105.503 46.0107 105.502 46.0071C105.501 46.0035 105.504 45.9999 105.508 45.9999C179.167 46.0084 155.873 164.673 155.023 168.885C154.996 169.019 155 169.069 155 169.205V177C155 178.104 154.104 179 153 179H46.9996C45.895 179 44.9996 178.104 44.9996 177V169C44.9999 161.451 56.5031 154.878 73.4829 151.474C74.0544 151.359 74.5541 151.006 74.844 150.5L94.0044 117.094C94.4206 116.368 94.0414 115.444 93.2482 115.178C92.7567 115.013 92.2138 115.146 91.8632 115.528L80.1363 128.305C73.6371 137.213 61.1503 139.182 52.2252 132.697C43.3202 126.227 41.3226 113.784 47.734 104.854L72.2818 66.575C74.0269 62.8144 76.4103 59.4104 79.2938 56.5028C79.95 55.841 80.1123 54.8238 79.6499 54.0145L72.93 42.2538Z"/>
</mask>
<path d="M72.93 42.2538C72.1682 40.9205 73.132 39.2701 74.6662 39.3369C86.4146 39.8486 96.7952 42.8851 104.502 45.9615C104.567 45.9877 104.636 46.0009 104.707 46.0013C104.971 46.0028 105.234 46.007 105.497 46.0143C105.5 46.0144 105.503 46.0107 105.502 46.0071C105.501 46.0035 105.504 45.9999 105.508 45.9999C179.167 46.0084 155.873 164.673 155.023 168.885C154.996 169.019 155 169.069 155 169.205V177C155 178.104 154.104 179 153 179H46.9996C45.895 179 44.9996 178.104 44.9996 177V169C44.9999 161.451 56.5031 154.878 73.4829 151.474C74.0544 151.359 74.5541 151.006 74.844 150.5L94.0044 117.094C94.4206 116.368 94.0414 115.444 93.2482 115.178C92.7567 115.013 92.2138 115.146 91.8632 115.528L80.1363 128.305C73.6371 137.213 61.1503 139.182 52.2252 132.697C43.3202 126.227 41.3226 113.784 47.734 104.854L72.2818 66.575C74.0269 62.8144 76.4103 59.4104 79.2938 56.5028C79.95 55.841 80.1123 54.8238 79.6499 54.0145L72.93 42.2538Z" fill="url(#paint0_linear_0_4)"/>
<path d="M44.9996 169L38.9996 169V169H44.9996ZM80.1363 128.305L75.716 124.247L75.488 124.496L75.2893 124.768L80.1363 128.305ZM52.2252 132.697L48.6984 137.551L48.6985 137.551L52.2252 132.697ZM47.734 104.854L52.6078 108.354L52.6997 108.226L52.7847 108.093L47.734 104.854ZM72.2818 66.575L77.3325 69.814L77.5527 69.4706L77.7244 69.1005L72.2818 66.575ZM93.2482 115.178L95.1545 109.489L93.2482 115.178ZM91.8632 115.528L87.4429 111.471L91.8632 115.528ZM94.0044 117.094L99.2091 120.079L94.0044 117.094ZM73.4829 151.474L74.6624 157.357L73.4829 151.474ZM74.844 150.5L80.0487 153.486L74.844 150.5ZM79.2938 56.5028L83.5541 60.7277L79.2938 56.5028ZM79.6499 54.0145L74.4404 56.9912L79.6499 54.0145ZM155.023 168.885L149.142 167.698L155.023 168.885ZM105.502 46.0071L111.194 44.1097L105.502 46.0071ZM105.508 45.9999L105.507 51.9999L105.508 45.9999ZM105.497 46.0143L105.662 40.0166L105.497 46.0143ZM104.502 45.9615L102.277 51.5339L104.502 45.9615ZM104.707 46.0013L104.741 40.0014L104.707 46.0013ZM72.93 42.2538L67.7205 45.2305L72.93 42.2538ZM74.6662 39.3369L74.4051 45.3312C85.2985 45.8057 95.0024 48.6298 102.277 51.5339L104.502 45.9615L106.726 40.3891C98.588 37.1403 87.5306 33.8915 74.9272 33.3426L74.6662 39.3369ZM104.707 46.0013L104.673 52.0012C104.895 52.0024 105.114 52.006 105.331 52.012L105.497 46.0143L105.662 40.0166C105.354 40.0081 105.047 40.0031 104.741 40.0014L104.707 46.0013ZM105.508 45.9999L105.507 51.9999C122.012 52.0018 132.563 58.5095 139.591 68.1471C146.861 78.1165 150.652 91.8757 152.241 106.514C155.414 135.744 149.543 165.708 149.142 167.698L155.023 168.885L160.904 170.072C161.353 167.85 167.553 136.375 164.171 105.219C162.483 89.6629 158.34 73.491 149.287 61.0768C139.992 48.3308 125.833 40.0022 105.508 39.9999L105.508 45.9999ZM155 169.205H149V177H155H161V169.205H155ZM153 179V173H46.9996V179V185H153V179ZM44.9996 177H50.9996V169H44.9996H38.9996V177H44.9996ZM44.9996 169L50.9996 169C50.9996 168.492 51.482 166.527 55.9709 163.822C60.167 161.293 66.5571 158.982 74.6624 157.357L73.4829 151.474L72.3035 145.591C63.429 147.37 55.5775 150.048 49.777 153.544C44.2693 156.863 38.9999 161.959 38.9996 169L44.9996 169ZM74.844 150.5L80.0487 153.486L99.2091 120.079L94.0044 117.094L88.7997 114.109L69.6393 147.515L74.844 150.5ZM91.8632 115.528L87.4429 111.471L75.716 124.247L80.1363 128.305L84.5567 132.362L96.2836 119.585L91.8632 115.528ZM80.1363 128.305L75.2893 124.768C70.7396 131.004 61.999 132.382 55.7519 127.843L52.2252 132.697L48.6985 137.551C60.3017 145.981 76.5345 143.421 84.9834 131.841L80.1363 128.305ZM52.2252 132.697L55.752 127.843C49.5188 123.314 48.1202 114.604 52.6078 108.354L47.734 104.854L42.8601 101.355C34.525 112.964 37.1216 129.14 48.6984 137.551L52.2252 132.697ZM47.734 104.854L52.7847 108.093L77.3325 69.814L72.2818 66.575L67.2311 63.3361L42.6833 101.615L47.734 104.854ZM72.2818 66.575L77.7244 69.1005C79.1734 65.9779 81.1545 63.1473 83.5541 60.7277L79.2938 56.5028L75.0334 52.2779C71.666 55.6735 68.8803 59.651 66.8392 64.0495L72.2818 66.575ZM79.6499 54.0145L84.8595 51.0379L78.1396 39.2771L72.93 42.2538L67.7205 45.2305L74.4404 56.9912L79.6499 54.0145ZM93.2482 115.178L95.1545 109.489C92.4821 108.593 89.4413 109.293 87.4429 111.471L91.8632 115.528L96.2836 119.585C94.9862 120.999 93.0312 121.433 91.342 120.867L93.2482 115.178ZM94.0044 117.094L99.2091 120.079C101.615 115.885 99.3339 110.889 95.1545 109.489L93.2482 115.178L91.342 120.867C88.749 119.998 87.2265 116.851 88.7997 114.109L94.0044 117.094ZM73.4829 151.474L74.6624 157.357C76.8926 156.91 78.8786 155.526 80.0487 153.486L74.844 150.5L69.6393 147.515C70.2296 146.486 71.2161 145.809 72.3035 145.591L73.4829 151.474ZM46.9996 179V173C49.2088 173 50.9996 174.791 50.9996 177H44.9996H38.9996C38.9996 181.418 42.5813 185 46.9996 185V179ZM155 177H149C149 174.791 150.79 173 153 173V179V185C157.418 185 161 181.418 161 177H155ZM79.2938 56.5028L83.5541 60.7277C85.9961 58.2651 86.7374 54.3245 84.8595 51.0379L79.6499 54.0145L74.4404 56.9912C73.4872 55.323 73.904 53.4168 75.0334 52.2779L79.2938 56.5028ZM155.023 168.885L149.142 167.698C149.084 167.985 149.031 168.326 149.01 168.724C149.001 168.891 149 169.027 148.999 169.097C148.999 169.131 148.999 169.163 149 169.176C149 169.194 149 169.199 149 169.205H155H161C161 169.176 161 169.15 160.999 169.139C160.999 169.123 160.999 169.127 160.999 169.135C160.999 169.153 160.999 169.243 160.993 169.364C160.986 169.497 160.973 169.635 160.954 169.775C160.936 169.907 160.917 170.01 160.904 170.072L155.023 168.885ZM105.502 46.0071L111.194 44.1097C112.647 48.4678 109.083 52.0003 105.507 51.9999L105.508 45.9999L105.508 39.9999C101.924 39.9994 98.3548 43.5392 99.8099 47.9044L105.502 46.0071ZM105.497 46.0143L105.331 52.012C109.499 52.1269 112.512 48.0647 111.194 44.1097L105.502 46.0071L99.8099 47.9044C98.494 43.9566 101.502 39.9019 105.662 40.0166L105.497 46.0143ZM104.502 45.9615L102.277 51.5339C103.055 51.8442 103.868 51.9967 104.673 52.0012L104.707 46.0013L104.741 40.0014C105.405 40.0051 106.08 40.1312 106.726 40.3891L104.502 45.9615ZM74.6662 39.3369L74.9272 33.3426C68.448 33.0604 64.7284 39.9939 67.7205 45.2305L72.93 42.2538L78.1396 39.2771C79.608 41.8471 77.816 45.4798 74.4051 45.3312L74.6662 39.3369Z" fill="var(--stroke-0, black)" mask="url(#path-2-inside-1_0_4)"/>
</g>
</g>
<defs>
<linearGradient id="paint0_linear_0_4" x1="101.579" y1="39.3348" x2="101.579" y2="179" gradientUnits="userSpaceOnUse">
<stop offset="0.5" stop-color="#635B50"/>
<stop offset="1" stop-color="#1C1A17"/>
</linearGradient>
</defs>
</svg>
