<svg preserveAspectRatio="none" width="100%" height="100%" overflow="visible" style="display: block;" viewBox="0 0 200 200" fill="none" xmlns="http://www.w3.org/2000/svg">
<g id="Frame">
<path id="Outline" opacity="0.8" d="M50.9688 122.055L52.7842 121.216L52.7601 121.163L52.733 121.113L50.9688 122.055ZM50.0879 120.149L51.9505 119.421L51.9287 119.365L51.9034 119.311L50.0879 120.149ZM92.9131 48.8616L94.875 49.25L92.9131 48.8616ZM91.8951 46.6236L90.8129 48.3056L91.8951 46.6236ZM84.8277 71.2215L83.0332 72.1045L84.8277 71.2215ZM88.5841 70.7269L86.6222 70.3385L88.5841 70.7269ZM74.8827 48.6862L73.1662 47.6597L74.8827 48.6862ZM61.058 57.7032L59.0624 57.8358L61.058 57.7032ZM59.2116 55.7399L59.581 53.7744V53.7744L59.2116 55.7399ZM59.206 81.9221L57.8471 83.3896L59.206 81.9221ZM62.5605 80.3221L64.5561 80.1896L62.5605 80.3221ZM44.6329 68.4272L43.274 69.8946L44.6329 68.4272ZM51.2901 122.684L52.4901 124.284L51.2901 122.684ZM51.2558 122.676L49.4403 123.515L51.2558 122.676ZM45.0096 168.995L43.0108 169.066L45.0096 168.995ZM129.909 137.076L129.211 135.201L129.909 137.076ZM130.015 145.454L129.395 147.355L130.015 145.454ZM151.761 117.369L149.917 116.594L151.761 117.369ZM151.645 117.739L149.692 117.31L151.645 117.739ZM155.119 67.4718L156.529 68.891L155.119 67.4718ZM155.623 65.2935L157.54 64.722L155.623 65.2935ZM137.875 79.6632L139.871 79.7957L137.875 79.6632ZM141.28 81.2149L139.871 79.7957L141.28 81.2149ZM168.837 76.7484L166.994 75.9734L168.837 76.7484ZM51.3233 122.691L49.5959 123.699L51.3233 122.691ZM125.46 51.1085L127.255 51.9916L125.46 51.1085ZM125.305 48.9945L123.614 50.0618L125.305 48.9945ZM154.99 168.995L156.989 169.066L154.99 168.995ZM141.131 55.6717L140.716 53.7154L141.131 55.6717ZM139.339 57.6256L141.334 57.7581L139.339 57.6256ZM70.5132 145.283L71.1196 147.189L70.5132 145.283ZM70.6734 136.921L71.3838 135.052L70.6734 136.921ZM112.087 70.1568L110.125 70.5452L112.087 70.1568ZM108.703 46.2179L107.541 44.5899L108.703 46.2179ZM107.779 48.3954L109.741 48.007L107.779 48.3954ZM100 19V21C107.18 21 113 26.8203 113 34H115H117C117 24.6112 109.389 17 100 17V19ZM115 34H113C113 38.3658 110.85 42.2292 107.541 44.5899L108.703 46.2179L109.865 47.8459C114.18 44.7669 117 39.713 117 34H115ZM107.779 48.3954L105.817 48.7838L110.125 70.5452L112.087 70.1568L114.049 69.7684L109.741 48.007L107.779 48.3954ZM115.843 70.6515L117.638 71.5345L127.255 51.9916L125.46 51.1085L123.666 50.2255L114.049 69.7684L115.843 70.6515ZM125.305 48.9945L126.997 47.9272C125.732 45.9231 125 43.5501 125 41H123H121C121 44.3274 121.958 47.4374 123.614 50.0618L125.305 48.9945ZM123 41H125C125 33.8203 130.82 28 138 28V26V24C128.611 24 121 31.6112 121 41H123ZM138 26V28C145.18 28 151 33.8203 151 41H153H155C155 31.6112 147.389 24 138 24V26ZM153 41H151C151 47.2465 146.592 52.4676 140.716 53.7154L141.131 55.6717L141.546 57.6281C149.232 55.9962 155 49.1745 155 41H153ZM139.339 57.6256L137.343 57.4931L135.88 79.5307L137.875 79.6632L139.871 79.7957L141.334 57.7581L139.339 57.6256ZM141.28 81.2149L142.689 82.634L156.529 68.891L155.119 67.4718L153.71 66.0527L139.871 79.7957L141.28 81.2149ZM155.623 65.2935L157.54 64.722C157.189 63.5452 157 62.2965 157 61H155H153C153 62.6877 153.247 64.3213 153.707 65.8651L155.623 65.2935ZM155 61H157C157 53.8203 162.82 48 170 48V46V44C160.611 44 153 51.6112 153 61H155ZM170 46V48C177.18 48 183 53.8203 183 61H185H187C187 51.6112 179.389 44 170 44V46ZM185 61H183C183 68.1797 177.18 74 170 74V76V78C179.389 78 187 70.3888 187 61H185ZM168.837 76.7484L166.994 75.9734L149.917 116.594L151.761 117.369L153.605 118.144L170.681 77.5235L168.837 76.7484ZM151.645 117.739L149.692 117.31C148.156 124.298 140.791 130.893 129.211 135.201L129.909 137.076L130.606 138.95C142.601 134.487 151.618 127.182 153.598 118.168L151.645 117.739ZM130.015 145.454L129.395 147.355C136.739 149.751 142.71 152.983 146.808 156.682C150.903 160.379 153 164.414 153 168.5H155H157C157 162.936 154.126 157.9 149.489 153.714C144.855 149.53 138.334 146.064 130.635 143.552L130.015 145.454ZM155 168.5H153C153 168.636 152.997 168.776 152.992 168.924L154.99 168.995L156.989 169.066C156.996 168.885 157 168.695 157 168.5H155ZM155 169.005H153V177H155H157V169.005H155ZM153 179V177H47V179V181H153V179ZM45 177H47V169.005H45H43V177H45ZM45.0096 168.995L47.0083 168.924C47.0031 168.776 47 168.636 47 168.5H45H43C43 168.695 43.0044 168.885 43.0108 169.066L45.0096 168.995ZM45 168.5H47C47 164.367 49.1466 160.285 53.3353 156.553C57.5264 152.82 63.6288 149.572 71.1196 147.189L70.5132 145.283L69.9069 143.377C62.06 145.873 55.4058 149.352 50.6747 153.567C45.9412 157.783 43 162.87 43 168.5H45ZM70.6734 136.921L71.3838 135.052C62.5323 131.688 56.116 126.936 53.0507 121.683L51.3233 122.691L49.5959 123.699C53.304 130.053 60.6689 135.259 69.9629 138.791L70.6734 136.921ZM51.2558 122.676L53.0712 121.836L52.7842 121.216L50.9688 122.055L49.1533 122.894L49.4403 123.515L51.2558 122.676ZM50.9688 122.055L52.733 121.113C52.4332 120.551 52.172 119.987 51.9505 119.421L50.0879 120.149L48.2252 120.878C48.5073 121.599 48.8354 122.305 49.2045 122.997L50.9688 122.055ZM50.0879 120.149L51.9034 119.311L32.0255 76.2912L30.21 77.1301L28.3944 77.969L48.2723 120.988L50.0879 120.149ZM28.4371 75.9179L28.643 73.9285C22.1018 73.2515 17 67.7208 17 61H15H13C13 69.7922 19.6728 77.0214 28.2312 77.9073L28.4371 75.9179ZM15 61H17C17 53.8203 22.8203 48 30 48V46V44C20.6112 44 13 51.6112 13 61H15ZM30 46V48C37.1797 48 43 53.8203 43 61H45H47C47 51.6112 39.3888 44 30 44V46ZM45 61H43C43 62.546 42.7301 64.025 42.2371 65.3958L44.1191 66.0726L46.0011 66.7494C46.6477 64.9516 47 63.0151 47 61H45ZM44.6329 68.4272L43.274 69.8946L57.8471 83.3896L59.206 81.9221L60.5648 80.4547L45.9918 66.9597L44.6329 68.4272ZM62.5605 80.3221L64.5561 80.1896L63.0536 57.5707L61.058 57.7032L59.0624 57.8358L60.5649 80.4547L62.5605 80.3221ZM59.2116 55.7399L59.581 53.7744C53.5571 52.642 49 47.3515 49 41H47H45C45 49.3113 50.9624 56.2243 58.8421 57.7055L59.2116 55.7399ZM47 41H49C49 33.8203 54.8203 28 62 28V26V24C52.6112 24 45 31.6112 45 41H47ZM62 26V28C69.1797 28 75 33.8203 75 41H77H79C79 31.6112 71.3888 24 62 24V26ZM77 41H75C75 43.4379 74.3302 45.7132 73.1662 47.6597L74.8827 48.6862L76.5992 49.7127C78.1236 47.1635 79 44.1813 79 41H77ZM74.7571 50.7549L72.9626 51.6379L83.0332 72.1045L84.8277 71.2215L86.6222 70.3385L76.5516 49.8719L74.7571 50.7549ZM88.5841 70.7269L90.5461 71.1153L94.875 49.25L92.9131 48.8616L90.9512 48.4731L86.6222 70.3385L88.5841 70.7269ZM91.8951 46.6236L92.9772 44.9417C89.3773 42.6256 87 38.5899 87 34H85H83C83 40.0071 86.1173 45.2846 90.8129 48.3056L91.8951 46.6236ZM85 34H87C87 26.8203 92.8203 21 100 21V19V17C90.6112 17 83 24.6112 83 34H85ZM92.9131 48.8616L94.875 49.25C95.2302 47.4559 94.3205 45.8059 92.9772 44.9417L91.8951 46.6236L90.8129 48.3056C90.8808 48.3493 90.9218 48.4035 90.9402 48.4427C90.9486 48.4606 90.9505 48.4715 90.9509 48.4744C90.9511 48.4758 90.951 48.4759 90.951 48.4751C90.951 48.4747 90.951 48.4742 90.9511 48.4738C90.9511 48.4734 90.9512 48.4731 90.9512 48.4731L92.9131 48.8616ZM84.8277 71.2215L83.0332 72.1045C84.7221 75.5368 89.8031 74.8679 90.5461 71.1153L88.5841 70.7269L86.6222 70.3385C86.6196 70.3517 86.6171 70.3589 86.6162 70.3613C86.6154 70.3636 86.6155 70.3628 86.6172 70.3597C86.619 70.3567 86.6216 70.3528 86.6249 70.3488C86.6282 70.3447 86.6315 70.3413 86.6346 70.3386C86.6407 70.3332 86.6435 70.3324 86.6408 70.3337C86.6377 70.335 86.6312 70.3373 86.6222 70.3385C86.6133 70.3397 86.6064 70.3392 86.603 70.3386C86.6001 70.3382 86.603 70.3382 86.6103 70.3418C86.6139 70.3436 86.6181 70.3461 86.6223 70.3491C86.6266 70.3522 86.6301 70.3552 86.6325 70.3577C86.635 70.3602 86.6354 70.361 86.6339 70.359C86.6325 70.3569 86.6282 70.3506 86.6222 70.3385L84.8277 71.2215ZM74.8827 48.6862L73.1662 47.6597C72.4868 48.7957 72.3013 50.2938 72.9626 51.6379L74.7571 50.7549L76.5516 49.8719C76.5557 49.8802 76.55 49.8764 76.552 49.8488C76.5541 49.8178 76.566 49.7681 76.5992 49.7127L74.8827 48.6862ZM61.058 57.7032L63.0536 57.5707C62.918 55.5278 61.3204 54.1013 59.581 53.7744L59.2116 55.7399L58.8421 57.7055C58.9323 57.7225 59.001 57.7658 59.0382 57.8044C59.0551 57.8219 59.0612 57.8338 59.0625 57.8367C59.0631 57.8381 59.063 57.8382 59.0627 57.8371C59.0624 57.8359 59.0624 57.8352 59.0624 57.8358L61.058 57.7032ZM59.206 81.9221L57.8471 83.3896C60.5015 85.8476 64.7958 83.7994 64.5561 80.1896L62.5605 80.3221L60.5649 80.4547L60.5648 80.4547L59.206 81.9221ZM44.1191 66.0726L42.2371 65.3958C41.7087 66.8653 41.9637 68.6813 43.274 69.8946L44.6329 68.4272L45.9918 66.9597C45.9992 66.9666 45.9902 66.9652 45.9829 66.93C45.9745 66.8894 45.9745 66.8236 46.0011 66.7494L44.1191 66.0726ZM51.2901 122.684L50.0901 121.084C51.0968 120.329 52.5432 120.694 53.0712 121.836L51.2558 122.676L49.4403 123.515C49.9805 124.683 51.4602 125.057 52.4901 124.284L51.2901 122.684ZM45.0048 169V171C46.1401 171 47.0485 170.058 47.0083 168.924L45.0096 168.995L43.0108 169.066C42.9709 167.937 43.875 167 45.0048 167V169ZM45 169.005H47C47 170.107 46.1067 171 45.0048 171V169V167C43.8976 167 43 167.898 43 169.005H45ZM47 179V177H47H45H43C43 179.209 44.7909 181 47 181V179ZM155 177H153V177V179V181C155.209 181 157 179.209 157 177H155ZM129.909 137.076L129.211 135.201C127.818 135.72 127.113 136.992 126.766 137.958C126.391 139.002 126.24 140.2 126.253 141.323C126.266 142.446 126.446 143.641 126.849 144.674C127.222 145.631 127.968 146.89 129.395 147.355L130.015 145.454L130.635 143.552C130.915 143.643 130.791 143.773 130.575 143.221C130.39 142.744 130.262 142.049 130.253 141.276C130.244 140.504 130.355 139.8 130.53 139.311C130.734 138.744 130.868 138.853 130.606 138.95L129.909 137.076ZM151.761 117.369L149.917 116.594C149.816 116.836 149.743 117.077 149.692 117.31L151.645 117.739L153.598 118.168C153.603 118.148 153.606 118.141 153.605 118.144L151.761 117.369ZM155.119 67.4718L156.529 68.891C157.688 67.7391 157.951 66.0986 157.54 64.722L155.623 65.2935L153.707 65.8651C153.727 65.9338 153.725 65.9919 153.718 66.027C153.711 66.0578 153.703 66.0595 153.71 66.0527L155.119 67.4718ZM154.995 169V171C153.893 171 153 170.107 153 169.005H155H157C157 167.898 156.102 167 154.995 167V169ZM137.875 79.6632L135.88 79.5307C135.635 83.2087 140.074 85.2314 142.689 82.634L141.28 81.2149L139.871 79.7957C139.862 79.804 139.857 79.808 139.855 79.8093C139.854 79.8105 139.854 79.81 139.857 79.8086C139.86 79.8072 139.863 79.8056 139.868 79.8043C139.872 79.8029 139.876 79.802 139.88 79.8015C139.887 79.8004 139.889 79.8011 139.887 79.8008C139.884 79.8003 139.878 79.799 139.871 79.7957C139.864 79.7925 139.859 79.789 139.857 79.7871C139.855 79.7855 139.857 79.7868 139.861 79.7928C139.862 79.7958 139.864 79.7994 139.866 79.8036C139.868 79.8078 139.869 79.8116 139.87 79.8146C139.871 79.8176 139.871 79.8183 139.871 79.8162C139.87 79.8141 139.87 79.8075 139.871 79.7957L137.875 79.6632ZM170 76V74C168.76 74 167.526 74.7072 166.994 75.9734L168.837 76.7484L170.681 77.5235C170.538 77.8627 170.235 78 170 78V76ZM51.3233 122.691L53.0507 121.683C52.4298 120.619 51.0394 120.372 50.0901 121.084L51.2901 122.684L52.4901 124.284C51.5626 124.98 50.2031 124.739 49.5959 123.699L51.3233 122.691ZM125.46 51.1085L127.255 51.9916C127.933 50.6125 127.721 49.0744 126.997 47.9272L125.305 48.9945L123.614 50.0618C123.649 50.118 123.663 50.1693 123.665 50.2015C123.668 50.23 123.662 50.2339 123.666 50.2255L125.46 51.1085ZM154.99 168.995L152.992 168.924C152.952 170.058 153.86 171 154.995 171V169V167C156.125 167 157.029 167.937 156.989 169.066L154.99 168.995ZM30.21 77.1301L32.0255 76.2912C31.3709 74.8744 30.0113 74.0702 28.643 73.9285L28.4371 75.9179L28.2312 77.9073C28.2981 77.9142 28.3475 77.9361 28.3752 77.9546C28.3997 77.971 28.3987 77.9781 28.3944 77.969L30.21 77.1301ZM141.131 55.6717L140.716 53.7154C139.016 54.0761 137.476 55.4915 137.343 57.4931L139.339 57.6256L141.334 57.7581C141.334 57.7577 141.334 57.7584 141.334 57.7596C141.334 57.7606 141.333 57.7606 141.334 57.7591C141.335 57.7563 141.341 57.7448 141.357 57.7277C141.393 57.69 141.458 57.6468 141.546 57.6281L141.131 55.6717ZM70.5132 145.283L71.1196 147.189C72.549 146.734 73.304 145.482 73.684 144.528C74.0938 143.499 74.2811 142.307 74.3015 141.186C74.322 140.064 74.1782 138.866 73.8098 137.821C73.4685 136.853 72.7719 135.579 71.3838 135.052L70.6734 136.921L69.9629 138.791C69.703 138.692 69.8379 138.586 70.0374 139.152C70.2099 139.641 70.3163 140.342 70.3022 141.112C70.2881 141.883 70.1561 142.575 69.9677 143.048C69.7496 143.596 69.6274 143.466 69.9069 143.377L70.5132 145.283ZM112.087 70.1568L110.125 70.5452C110.868 74.2977 115.949 74.9668 117.638 71.5345L115.843 70.6515L114.049 69.7684C114.043 69.7805 114.039 69.7869 114.037 69.7889C114.036 69.7909 114.036 69.7901 114.039 69.7876C114.041 69.7852 114.044 69.7821 114.049 69.779C114.053 69.776 114.057 69.7736 114.061 69.7718C114.068 69.7681 114.071 69.7681 114.068 69.7686C114.065 69.7691 114.058 69.7696 114.049 69.7684C114.04 69.7672 114.033 69.765 114.03 69.7636C114.027 69.7624 114.03 69.7632 114.036 69.7686C114.039 69.7713 114.043 69.7747 114.046 69.7787C114.049 69.7828 114.052 69.7866 114.054 69.7896C114.056 69.7927 114.056 69.7936 114.055 69.7912C114.054 69.7889 114.051 69.7817 114.049 69.7684L112.087 70.1568ZM108.703 46.2179L107.541 44.5899C106.296 45.479 105.478 47.0705 105.817 48.7838L107.779 48.3954L109.741 48.007C109.743 48.0167 109.736 48.0105 109.75 47.9788C109.766 47.9423 109.803 47.8904 109.865 47.8459L108.703 46.2179Z" fill="var(--stroke-0, white)"/>
<g id="Piece">
<mask id="path-2-inside-1_0_4" fill="white">
<path d="M100 19C108.284 19 115 25.7157 115 34C115 39.0394 112.515 43.4981 108.703 46.2179C108.007 46.7148 107.613 47.5562 107.779 48.3954L112.087 70.1568C112.458 72.0331 114.999 72.3676 115.843 70.6515L125.46 51.1085C125.793 50.4322 125.708 49.632 125.305 48.9945C123.845 46.6803 123 43.9388 123 41C123 32.7157 129.716 26 138 26C146.284 26 153 32.7157 153 41C153 48.2105 147.912 54.2319 141.131 55.6717C140.172 55.8753 139.403 56.6477 139.339 57.6256L137.875 79.6632C137.753 81.5022 139.972 82.5136 141.28 81.2149L155.119 67.4718C155.688 66.9073 155.852 66.0613 155.623 65.2935C155.218 63.9333 155 62.4921 155 61C155 52.7157 161.716 46 170 46C178.284 46 185 52.7157 185 61C185 69.2843 178.284 76 170 76C169.497 76 169.032 76.285 168.837 76.7484L151.761 117.369C151.711 117.489 151.673 117.612 151.645 117.739C149.887 125.74 141.696 132.69 129.909 137.076C127.646 137.918 127.72 144.705 130.015 145.454C145.058 150.361 155 158.849 155 168.5C155 168.665 154.996 168.83 154.99 168.995C154.99 168.998 154.992 169 154.995 169C154.998 169 155 169.002 155 169.005V177C155 178.105 154.105 179 153 179H47C45.8954 179 45 178.105 45 177V169.005C45 169.002 45.0021 169 45.0048 169C45.0075 169 45.0097 168.998 45.0096 168.995C45.0038 168.83 45 168.665 45 168.5C45 158.737 55.1756 150.162 70.5132 145.283C72.8132 144.551 72.9296 137.778 70.6734 136.921C61.6006 133.473 54.71 128.495 51.3233 122.691C51.3165 122.679 51.301 122.676 51.2901 122.684C51.2785 122.693 51.2619 122.689 51.2558 122.676L50.9688 122.055C50.6343 121.428 50.3396 120.793 50.0879 120.149L30.21 77.1301C29.8891 76.4357 29.198 75.9967 28.4371 75.9179C20.8873 75.1364 15 68.7565 15 61C15 52.7157 21.7157 46 30 46C38.2843 46 45 52.7157 45 61C45 62.7806 44.6889 64.4883 44.1191 66.0726C43.8233 66.8954 43.9914 67.8331 44.6329 68.4272L59.206 81.9221C60.5332 83.1512 62.6803 82.127 62.5605 80.3221L61.058 57.7032C60.9918 56.7056 60.1942 55.9247 59.2116 55.7399C52.2597 54.4332 47 48.3314 47 41C47 32.7157 53.7157 26 62 26C70.2843 26 77 32.7157 77 41C77 43.8096 76.2269 46.4383 74.8827 48.6862C74.5055 49.3169 74.4327 50.0955 74.7571 50.7549L84.8277 71.2215C85.6721 72.9377 88.2127 72.6032 88.5841 70.7269L92.9131 48.8616C93.087 47.9834 92.6479 47.108 91.895 46.6236C87.7473 43.9551 85 39.2985 85 34C85 25.7157 91.7157 19 100 19Z"/>
</mask>
<path d="M100 19C108.284 19 115 25.7157 115 34C115 39.0394 112.515 43.4981 108.703 46.2179C108.007 46.7148 107.613 47.5562 107.779 48.3954L112.087 70.1568C112.458 72.0331 114.999 72.3676 115.843 70.6515L125.46 51.1085C125.793 50.4322 125.708 49.632 125.305 48.9945C123.845 46.6803 123 43.9388 123 41C123 32.7157 129.716 26 138 26C146.284 26 153 32.7157 153 41C153 48.2105 147.912 54.2319 141.131 55.6717C140.172 55.8753 139.403 56.6477 139.339 57.6256L137.875 79.6632C137.753 81.5022 139.972 82.5136 141.28 81.2149L155.119 67.4718C155.688 66.9073 155.852 66.0613 155.623 65.2935C155.218 63.9333 155 62.4921 155 61C155 52.7157 161.716 46 170 46C178.284 46 185 52.7157 185 61C185 69.2843 178.284 76 170 76C169.497 76 169.032 76.285 168.837 76.7484L151.761 117.369C151.711 117.489 151.673 117.612 151.645 117.739C149.887 125.74 141.696 132.69 129.909 137.076C127.646 137.918 127.72 144.705 130.015 145.454C145.058 150.361 155 158.849 155 168.5C155 168.665 154.996 168.83 154.99 168.995C154.99 168.998 154.992 169 154.995 169C154.998 169 155 169.002 155 169.005V177C155 178.105 154.105 179 153 179H47C45.8954 179 45 178.105 45 177V169.005C45 169.002 45.0021 169 45.0048 169C45.0075 169 45.0097 168.998 45.0096 168.995C45.0038 168.83 45 168.665 45 168.5C45 158.737 55.1756 150.162 70.5132 145.283C72.8132 144.551 72.9296 137.778 70.6734 136.921C61.6006 133.473 54.71 128.495 51.3233 122.691C51.3165 122.679 51.301 122.676 51.2901 122.684C51.2785 122.693 51.2619 122.689 51.2558 122.676L50.9688 122.055C50.6343 121.428 50.3396 120.793 50.0879 120.149L30.21 77.1301C29.8891 76.4357 29.198 75.9967 28.4371 75.9179C20.8873 75.1364 15 68.7565 15 61C15 52.7157 21.7157 46 30 46C38.2843 46 45 52.7157 45 61C45 62.7806 44.6889 64.4883 44.1191 66.0726C43.8233 66.8954 43.9914 67.8331 44.6329 68.4272L59.206 81.9221C60.5332 83.1512 62.6803 82.127 62.5605 80.3221L61.058 57.7032C60.9918 56.7056 60.1942 55.9247 59.2116 55.7399C52.2597 54.4332 47 48.3314 47 41C47 32.7157 53.7157 26 62 26C70.2843 26 77 32.7157 77 41C77 43.8096 76.2269 46.4383 74.8827 48.6862C74.5055 49.3169 74.4327 50.0955 74.7571 50.7549L84.8277 71.2215C85.6721 72.9377 88.2127 72.6032 88.5841 70.7269L92.9131 48.8616C93.087 47.9834 92.6479 47.108 91.895 46.6236C87.7473 43.9551 85 39.2985 85 34C85 25.7157 91.7157 19 100 19Z" fill="url(#paint0_linear_0_4)"/>
<path d="M50.9688 122.055L56.4151 119.537L56.3427 119.381L56.2616 119.229L50.9688 122.055ZM50.0879 120.149L55.6759 117.964L55.6102 117.796L55.5345 117.633L50.0879 120.149ZM92.9131 48.8616L98.7989 50.0268L92.9131 48.8616ZM91.8951 46.6236L88.6487 51.6695L91.8951 46.6236ZM84.8277 71.2215L79.4441 73.8705L84.8277 71.2215ZM88.5841 70.7269L82.6984 69.5616L88.5841 70.7269ZM74.8827 48.6862L69.7332 45.6067L74.8827 48.6862ZM61.058 57.7032L55.0712 58.1009L61.058 57.7032ZM59.2116 55.7399L60.32 49.8432V49.8432L59.2116 55.7399ZM59.206 81.9221L55.1293 86.3245L59.206 81.9221ZM62.5605 80.3221L68.5473 79.9245L62.5605 80.3221ZM44.6329 68.4272L40.5562 72.8295L44.6329 68.4272ZM51.2901 122.684L54.8901 127.484L51.2901 122.684ZM51.2558 122.676L45.8095 125.193L51.2558 122.676ZM45.0096 168.995L39.0133 169.207L45.0096 168.995ZM129.909 137.076L127.817 131.452L129.909 137.076ZM130.015 145.454L128.154 151.158L130.015 145.454ZM151.761 117.369L146.23 115.044L151.761 117.369ZM151.645 117.739L145.785 116.451L151.645 117.739ZM155.119 67.4718L159.347 71.7293L155.119 67.4718ZM155.623 65.2935L161.373 63.5789L155.623 65.2935ZM137.875 79.6632L143.862 80.0608L137.875 79.6632ZM141.28 81.2149L137.052 76.9575L141.28 81.2149ZM168.837 76.7484L163.306 74.4232L168.837 76.7484ZM51.3233 122.691L46.1411 125.715L51.3233 122.691ZM125.46 51.1085L130.844 53.7577L125.46 51.1085ZM125.305 48.9945L120.231 52.1965L125.305 48.9945ZM154.99 168.995L160.987 169.207L154.99 168.995ZM141.131 55.6717L139.885 49.8026L141.131 55.6717ZM139.339 57.6256L145.325 58.0232L139.339 57.6256ZM70.5132 145.283L72.3323 151L70.5132 145.283ZM70.6734 136.921L72.8047 131.312L70.6734 136.921ZM112.087 70.1568L106.201 71.322L112.087 70.1568ZM108.703 46.2179L105.218 41.3339L108.703 46.2179ZM107.779 48.3954L113.665 47.2301L107.779 48.3954ZM100 19V25C104.971 25 109 29.0294 109 34H115H121C121 22.402 111.598 13 100 13V19ZM115 34H109C109 37.0186 107.519 39.6916 105.218 41.3339L108.703 46.2179L112.188 51.1019C117.51 47.3045 121 41.0602 121 34H115ZM107.779 48.3954L101.893 49.5606L106.201 71.322L112.087 70.1568L117.973 68.9916L113.665 47.2301L107.779 48.3954ZM115.843 70.6515L121.227 73.3007L130.844 53.7577L125.46 51.1085L120.077 48.4594L110.46 68.0023L115.843 70.6515ZM125.305 48.9945L130.379 45.7925C129.506 44.4087 129 42.7727 129 41H123H117C117 45.1048 118.184 48.9518 120.231 52.1965L125.305 48.9945ZM123 41H129C129 36.0294 133.029 32 138 32V26V20C126.402 20 117 29.402 117 41H123ZM138 26V32C142.971 32 147 36.0294 147 41H153H159C159 29.402 149.598 20 138 20V26ZM153 41H147C147 45.3186 143.952 48.939 139.885 49.8026L141.131 55.6717L142.377 61.5409C151.873 59.5247 159 51.1024 159 41H153ZM139.339 57.6256L133.352 57.228L131.888 79.2657L137.875 79.6632L143.862 80.0608L145.325 58.0232L139.339 57.6256ZM141.28 81.2149L145.508 85.4723L159.347 71.7293L155.119 67.4718L150.891 63.2144L137.052 76.9575L141.28 81.2149ZM155.623 65.2935L161.373 63.5789C161.132 62.7691 161 61.9053 161 61H155H149C149 63.0789 149.304 65.0974 149.874 67.0082L155.623 65.2935ZM155 61H161C161 56.0294 165.029 52 170 52V46V40C158.402 40 149 49.402 149 61H155ZM170 46V52C174.971 52 179 56.0294 179 61H185H191C191 49.402 181.598 40 170 40V46ZM185 61H179C179 65.9706 174.971 70 170 70V76V82C181.598 82 191 72.598 191 61H185ZM168.837 76.7484L163.306 74.4232L146.23 115.044L151.761 117.369L157.292 119.694L174.368 79.0736L168.837 76.7484ZM151.645 117.739L145.785 116.451C144.694 121.414 138.98 127.299 127.817 131.452L129.909 137.076L132.001 142.699C144.412 138.082 155.079 130.066 157.505 119.027L151.645 117.739ZM130.015 145.454L128.154 151.158C135.143 153.438 140.566 156.435 144.128 159.651C147.679 162.858 149 165.892 149 168.5H155H161C161 161.457 157.349 155.422 152.169 150.745C146.999 146.077 139.929 142.377 131.876 139.749L130.015 145.454ZM155 168.5H149C149 168.576 148.998 168.667 148.994 168.783L154.99 168.995L160.987 169.207C160.994 168.994 161 168.755 161 168.5H155ZM155 169.005H149V177H155H161V169.005H155ZM153 179V173H47V179V185H153V179ZM45 177H51V169.005H45H39V177H45ZM45.0096 168.995L51.0058 168.783C51.0017 168.667 51 168.576 51 168.5H45H39C39 168.755 39.0058 168.994 39.0133 169.207L45.0096 168.995ZM45 168.5H51C51 165.863 52.352 162.786 55.996 159.54C59.647 156.288 65.1977 153.27 72.3323 151L70.5132 145.283L68.6942 139.565C60.4911 142.175 53.2852 145.884 48.014 150.58C42.7357 155.282 39 161.374 39 168.5H45ZM70.6734 136.921L72.8047 131.312C64.3957 128.117 58.928 123.818 56.5056 119.667L51.3233 122.691L46.1411 125.715C50.492 133.171 58.8055 138.83 68.542 142.53L70.6734 136.921ZM51.2558 122.676L56.7021 120.158L56.4151 119.537L50.9688 122.055L45.5224 124.572L45.8095 125.193L51.2558 122.676ZM50.9688 122.055L56.2616 119.229C56.031 118.797 55.8367 118.376 55.6759 117.964L50.0879 120.149L44.4999 122.335C44.8426 123.211 45.2376 124.06 45.6759 124.881L50.9688 122.055ZM50.0879 120.149L55.5345 117.633L35.6566 74.6133L30.21 77.1301L24.7633 79.6468L44.6412 122.666L50.0879 120.149ZM28.4371 75.9179L29.0549 69.9498C24.5307 69.4815 21 65.6494 21 61H15H9C9 71.8636 17.2439 80.7914 27.8193 81.886L28.4371 75.9179ZM15 61H21C21 56.0294 25.0294 52 30 52V46V40C18.402 40 9 49.402 9 61H15ZM30 46V52C34.9706 52 39 56.0294 39 61H45H51C51 49.402 41.598 40 30 40V46ZM45 61H39C39 62.077 38.8126 63.0984 38.4731 64.0422L44.1191 66.0726L49.7652 68.103C50.5653 65.8782 51 63.4841 51 61H45ZM44.6329 68.4272L40.5562 72.8295L55.1293 86.3245L59.206 81.9221L63.2826 77.5198L48.7096 64.0248L44.6329 68.4272ZM62.5605 80.3221L68.5473 79.9245L67.0449 57.3056L61.058 57.7032L55.0712 58.1009L56.5737 80.7198L62.5605 80.3221ZM59.2116 55.7399L60.32 49.8432C56.1519 49.0597 53 45.3917 53 41H47H41C41 51.2711 48.3676 59.8066 58.1031 61.6367L59.2116 55.7399ZM47 41H53C53 36.0294 57.0294 32 62 32V26V20C50.402 20 41 29.402 41 41H47ZM62 26V32C66.9706 32 71 36.0294 71 41H77H83C83 29.402 73.598 20 62 20V26ZM77 41H71C71 42.6944 70.5369 44.2629 69.7332 45.6067L74.8827 48.6862L80.0321 51.7657C81.917 48.6138 83 44.9248 83 41H77ZM74.7571 50.7549L69.3735 53.4039L79.4441 73.8705L84.8277 71.2215L90.2113 68.5725L80.1407 48.1059L74.7571 50.7549ZM88.5841 70.7269L94.4699 71.8922L98.7989 50.0268L92.9131 48.8616L87.0273 47.6963L82.6984 69.5616L88.5841 70.7269ZM91.8951 46.6236L95.1414 41.5777C92.6372 39.9666 91 37.1726 91 34H85H79C79 41.4244 82.8574 47.9437 88.6487 51.6695L91.8951 46.6236ZM85 34H91C91 29.0294 95.0294 25 100 25V19V13C88.402 13 79 22.402 79 34H85ZM92.9131 48.8616L98.7989 50.0268C99.5167 46.401 97.6656 43.2017 95.1414 41.5777L91.8951 46.6236L88.6487 51.6695C87.6303 51.0143 86.6572 49.5657 87.0273 47.6963L92.9131 48.8616ZM84.8277 71.2215L79.4441 73.8705C82.8219 80.7352 92.984 79.3973 94.4699 71.8922L88.5841 70.7269L82.6984 69.5616C83.4413 65.809 88.5224 65.1401 90.2113 68.5725L84.8277 71.2215ZM74.8827 48.6862L69.7332 45.6067C68.4495 47.7533 68.0384 50.6904 69.3735 53.4039L74.7571 50.7549L80.1407 48.1059C80.827 49.5006 80.5615 50.8804 80.0321 51.7657L74.8827 48.6862ZM61.058 57.7032L67.0449 57.3056C66.7703 53.1723 63.5727 50.4546 60.32 49.8432L59.2116 55.7399L58.1031 61.6367C56.8158 61.3947 55.2132 60.2388 55.0712 58.1009L61.058 57.7032ZM59.206 81.9221L55.1293 86.3245C60.4381 91.2406 69.0268 87.1441 68.5473 79.9245L62.5605 80.3221L56.5737 80.7198C56.3339 77.11 60.6282 75.0617 63.2826 77.5198L59.206 81.9221ZM44.1191 66.0726L38.4731 64.0422C37.4796 66.805 37.9084 70.3776 40.5562 72.8295L44.6329 68.4272L48.7096 64.0248C50.0743 65.2886 50.167 66.9857 49.7652 68.103L44.1191 66.0726ZM51.2901 122.684L47.6901 117.884C50.7333 115.602 55.106 116.705 56.7021 120.158L51.2558 122.676L45.8095 125.193C47.4177 128.672 51.8237 129.784 54.8901 127.484L51.2901 122.684ZM45.0048 169V175C48.4052 175 51.1261 172.18 51.0058 168.783L45.0096 168.995L39.0133 169.207C38.8933 165.816 41.6098 163 45.0048 163V169ZM45 169.005H51C51 172.316 48.3159 175 45.0048 175V169V163C41.6884 163 39 165.688 39 169.005H45ZM47 179V173C49.2091 173 51 174.791 51 177H45H39C39 181.418 42.5817 185 47 185V179ZM155 177H149C149 174.791 150.791 173 153 173V179V185C157.418 185 161 181.418 161 177H155ZM129.909 137.076L127.817 131.452C124.768 132.587 123.492 135.24 123.002 136.606C122.428 138.203 122.236 139.897 122.253 141.371C122.271 142.843 122.502 144.537 123.122 146.127C123.653 147.489 125.022 150.136 128.154 151.158L130.015 145.454L131.876 139.749C132.891 140.081 133.529 140.668 133.855 141.056C134.168 141.429 134.283 141.717 134.302 141.767C134.333 141.847 134.257 141.652 134.252 141.228C134.247 140.807 134.318 140.599 134.295 140.664C134.28 140.706 134.179 140.983 133.89 141.351C133.59 141.733 132.989 142.332 132.001 142.699L129.909 137.076ZM151.761 117.369L146.23 115.044C146.025 115.532 145.883 116.007 145.785 116.451L151.645 117.739L157.505 119.027C157.463 119.218 157.397 119.446 157.292 119.694L151.761 117.369ZM155.119 67.4718L159.347 71.7293C161.69 69.4027 162.147 66.1733 161.373 63.5789L155.623 65.2935L149.874 67.0082C149.558 65.9493 149.686 64.4119 150.891 63.2144L155.119 67.4718ZM154.995 169V175C151.684 175 149 172.316 149 169.005H155H161C161 165.688 158.312 163 154.995 163V169ZM137.875 79.6632L131.888 79.2657C131.4 86.6216 140.277 90.667 145.508 85.4723L141.28 81.2149L137.052 76.9575C139.668 74.3601 144.106 76.3828 143.862 80.0608L137.875 79.6632ZM170 76V70C167.285 70 164.513 71.5517 163.306 74.4232L168.837 76.7484L174.368 79.0736C173.551 81.0182 171.709 82 170 82V76ZM51.3233 122.691L56.5056 119.667C54.6566 116.498 50.5163 115.765 47.6901 117.884L51.2901 122.684L54.8901 127.484C52.0857 129.588 47.9763 128.86 46.1411 125.715L51.3233 122.691ZM125.46 51.1085L130.844 53.7577C132.214 50.9733 131.747 47.9591 130.379 45.7925L125.305 48.9945L120.231 52.1965C119.669 51.305 119.372 49.891 120.077 48.4594L125.46 51.1085ZM154.99 168.995L148.994 168.783C148.874 172.18 151.595 175 154.995 175V169V163C158.39 163 161.107 165.816 160.987 169.207L154.99 168.995ZM30.21 77.1301L35.6566 74.6133C34.3344 71.7518 31.638 70.2172 29.0549 69.9498L28.4371 75.9179L27.8193 81.886C26.7579 81.7762 25.4439 81.1196 24.7633 79.6468L30.21 77.1301ZM141.131 55.6717L139.885 49.8026C136.705 50.4778 133.621 53.179 133.352 57.228L139.339 57.6256L145.325 58.0232C145.186 60.1164 143.64 61.2728 142.377 61.5409L141.131 55.6717ZM70.5132 145.283L72.3323 151C75.4707 150.002 76.8583 147.369 77.4003 146.007C78.0314 144.422 78.274 142.73 78.3009 141.259C78.3278 139.785 78.1465 138.092 77.5821 136.491C77.0991 135.121 75.8407 132.466 72.8047 131.312L70.6734 136.921L68.542 142.53C67.5598 142.157 66.9633 141.555 66.6664 141.172C66.3798 140.803 66.2803 140.525 66.2651 140.482C66.2416 140.415 66.3105 140.621 66.3029 141.039C66.2952 141.46 66.2184 141.651 66.2514 141.569C66.2719 141.517 66.3897 141.228 66.7061 140.857C67.0362 140.47 67.6783 139.888 68.6942 139.565L70.5132 145.283ZM112.087 70.1568L106.201 71.322C107.687 78.8271 117.849 80.1652 121.227 73.3007L115.843 70.6515L110.46 68.0023C112.149 64.57 117.23 65.2391 117.973 68.9916L112.087 70.1568ZM108.703 46.2179L105.218 41.3339C102.873 43.0073 101.208 46.0991 101.893 49.5606L107.779 48.3954L113.665 47.2301C114.018 49.0133 113.141 50.4224 112.188 51.1019L108.703 46.2179Z" fill="var(--stroke-0, black)" mask="url(#path-2-inside-1_0_4)"/>
</g>
<g id="Ring 1">
<mask id="mask0_0_4" style="mask-type:alpha" maskUnits="userSpaceOnUse" x="49" y="87" width="103" height="55">
<g id="Queen">
<mask id="path-4-inside-2_0_4" fill="white">
<path d="M100.5 87C128.943 87 152 99.3122 152 114.5C152 129.688 128.943 142 100.5 142C72.0573 142 49 129.688 49 114.5C49 99.3122 72.0573 87 100.5 87Z"/>
</mask>
<path d="M100.5 87C128.943 87 152 99.3122 152 114.5C152 129.688 128.943 142 100.5 142C72.0573 142 49 129.688 49 114.5C49 99.3122 72.0573 87 100.5 87Z" fill="url(#paint1_linear_0_4)"/>
<path d="M100.5 87V93C113.935 93 125.8 95.9207 134.09 100.347C142.636 104.911 146 110.197 146 114.5H152H158C158 103.615 149.836 95.1516 139.742 89.7619C129.393 84.2354 115.508 81 100.5 81V87ZM152 114.5H146C146 118.803 142.636 124.089 134.09 128.653C125.8 133.079 113.935 136 100.5 136V142V148C115.508 148 129.393 144.765 139.742 139.238C149.836 133.848 158 125.385 158 114.5H152ZM100.5 142V136C87.0652 136 75.1999 133.079 66.9102 128.653C58.3644 124.089 55 118.803 55 114.5H49H43C43 125.385 51.1643 133.848 61.2578 139.238C71.6074 144.765 85.4921 148 100.5 148V142ZM49 114.5H55C55 110.197 58.3644 104.911 66.9102 100.347C75.1999 95.9207 87.0652 93 100.5 93V87V81C85.4921 81 71.6074 84.2354 61.2578 89.7619C51.1643 95.1516 43 103.615 43 114.5H49Z" fill="var(--stroke-0, black)" mask="url(#path-4-inside-2_0_4)"/>
</g>
</mask>
<g mask="url(#mask0_0_4)">
<path id="Ellipse 8" d="M100.5 111C114.328 111 126.698 114 135.503 118.701C144.436 123.471 149 129.552 149 135.5C149 141.448 144.436 147.529 135.503 152.299C126.698 157 114.328 160 100.5 160C86.672 160 74.3018 157 65.4971 152.299C56.5644 147.529 52 141.448 52 135.5C52 129.552 56.5644 123.471 65.4971 118.701C74.3018 114 86.672 111 100.5 111Z" stroke="var(--stroke-0, black)" stroke-width="6"/>
</g>
</g>
</g>
<defs>
<linearGradient id="paint0_linear_0_4" x1="100" y1="19" x2="100" y2="179" gradientUnits="userSpaceOnUse">
<stop offset="0.5" stop-color="#635B50"/>
<stop offset="1" stop-color="#1C1A17"/>
</linearGradient>
<linearGradient id="paint1_linear_0_4" x1="67.7824" y1="93.1875" x2="96.5519" y2="158.647" gradientUnits="userSpaceOnUse">
<stop stop-color="#EEEEEE"/>
<stop offset="1" stop-color="#DDDDDD"/>
</linearGradient>
</defs>
</svg>
