<svg preserveAspectRatio="none" width="100%" height="100%" overflow="visible" style="display: block;" viewBox="0 0 200 200" fill="none" xmlns="http://www.w3.org/2000/svg">
<g id="Frame">
<g id="Piece">
<mask id="path-1-inside-1_0_4" fill="white">
<path d="M100 19C108.284 19 115 25.7157 115 34C115 39.0394 112.515 43.4981 108.703 46.2179C108.007 46.7148 107.613 47.5562 107.779 48.3954L112.087 70.1568C112.458 72.0331 114.999 72.3676 115.843 70.6515L125.46 51.1085C125.793 50.4322 125.708 49.632 125.305 48.9945C123.845 46.6803 123 43.9388 123 41C123 32.7157 129.716 26 138 26C146.284 26 153 32.7157 153 41C153 48.2105 147.912 54.2319 141.131 55.6717C140.172 55.8753 139.403 56.6477 139.339 57.6256L137.875 79.6632C137.753 81.5022 139.972 82.5136 141.28 81.2149L155.119 67.4718C155.688 66.9073 155.852 66.0613 155.623 65.2935C155.218 63.9333 155 62.4921 155 61C155 52.7157 161.716 46 170 46C178.284 46 185 52.7157 185 61C185 69.2843 178.284 76 170 76C169.497 76 169.032 76.285 168.837 76.7484L151.761 117.369C151.711 117.489 151.673 117.612 151.645 117.739C149.887 125.74 141.696 132.69 129.909 137.076C127.646 137.918 127.72 144.705 130.015 145.454C145.058 150.361 155 158.849 155 168.5C155 168.665 154.996 168.83 154.99 168.995C154.99 168.998 154.992 169 154.995 169C154.998 169 155 169.002 155 169.005V177C155 178.105 154.105 179 153 179H47C45.8954 179 45 178.105 45 177V169.005C45 169.002 45.0021 169 45.0048 169C45.0075 169 45.0097 168.998 45.0096 168.995C45.0038 168.83 45 168.665 45 168.5C45 158.737 55.1756 150.162 70.5132 145.283C72.8132 144.551 72.9296 137.778 70.6734 136.921C61.6006 133.473 54.71 128.495 51.3233 122.691C51.3165 122.679 51.301 122.676 51.2901 122.684C51.2785 122.693 51.2619 122.689 51.2558 122.676L50.9688 122.055C50.6343 121.428 50.3396 120.793 50.0879 120.149L30.21 77.1301C29.8891 76.4357 29.198 75.9967 28.4371 75.9179C20.8873 75.1364 15 68.7565 15 61C15 52.7157 21.7157 46 30 46C38.2843 46 45 52.7157 45 61C45 62.7806 44.6889 64.4883 44.1191 66.0726C43.8233 66.8954 43.9914 67.8331 44.6329 68.4272L59.206 81.9221C60.5332 83.1512 62.6803 82.127 62.5605 80.3221L61.058 57.7032C60.9918 56.7056 60.1942 55.9247 59.2116 55.7399C52.2597 54.4332 47 48.3314 47 41C47 32.7157 53.7157 26 62 26C70.2843 26 77 32.7157 77 41C77 43.8096 76.2269 46.4383 74.8827 48.6862C74.5055 49.3169 74.4327 50.0955 74.7571 50.7549L84.8277 71.2215C85.6721 72.9377 88.2127 72.6032 88.5841 70.7269L92.9131 48.8616C93.087 47.9834 92.6479 47.108 91.895 46.6236C87.7473 43.9551 85 39.2985 85 34C85 25.7157 91.7157 19 100 19Z"/>
</mask>
<path d="M100 19C108.284 19 115 25.7157 115 34C115 39.0394 112.515 43.4981 108.703 46.2179C108.007 46.7148 107.613 47.5562 107.779 48.3954L112.087 70.1568C112.458 72.0331 114.999 72.3676 115.843 70.6515L125.46 51.1085C125.793 50.4322 125.708 49.632 125.305 48.9945C123.845 46.6803 123 43.9388 123 41C123 32.7157 129.716 26 138 26C146.284 26 153 32.7157 153 41C153 48.2105 147.912 54.2319 141.131 55.6717C140.172 55.8753 139.403 56.6477 139.339 57.6256L137.875 79.6632C137.753 81.5022 139.972 82.5136 141.28 81.2149L155.119 67.4718C155.688 66.9073 155.852 66.0613 155.623 65.2935C155.218 63.9333 155 62.4921 155 61C155 52.7157 161.716 46 170 46C178.284 46 185 52.7157 185 61C185 69.2843 178.284 76 170 76C169.497 76 169.032 76.285 168.837 76.7484L151.761 117.369C151.711 117.489 151.673 117.612 151.645 117.739C149.887 125.74 141.696 132.69 129.909 137.076C127.646 137.918 127.72 144.705 130.015 145.454C145.058 150.361 155 158.849 155 168.5C155 168.665 154.996 168.83 154.99 168.995C154.99 168.998 154.992 169 154.995 169C154.998 169 155 169.002 155 169.005V177C155 178.105 154.105 179 153 179H47C45.8954 179 45 178.105 45 177V169.005C45 169.002 45.0021 169 45.0048 169C45.0075 169 45.0097 168.998 45.0096 168.995C45.0038 168.83 45 168.665 45 168.5C45 158.737 55.1756 150.162 70.5132 145.283C72.8132 144.551 72.9296 137.778 70.6734 136.921C61.6006 133.473 54.71 128.495 51.3233 122.691C51.3165 122.679 51.301 122.676 51.2901 122.684C51.2785 122.693 51.2619 122.689 51.2558 122.676L50.9688 122.055C50.6343 121.428 50.3396 120.793 50.0879 120.149L30.21 77.1301C29.8891 76.4357 29.198 75.9967 28.4371 75.9179C20.8873 75.1364 15 68.7565 15 61C15 52.7157 21.7157 46 30 46C38.2843 46 45 52.7157 45 61C45 62.7806 44.6889 64.4883 44.1191 66.0726C43.8233 66.8954 43.9914 67.8331 44.6329 68.4272L59.206 81.9221C60.5332 83.1512 62.6803 82.127 62.5605 80.3221L61.058 57.7032C60.9918 56.7056 60.1942 55.9247 59.2116 55.7399C52.2597 54.4332 47 48.3314 47 41C47 32.7157 53.7157 26 62 26C70.2843 26 77 32.7157 77 41C77 43.8096 76.2269 46.4383 74.8827 48.6862C74.5055 49.3169 74.4327 50.0955 74.7571 50.7549L84.8277 71.2215C85.6721 72.9377 88.2127 72.6032 88.5841 70.7269L92.9131 48.8616C93.087 47.9834 92.6479 47.108 91.895 46.6236C87.7473 43.9551 85 39.2985 85 34C85 25.7157 91.7157 19 100 19Z" fill="url(#paint0_linear_0_4)"/>
<path d="M50.9688 122.055L56.4151 119.537L56.3427 119.381L56.2616 119.229L50.9688 122.055ZM50.0879 120.149L55.6759 117.964L55.6102 117.796L55.5345 117.633L50.0879 120.149ZM92.9131 48.8616L98.7989 50.0268L92.9131 48.8616ZM91.8951 46.6236L88.6487 51.6695L91.8951 46.6236ZM84.8277 71.2215L79.4441 73.8705L84.8277 71.2215ZM88.5841 70.7269L82.6984 69.5616L88.5841 70.7269ZM74.8827 48.6862L69.7332 45.6067L74.8827 48.6862ZM61.058 57.7032L55.0712 58.1009L61.058 57.7032ZM59.2116 55.7399L60.32 49.8432V49.8432L59.2116 55.7399ZM59.206 81.9221L55.1293 86.3245L59.206 81.9221ZM62.5605 80.3221L68.5473 79.9245L62.5605 80.3221ZM44.6329 68.4272L40.5562 72.8295L44.6329 68.4272ZM51.2901 122.684L54.8901 127.484L51.2901 122.684ZM51.2558 122.676L45.8095 125.193L51.2558 122.676ZM45.0096 168.995L39.0133 169.207L45.0096 168.995ZM129.909 137.076L127.817 131.452L129.909 137.076ZM130.015 145.454L128.154 151.158L130.015 145.454ZM151.761 117.369L146.23 115.044L151.761 117.369ZM151.645 117.739L145.785 116.451L151.645 117.739ZM155.119 67.4718L159.347 71.7293L155.119 67.4718ZM155.623 65.2935L161.373 63.5789L155.623 65.2935ZM137.875 79.6632L143.862 80.0608L137.875 79.6632ZM141.28 81.2149L137.052 76.9575L141.28 81.2149ZM168.837 76.7484L163.306 74.4232L168.837 76.7484ZM51.3233 122.691L46.1411 125.715L51.3233 122.691ZM125.46 51.1085L130.844 53.7577L125.46 51.1085ZM125.305 48.9945L120.231 52.1965L125.305 48.9945ZM154.99 168.995L160.987 169.207L154.99 168.995ZM141.131 55.6717L139.885 49.8026L141.131 55.6717ZM139.339 57.6256L145.325 58.0232L139.339 57.6256ZM70.5132 145.283L72.3323 151L70.5132 145.283ZM70.6734 136.921L72.8047 131.312L70.6734 136.921ZM112.087 70.1568L106.201 71.322L112.087 70.1568ZM108.703 46.2179L105.218 41.3339L108.703 46.2179ZM107.779 48.3954L113.665 47.2301L107.779 48.3954ZM100 19V25C104.971 25 109 29.0294 109 34H115H121C121 22.402 111.598 13 100 13V19ZM115 34H109C109 37.0186 107.519 39.6916 105.218 41.3339L108.703 46.2179L112.188 51.1019C117.51 47.3045 121 41.0602 121 34H115ZM107.779 48.3954L101.893 49.5606L106.201 71.322L112.087 70.1568L117.973 68.9916L113.665 47.2301L107.779 48.3954ZM115.843 70.6515L121.227 73.3007L130.844 53.7577L125.46 51.1085L120.077 48.4594L110.46 68.0023L115.843 70.6515ZM125.305 48.9945L130.379 45.7925C129.506 44.4087 129 42.7727 129 41H123H117C117 45.1048 118.184 48.9518 120.231 52.1965L125.305 48.9945ZM123 41H129C129 36.0294 133.029 32 138 32V26V20C126.402 20 117 29.402 117 41H123ZM138 26V32C142.971 32 147 36.0294 147 41H153H159C159 29.402 149.598 20 138 20V26ZM153 41H147C147 45.3186 143.952 48.939 139.885 49.8026L141.131 55.6717L142.377 61.5409C151.873 59.5247 159 51.1024 159 41H153ZM139.339 57.6256L133.352 57.228L131.888 79.2657L137.875 79.6632L143.862 80.0608L145.325 58.0232L139.339 57.6256ZM141.28 81.2149L145.508 85.4723L159.347 71.7293L155.119 67.4718L150.891 63.2144L137.052 76.9575L141.28 81.2149ZM155.623 65.2935L161.373 63.5789C161.132 62.7691 161 61.9053 161 61H155H149C149 63.0789 149.304 65.0974 149.874 67.0082L155.623 65.2935ZM155 61H161C161 56.0294 165.029 52 170 52V46V40C158.402 40 149 49.402 149 61H155ZM170 46V52C174.971 52 179 56.0294 179 61H185H191C191 49.402 181.598 40 170 40V46ZM185 61H179C179 65.9706 174.971 70 170 70V76V82C181.598 82 191 72.598 191 61H185ZM168.837 76.7484L163.306 74.4232L146.23 115.044L151.761 117.369L157.292 119.694L174.368 79.0736L168.837 76.7484ZM151.645 117.739L145.785 116.451C144.694 121.414 138.98 127.299 127.817 131.452L129.909 137.076L132.001 142.699C144.412 138.082 155.079 130.066 157.505 119.027L151.645 117.739ZM130.015 145.454L128.154 151.158C135.143 153.438 140.566 156.435 144.128 159.651C147.679 162.858 149 165.892 149 168.5H155H161C161 161.457 157.349 155.422 152.169 150.745C146.999 146.077 139.929 142.377 131.876 139.749L130.015 145.454ZM155 168.5H149C149 168.576 148.998 168.667 148.994 168.783L154.99 168.995L160.987 169.207C160.994 168.994 161 168.755 161 168.5H155ZM155 169.005H149V177H155H161V169.005H155ZM153 179V173H47V179V185H153V179ZM45 177H51V169.005H45H39V177H45ZM45.0096 168.995L51.0058 168.783C51.0017 168.667 51 168.576 51 168.5H45H39C39 168.755 39.0058 168.994 39.0133 169.207L45.0096 168.995ZM45 168.5H51C51 165.863 52.352 162.786 55.996 159.54C59.647 156.288 65.1977 153.27 72.3323 151L70.5132 145.283L68.6942 139.565C60.4911 142.175 53.2852 145.884 48.014 150.58C42.7357 155.282 39 161.374 39 168.5H45ZM70.6734 136.921L72.8047 131.312C64.3957 128.117 58.928 123.818 56.5056 119.667L51.3233 122.691L46.1411 125.715C50.492 133.171 58.8055 138.83 68.542 142.53L70.6734 136.921ZM51.2558 122.676L56.7021 120.158L56.4151 119.537L50.9688 122.055L45.5224 124.572L45.8095 125.193L51.2558 122.676ZM50.9688 122.055L56.2616 119.229C56.031 118.797 55.8367 118.376 55.6759 117.964L50.0879 120.149L44.4999 122.335C44.8426 123.211 45.2376 124.06 45.6759 124.881L50.9688 122.055ZM50.0879 120.149L55.5345 117.633L35.6566 74.6133L30.21 77.1301L24.7633 79.6468L44.6412 122.666L50.0879 120.149ZM28.4371 75.9179L29.0549 69.9498C24.5307 69.4815 21 65.6494 21 61H15H9C9 71.8636 17.2439 80.7914 27.8193 81.886L28.4371 75.9179ZM15 61H21C21 56.0294 25.0294 52 30 52V46V40C18.402 40 9 49.402 9 61H15ZM30 46V52C34.9706 52 39 56.0294 39 61H45H51C51 49.402 41.598 40 30 40V46ZM45 61H39C39 62.077 38.8126 63.0984 38.4731 64.0422L44.1191 66.0726L49.7652 68.103C50.5653 65.8782 51 63.4841 51 61H45ZM44.6329 68.4272L40.5562 72.8295L55.1293 86.3245L59.206 81.9221L63.2826 77.5198L48.7096 64.0248L44.6329 68.4272ZM62.5605 80.3221L68.5473 79.9245L67.0449 57.3056L61.058 57.7032L55.0712 58.1009L56.5737 80.7198L62.5605 80.3221ZM59.2116 55.7399L60.32 49.8432C56.1519 49.0597 53 45.3917 53 41H47H41C41 51.2711 48.3676 59.8066 58.1031 61.6367L59.2116 55.7399ZM47 41H53C53 36.0294 57.0294 32 62 32V26V20C50.402 20 41 29.402 41 41H47ZM62 26V32C66.9706 32 71 36.0294 71 41H77H83C83 29.402 73.598 20 62 20V26ZM77 41H71C71 42.6944 70.5369 44.2629 69.7332 45.6067L74.8827 48.6862L80.0321 51.7657C81.917 48.6138 83 44.9248 83 41H77ZM74.7571 50.7549L69.3735 53.4039L79.4441 73.8705L84.8277 71.2215L90.2113 68.5725L80.1407 48.1059L74.7571 50.7549ZM88.5841 70.7269L94.4699 71.8922L98.7989 50.0268L92.9131 48.8616L87.0273 47.6963L82.6984 69.5616L88.5841 70.7269ZM91.8951 46.6236L95.1414 41.5777C92.6372 39.9666 91 37.1726 91 34H85H79C79 41.4244 82.8574 47.9437 88.6487 51.6695L91.8951 46.6236ZM85 34H91C91 29.0294 95.0294 25 100 25V19V13C88.402 13 79 22.402 79 34H85ZM92.9131 48.8616L98.7989 50.0268C99.5167 46.401 97.6656 43.2017 95.1414 41.5777L91.8951 46.6236L88.6487 51.6695C87.6303 51.0143 86.6572 49.5657 87.0273 47.6963L92.9131 48.8616ZM84.8277 71.2215L79.4441 73.8705C82.8219 80.7352 92.984 79.3973 94.4699 71.8922L88.5841 70.7269L82.6984 69.5616C83.4413 65.809 88.5224 65.1401 90.2113 68.5725L84.8277 71.2215ZM74.8827 48.6862L69.7332 45.6067C68.4495 47.7533 68.0384 50.6904 69.3735 53.4039L74.7571 50.7549L80.1407 48.1059C80.827 49.5006 80.5615 50.8804 80.0321 51.7657L74.8827 48.6862ZM61.058 57.7032L67.0449 57.3056C66.7703 53.1723 63.5727 50.4546 60.32 49.8432L59.2116 55.7399L58.1031 61.6367C56.8158 61.3947 55.2132 60.2388 55.0712 58.1009L61.058 57.7032ZM59.206 81.9221L55.1293 86.3245C60.4381 91.2406 69.0268 87.1441 68.5473 79.9245L62.5605 80.3221L56.5737 80.7198C56.3339 77.11 60.6282 75.0617 63.2826 77.5198L59.206 81.9221ZM44.1191 66.0726L38.4731 64.0422C37.4796 66.805 37.9084 70.3776 40.5562 72.8295L44.6329 68.4272L48.7096 64.0248C50.0743 65.2886 50.167 66.9857 49.7652 68.103L44.1191 66.0726ZM51.2901 122.684L47.6901 117.884C50.7333 115.602 55.106 116.705 56.7021 120.158L51.2558 122.676L45.8095 125.193C47.4177 128.672 51.8237 129.784 54.8901 127.484L51.2901 122.684ZM45.0048 169V175C48.4052 175 51.1261 172.18 51.0058 168.783L45.0096 168.995L39.0133 169.207C38.8933 165.816 41.6098 163 45.0048 163V169ZM45 169.005H51C51 172.316 48.3159 175 45.0048 175V169V163C41.6884 163 39 165.688 39 169.005H45ZM47 179V173C49.2091 173 51 174.791 51 177H45H39C39 181.418 42.5817 185 47 185V179ZM155 177H149C149 174.791 150.791 173 153 173V179V185C157.418 185 161 181.418 161 177H155ZM129.909 137.076L127.817 131.452C124.768 132.587 123.492 135.24 123.002 136.606C122.428 138.203 122.236 139.897 122.253 141.371C122.271 142.843 122.502 144.537 123.122 146.127C123.653 147.489 125.022 150.136 128.154 151.158L130.015 145.454L131.876 139.749C132.891 140.081 133.529 140.668 133.855 141.056C134.168 141.429 134.283 141.717 134.302 141.767C134.333 141.847 134.257 141.652 134.252 141.228C134.247 140.807 134.318 140.599 134.295 140.664C134.28 140.706 134.179 140.983 133.89 141.351C133.59 141.733 132.989 142.332 132.001 142.699L129.909 137.076ZM151.761 117.369L146.23 115.044C146.025 115.532 145.883 116.007 145.785 116.451L151.645 117.739L157.505 119.027C157.463 119.218 157.397 119.446 157.292 119.694L151.761 117.369ZM155.119 67.4718L159.347 71.7293C161.69 69.4027 162.147 66.1733 161.373 63.5789L155.623 65.2935L149.874 67.0082C149.558 65.9493 149.686 64.4119 150.891 63.2144L155.119 67.4718ZM154.995 169V175C151.684 175 149 172.316 149 169.005H155H161C161 165.688 158.312 163 154.995 163V169ZM137.875 79.6632L131.888 79.2657C131.4 86.6216 140.277 90.667 145.508 85.4723L141.28 81.2149L137.052 76.9575C139.668 74.3601 144.106 76.3828 143.862 80.0608L137.875 79.6632ZM170 76V70C167.285 70 164.513 71.5517 163.306 74.4232L168.837 76.7484L174.368 79.0736C173.551 81.0182 171.709 82 170 82V76ZM51.3233 122.691L56.5056 119.667C54.6566 116.498 50.5163 115.765 47.6901 117.884L51.2901 122.684L54.8901 127.484C52.0857 129.588 47.9763 128.86 46.1411 125.715L51.3233 122.691ZM125.46 51.1085L130.844 53.7577C132.214 50.9733 131.747 47.9591 130.379 45.7925L125.305 48.9945L120.231 52.1965C119.669 51.305 119.372 49.891 120.077 48.4594L125.46 51.1085ZM154.99 168.995L148.994 168.783C148.874 172.18 151.595 175 154.995 175V169V163C158.39 163 161.107 165.816 160.987 169.207L154.99 168.995ZM30.21 77.1301L35.6566 74.6133C34.3344 71.7518 31.638 70.2172 29.0549 69.9498L28.4371 75.9179L27.8193 81.886C26.7579 81.7762 25.4439 81.1196 24.7633 79.6468L30.21 77.1301ZM141.131 55.6717L139.885 49.8026C136.705 50.4778 133.621 53.179 133.352 57.228L139.339 57.6256L145.325 58.0232C145.186 60.1164 143.64 61.2728 142.377 61.5409L141.131 55.6717ZM70.5132 145.283L72.3323 151C75.4707 150.002 76.8583 147.369 77.4003 146.007C78.0314 144.422 78.274 142.73 78.3009 141.259C78.3278 139.785 78.1465 138.092 77.5821 136.491C77.0991 135.121 75.8407 132.466 72.8047 131.312L70.6734 136.921L68.542 142.53C67.5598 142.157 66.9633 141.555 66.6664 141.172C66.3798 140.803 66.2803 140.525 66.2651 140.482C66.2416 140.415 66.3105 140.621 66.3029 141.039C66.2952 141.46 66.2184 141.651 66.2514 141.569C66.2719 141.517 66.3897 141.228 66.7061 140.857C67.0362 140.47 67.6783 139.888 68.6942 139.565L70.5132 145.283ZM112.087 70.1568L106.201 71.322C107.687 78.8271 117.849 80.1652 121.227 73.3007L115.843 70.6515L110.46 68.0023C112.149 64.57 117.23 65.2391 117.973 68.9916L112.087 70.1568ZM108.703 46.2179L105.218 41.3339C102.873 43.0073 101.208 46.0991 101.893 49.5606L107.779 48.3954L113.665 47.2301C114.018 49.0133 113.141 50.4224 112.188 51.1019L108.703 46.2179Z" fill="var(--stroke-0, black)" mask="url(#path-1-inside-1_0_4)"/>
</g>
<g id="Ring 1">
<mask id="mask0_0_4" style="mask-type:alpha" maskUnits="userSpaceOnUse" x="49" y="87" width="103" height="55">
<g id="Queen">
<mask id="path-3-inside-2_0_4" fill="white">
<path d="M100.5 87C128.943 87 152 99.3122 152 114.5C152 129.688 128.943 142 100.5 142C72.0573 142 49 129.688 49 114.5C49 99.3122 72.0573 87 100.5 87Z"/>
</mask>
<path d="M100.5 87C128.943 87 152 99.3122 152 114.5C152 129.688 128.943 142 100.5 142C72.0573 142 49 129.688 49 114.5C49 99.3122 72.0573 87 100.5 87Z" fill="url(#paint1_linear_0_4)"/>
<path d="M100.5 87V93C113.935 93 125.8 95.9207 134.09 100.347C142.636 104.911 146 110.197 146 114.5H152H158C158 103.615 149.836 95.1516 139.742 89.7619C129.393 84.2354 115.508 81 100.5 81V87ZM152 114.5H146C146 118.803 142.636 124.089 134.09 128.653C125.8 133.079 113.935 136 100.5 136V142V148C115.508 148 129.393 144.765 139.742 139.238C149.836 133.848 158 125.385 158 114.5H152ZM100.5 142V136C87.0652 136 75.1999 133.079 66.9102 128.653C58.3644 124.089 55 118.803 55 114.5H49H43C43 125.385 51.1643 133.848 61.2578 139.238C71.6074 144.765 85.4921 148 100.5 148V142ZM49 114.5H55C55 110.197 58.3644 104.911 66.9102 100.347C75.1999 95.9207 87.0652 93 100.5 93V87V81C85.4921 81 71.6074 84.2354 61.2578 89.7619C51.1643 95.1516 43 103.615 43 114.5H49Z" fill="var(--stroke-0, black)" mask="url(#path-3-inside-2_0_4)"/>
</g>
</mask>
<g mask="url(#mask0_0_4)">
<path id="Ellipse 8" d="M100.5 111C114.328 111 126.698 114 135.503 118.701C144.436 123.471 149 129.552 149 135.5C149 141.448 144.436 147.529 135.503 152.299C126.698 157 114.328 160 100.5 160C86.672 160 74.3018 157 65.4971 152.299C56.5644 147.529 52 141.448 52 135.5C52 129.552 56.5644 123.471 65.4971 118.701C74.3018 114 86.672 111 100.5 111Z" stroke="var(--stroke-0, black)" stroke-width="6"/>
</g>
</g>
</g>
<defs>
<linearGradient id="paint0_linear_0_4" x1="100" y1="19" x2="100" y2="179" gradientUnits="userSpaceOnUse">
<stop offset="0.5" stop-color="#635B50"/>
<stop offset="1" stop-color="#1C1A17"/>
</linearGradient>
<linearGradient id="paint1_linear_0_4" x1="67.7824" y1="93.1875" x2="96.5519" y2="158.647" gradientUnits="userSpaceOnUse">
<stop stop-color="#EEEEEE"/>
<stop offset="1" stop-color="#DDDDDD"/>
</linearGradient>
</defs>
</svg>
