<svg preserveAspectRatio="none" width="100%" height="100%" overflow="visible" style="display: block;" viewBox="0 0 200 200" fill="none" xmlns="http://www.w3.org/2000/svg">
<g id="Frame">
<path id="Outline" opacity="0.8" d="M99.5001 39.0001L99.5001 37.0001H99.5001V39.0001ZM114.5 54.0001L116.5 54.0001V54.0001H114.5ZM141.5 123L143.5 123V123H141.5ZM57.5001 123H55.5001V123L57.5001 123ZM84.5001 54.0001H82.5001V54.0001L84.5001 54.0001ZM68.8342 92.592L70.2484 91.1778L68.8342 92.592ZM68.5157 90.1997L66.7876 89.1929L68.5157 90.1997ZM96.9436 126.358L98.3576 127.772L96.9436 126.358ZM63.6348 99.6035L61.8148 98.7741L63.6348 99.6035ZM69.4721 152.362L68.9997 150.419L69.4721 152.362ZM70.0993 147.639L71.1755 145.953L70.0993 147.639ZM87.5183 66.6635L86.2496 65.1174L87.5183 66.6635ZM87.7769 63.3577L86.2147 64.6065L87.7769 63.3577ZM129.153 147.475L128.061 145.8L129.153 147.475ZM129.816 152.191L129.358 154.138L129.816 152.191ZM98.3581 122.115L99.7723 120.701L98.3581 122.115ZM111.222 63.3577L109.66 62.1088L111.222 63.3577ZM111.476 66.6592L112.744 65.1129L111.476 66.6592ZM99.5001 39.0001L99.5 41.0001C106.68 41.0002 112.5 46.8205 112.5 54.0001H114.5H116.5C116.5 44.6113 108.889 37.0002 99.5001 37.0001L99.5001 39.0001ZM114.5 54.0001L112.5 54.0001C112.5 57.0695 111.438 59.8851 109.66 62.1088L111.222 63.3577L112.785 64.6066C115.109 61.6999 116.5 58.0101 116.5 54.0001L114.5 54.0001ZM111.476 66.6592L110.207 68.2055C117.036 73.8071 124.393 83.2227 130.047 93.4845C135.717 103.777 139.5 114.605 139.5 123H141.5H143.5C143.5 113.617 139.352 102.084 133.55 91.5543C127.733 80.9945 120.078 71.1289 112.744 65.1129L111.476 66.6592ZM141.5 123L139.5 123C139.5 133.979 135.093 141.214 128.061 145.8L129.153 147.475L130.245 149.151C138.467 143.79 143.5 135.263 143.5 123L141.5 123ZM129.816 152.191L129.358 154.138C136.809 155.889 142.86 158.259 146.997 160.962C151.202 163.709 153 166.496 153 169H155H157C157 164.454 153.783 160.618 149.185 157.613C144.517 154.564 137.977 152.054 130.273 150.244L129.816 152.191ZM155 169H153V177H155H157V169H155ZM153 179V177H47.0001V179V181H153V179ZM45.0001 177H47.0001V169H45.0001H43.0001V177H45.0001ZM45.0001 169H47.0001C47.0001 166.537 48.7393 163.799 52.8108 161.089C56.8198 158.422 62.6929 156.068 69.9445 154.306L69.4721 152.362L68.9997 150.419C61.4961 152.243 55.1331 154.739 50.5949 157.759C46.1192 160.737 43.0001 164.525 43.0001 169H45.0001ZM70.0993 147.639L71.1755 145.953C64.0014 141.373 59.5001 134.096 59.5001 123L57.5001 123L55.5001 123C55.5001 135.4 60.6471 143.977 69.0231 149.324L70.0993 147.639ZM57.5001 123H59.5001C59.5001 116.509 61.7634 108.533 65.4547 100.433L63.6348 99.6035L61.8148 98.7741C58.0097 107.124 55.5001 115.699 55.5001 123H57.5001ZM66.8101 99.0524L65.3959 100.467L92.7011 127.772L94.1153 126.358L95.5295 124.943L68.2243 97.6381L66.8101 99.0524ZM96.9436 126.358L98.3576 127.772L99.772 126.358L98.358 124.944L96.9439 123.529L95.5295 124.943L96.9436 126.358ZM98.3581 122.115L99.7723 120.701L70.2484 91.1778L68.8342 92.592L67.42 94.0063L96.9439 123.529L98.3581 122.115ZM68.5157 90.1997L70.2439 91.2064C75.7037 81.8344 82.4742 73.3897 88.787 68.2096L87.5183 66.6635L86.2496 65.1174C79.4616 70.6875 72.4057 79.5493 66.7876 89.1929L68.5157 90.1997ZM87.7769 63.3577L89.3391 62.1089C87.5616 59.8853 86.5001 57.0694 86.5001 54.0001L84.5001 54.0001L82.5001 54.0001C82.5001 58.0097 83.8911 61.6996 86.2147 64.6065L87.7769 63.3577ZM84.5001 54.0001H86.5001C86.5001 46.8204 92.3204 41.0001 99.5001 41.0001V39.0001V37.0001C90.1112 37.0001 82.5001 44.6113 82.5001 54.0001H84.5001ZM68.8342 92.592L70.2484 91.1778C70.2472 91.1766 70.2477 91.1768 70.2484 91.1782C70.2488 91.1792 70.2492 91.1803 70.2494 91.182C70.2497 91.1838 70.2499 91.1873 70.2489 91.1925C70.2477 91.1983 70.2456 91.2035 70.2439 91.2064L68.5157 90.1997L66.7876 89.1929C65.8703 90.7675 66.1543 92.7406 67.42 94.0063L68.8342 92.592ZM94.1153 126.358L92.7011 127.772C94.2631 129.334 96.7955 129.334 98.3576 127.772L96.9436 126.358L95.5295 124.943L95.5295 124.943L94.1153 126.358ZM63.6348 99.6035L65.4547 100.433C65.4561 100.43 65.4551 100.433 65.4501 100.439C65.4453 100.445 65.4392 100.451 65.4327 100.456C65.4199 100.465 65.4112 100.467 65.4095 100.467C65.408 100.468 65.4052 100.468 65.3999 100.466C65.3968 100.465 65.394 100.464 65.392 100.463C65.3897 100.461 65.3911 100.462 65.3959 100.467L66.8101 99.0524L68.2243 97.6381C66.2983 95.7121 62.9805 96.2161 61.8148 98.7741L63.6348 99.6035ZM155 177H153V177V179V181C155.209 181 157 179.209 157 177H155ZM69.4721 152.362L69.9445 154.306C71.9885 153.809 72.9634 152.002 73.155 150.481C73.3463 148.963 72.8613 147.029 71.1755 145.953L70.0993 147.639L69.0231 149.324C69.0452 149.339 69.0931 149.377 69.1372 149.491C69.1849 149.614 69.2105 149.79 69.1864 149.981C69.1622 150.173 69.0975 150.307 69.0471 150.374C69.0244 150.404 69.0094 150.415 69.0069 150.416C69.0063 150.417 69.0064 150.417 68.9997 150.419L69.4721 152.362ZM87.5183 66.6635L88.787 68.2096C90.7203 66.6231 90.7297 63.8485 89.3391 62.1089L87.7769 63.3577L86.2147 64.6065C86.2882 64.6985 86.3269 64.825 86.3188 64.9445C86.3112 65.0557 86.2708 65.1 86.2496 65.1174L87.5183 66.6635ZM129.153 147.475L128.061 145.8C126.389 146.89 125.918 148.824 126.121 150.34C126.324 151.858 127.311 153.656 129.358 154.138L129.816 152.191L130.273 150.244C130.267 150.242 130.267 150.242 130.267 150.241C130.264 150.24 130.25 150.23 130.227 150.2C130.177 150.134 130.111 150.002 130.086 149.81C130.06 149.62 130.084 149.445 130.131 149.32C130.175 149.205 130.223 149.165 130.245 149.151L129.153 147.475ZM47.0001 179V177H47.0001H45.0001H43.0001C43.0001 179.209 44.7909 181 47.0001 181V179ZM98.358 124.944L99.772 126.358C101.334 124.796 101.335 122.263 99.7723 120.701L98.3581 122.115L96.9439 123.529H96.9439L98.358 124.944ZM111.222 63.3577L109.66 62.1088C108.275 63.8418 108.267 66.6142 110.207 68.2055L111.476 66.6592L112.744 65.1129C112.724 65.0963 112.685 65.0548 112.678 64.9467C112.67 64.8295 112.709 64.7017 112.785 64.6066L111.222 63.3577Z" fill="var(--stroke-0, white)"/>
<g id="Piece">
<mask id="path-2-inside-1_0_4" fill="white">
<path d="M99.5001 39.0001C107.784 39.0002 114.5 45.7159 114.5 54.0001C114.5 57.5398 113.273 60.7925 111.223 63.3577C110.428 64.3512 110.492 65.8524 111.476 66.6592C125.638 78.2767 141.5 105.222 141.5 123C141.5 134.621 136.78 142.502 129.153 147.475C127.45 148.586 127.836 151.725 129.816 152.191C144.97 155.752 155 161.95 155 169V177C155 178.105 154.105 179 153 179H47.0001C45.8955 179 45.0001 178.105 45.0001 177V169C45.0001 162.062 54.7169 155.949 69.4721 152.362C71.45 151.882 71.8149 148.734 70.0993 147.639C62.3243 142.675 57.5001 134.748 57.5001 123C57.5001 116.104 59.8866 107.829 63.6348 99.6035C64.2037 98.355 65.84 98.0823 66.8101 99.0524L94.1152 126.358C94.8962 127.139 96.1625 127.139 96.9436 126.358L98.3583 124.944C99.1394 124.163 99.1393 122.896 98.3583 122.115L68.8342 92.592C68.1992 91.957 68.0637 90.9756 68.5157 90.1997C74.0547 80.6918 80.968 72.0386 87.5183 66.6635C88.5016 65.8566 88.5711 64.3512 87.7769 63.3577C85.7264 60.7924 84.5001 57.5396 84.5001 54.0001C84.5001 45.7158 91.2158 39.0001 99.5001 39.0001Z"/>
</mask>
<path d="M99.5001 39.0001C107.784 39.0002 114.5 45.7159 114.5 54.0001C114.5 57.5398 113.273 60.7925 111.223 63.3577C110.428 64.3512 110.492 65.8524 111.476 66.6592C125.638 78.2767 141.5 105.222 141.5 123C141.5 134.621 136.78 142.502 129.153 147.475C127.45 148.586 127.836 151.725 129.816 152.191C144.97 155.752 155 161.95 155 169V177C155 178.105 154.105 179 153 179H47.0001C45.8955 179 45.0001 178.105 45.0001 177V169C45.0001 162.062 54.7169 155.949 69.4721 152.362C71.45 151.882 71.8149 148.734 70.0993 147.639C62.3243 142.675 57.5001 134.748 57.5001 123C57.5001 116.104 59.8866 107.829 63.6348 99.6035C64.2037 98.355 65.84 98.0823 66.8101 99.0524L94.1152 126.358C94.8962 127.139 96.1625 127.139 96.9436 126.358L98.3583 124.944C99.1394 124.163 99.1393 122.896 98.3583 122.115L68.8342 92.592C68.1992 91.957 68.0637 90.9756 68.5157 90.1997C74.0547 80.6918 80.968 72.0386 87.5183 66.6635C88.5016 65.8566 88.5711 64.3512 87.7769 63.3577C85.7264 60.7924 84.5001 57.5396 84.5001 54.0001C84.5001 45.7158 91.2158 39.0001 99.5001 39.0001Z" fill="url(#paint0_linear_0_4)"/>
<path d="M99.5001 39.0001L99.5001 33.0001H99.5001V39.0001ZM114.5 54.0001L120.5 54.0002V54.0001H114.5ZM141.5 123L147.5 123V123L141.5 123ZM57.5001 123L51.5001 123V123L57.5001 123ZM84.5001 54.0001H78.5001V54.0002L84.5001 54.0001ZM68.5157 90.1997L63.3313 87.1794L68.5157 90.1997ZM94.1152 126.358L89.8724 130.601L94.1152 126.358ZM96.9436 126.358L92.701 122.116L96.9436 126.358ZM66.8101 99.0524L71.0528 94.8098L66.8101 99.0524ZM69.4721 152.362L68.0549 146.532L69.4721 152.362ZM70.0993 147.639L73.3278 142.581L70.0993 147.639ZM87.5183 66.6635L83.7122 62.0252L87.5183 66.6635ZM87.7769 63.3577L83.0902 67.104L87.7769 63.3577ZM129.153 147.475L125.876 142.449L129.153 147.475ZM129.816 152.191L128.443 158.031L129.816 152.191ZM98.3583 124.944L94.1157 120.701L98.3583 124.944ZM98.3583 122.115L94.1157 126.358L98.3583 122.115ZM111.223 63.3577L106.536 59.6109L111.223 63.3577ZM111.476 66.6592L115.281 62.0203L111.476 66.6592ZM99.5001 39.0001L99.5 45.0001C104.471 45.0001 108.5 49.0296 108.5 54.0001H114.5H120.5C120.5 42.4021 111.098 33.0002 99.5001 33.0001L99.5001 39.0001ZM114.5 54.0001L108.5 54.0001C108.5 56.1288 107.768 58.0704 106.536 59.6109L111.223 63.3577L115.909 67.1044C118.779 63.5146 120.5 58.9507 120.5 54.0002L114.5 54.0001ZM111.476 66.6592L107.67 71.2981C113.994 76.4853 121.054 85.4509 126.544 95.4147C132.083 105.47 135.5 115.593 135.5 123L141.5 123L147.5 123C147.5 112.629 142.986 100.39 137.054 89.624C131.072 78.7664 123.12 68.4506 115.281 62.0203L111.476 66.6592ZM141.5 123L135.5 123C135.5 132.695 131.72 138.638 125.876 142.449L129.153 147.475L132.43 152.501C141.84 146.366 147.5 136.546 147.5 123L141.5 123ZM129.816 152.191L128.443 158.031C135.641 159.723 141.203 161.954 144.809 164.31C148.62 166.801 149 168.538 149 169H155H161C161 162.412 156.365 157.526 151.372 154.264C146.175 150.869 139.145 148.22 131.189 146.35L129.816 152.191ZM155 169H149V177H155H161V169H155ZM153 179V173H47.0001V179V185H153V179ZM45.0001 177H51.0001V169H45.0001H39.0001V177H45.0001ZM45.0001 169H51.0001C51.0001 168.548 51.3595 166.86 55.0268 164.419C58.5065 162.104 63.8897 159.894 70.8894 158.193L69.4721 152.362L68.0549 146.532C60.2993 148.417 53.4464 151.057 48.379 154.429C43.4991 157.676 39.0001 162.514 39.0001 169H45.0001ZM70.0993 147.639L73.3278 142.581C67.3558 138.769 63.5001 132.792 63.5001 123L57.5001 123L51.5001 123C51.5001 136.704 57.2927 146.581 66.8708 152.696L70.0993 147.639ZM57.5001 123L63.5001 123C63.5001 117.318 65.5172 109.942 69.0946 102.092L63.6348 99.6035L58.1749 97.1154C54.2559 105.715 51.5001 114.89 51.5001 123L57.5001 123ZM66.8101 99.0524L62.5674 103.295L89.8724 130.601L94.1152 126.358L98.3579 122.116L71.0528 94.8098L66.8101 99.0524ZM96.9436 126.358L101.186 130.601L102.601 129.186L98.3583 124.944L94.1157 120.701L92.701 122.116L96.9436 126.358ZM98.3583 122.115L102.601 117.872L73.0768 88.3493L68.8342 92.592L64.5916 96.8347L94.1157 126.358L98.3583 122.115ZM68.5157 90.1997L73.7001 93.2199C79.0017 84.1195 85.4869 76.092 91.3244 71.3018L87.5183 66.6635L83.7122 62.0252C76.449 67.9852 69.1076 77.2641 63.3313 87.1794L68.5157 90.1997ZM87.7769 63.3577L92.4636 59.6113C91.2323 58.0709 90.5001 56.1291 90.5001 54.0001L84.5001 54.0001L78.5001 54.0002C78.5001 58.95 80.2205 63.5139 83.0902 67.104L87.7769 63.3577ZM84.5001 54.0001H90.5001C90.5001 49.0296 94.5295 45.0001 99.5001 45.0001V39.0001V33.0001C87.9021 33.0001 78.5001 42.4021 78.5001 54.0001H84.5001ZM68.8342 92.592L73.0768 88.3493C74.3339 89.6064 74.6438 91.6001 73.7001 93.2199L68.5157 90.1997L63.3313 87.1794C61.4836 90.3511 62.0645 94.3077 64.5916 96.8347L68.8342 92.592ZM94.1152 126.358L89.8724 130.601C92.9966 133.725 98.062 133.725 101.186 130.601L96.9436 126.358L92.701 122.116C94.2631 120.554 96.7958 120.554 98.3579 122.116L94.1152 126.358ZM63.6348 99.6035L69.0946 102.092C67.8732 104.772 64.4649 105.193 62.5674 103.295L66.8101 99.0524L71.0528 94.8098C67.2151 90.972 60.5341 91.9384 58.1749 97.1154L63.6348 99.6035ZM155 177H149C149 174.791 150.791 173 153 173V179V185C157.418 185 161 181.418 161 177H155ZM69.4721 152.362L70.8894 158.193C75.0435 157.183 76.7967 153.575 77.1237 150.981C77.4495 148.396 76.6698 144.715 73.3278 142.581L70.0993 147.639L66.8708 152.696C65.2444 151.658 65.14 150.098 65.2178 149.481C65.2967 148.855 65.8786 147.061 68.0549 146.532L69.4721 152.362ZM87.5183 66.6635L91.3244 71.3018C95.1579 68.1561 95.0469 62.843 92.4636 59.6113L87.7769 63.3577L83.0902 67.104C82.0954 65.8594 81.8453 63.5571 83.7122 62.0252L87.5183 66.6635ZM129.153 147.475L125.876 142.449C122.563 144.609 121.811 148.287 122.156 150.869C122.502 153.461 124.282 157.054 128.443 158.031L129.816 152.191L131.189 146.35C133.37 146.862 133.967 148.653 134.05 149.281C134.133 149.9 134.039 151.452 132.43 152.501L129.153 147.475ZM47.0001 179V173C49.2092 173 51.0001 174.791 51.0001 177H45.0001H39.0001C39.0001 181.418 42.5818 185 47.0001 185V179ZM98.3583 124.944L102.601 129.186C105.725 126.062 105.725 120.997 102.601 117.872L98.3583 122.115L94.1157 126.358C92.5536 124.796 92.5535 122.263 94.1157 120.701L98.3583 124.944ZM111.223 63.3577L106.536 59.6109C103.968 62.823 103.818 68.1377 107.67 71.2981L111.476 66.6592L115.281 62.0203C117.167 63.5672 116.888 65.8794 115.909 67.1044L111.223 63.3577Z" fill="var(--stroke-0, black)" mask="url(#path-2-inside-1_0_4)"/>
</g>
</g>
<defs>
<linearGradient id="paint0_linear_0_4" x1="100" y1="39.0001" x2="100" y2="179" gradientUnits="userSpaceOnUse">
<stop offset="0.5" stop-color="#F3F2F2"/>
<stop offset="1" stop-color="#B7B4AE"/>
</linearGradient>
</defs>
</svg>
