<svg preserveAspectRatio="none" width="100%" height="100%" overflow="visible" style="display: block;" viewBox="0 0 200 200" fill="none" xmlns="http://www.w3.org/2000/svg">
<g id="Frame">
<path id="Outline" opacity="0.8" d="M158 75.5003L160 75.5003V75.5003H158ZM152 114.5L154 114.5V114.5H152ZM155 168.5L157 168.5V168.5H155ZM45 168.5H43V168.5L45 168.5ZM49 114.5H47V114.5L49 114.5ZM42 75.5003H40V75.5003L42 75.5003ZM49.0086 114.005L51.0075 114.071L49.0086 114.005ZM70.5133 145.283L71.1196 147.189L70.5133 145.283ZM45.0096 168.995L43.0108 169.066L45.0096 168.995ZM151.991 114.005L153.99 113.939L151.991 114.005ZM152.344 94.4311L154.015 95.5301L152.344 94.4311ZM154.99 168.995L156.989 169.066L154.99 168.995ZM48.5985 95.7924L46.9821 96.9701L48.5985 95.7924ZM129.909 137.076L129.212 135.202L129.909 137.076ZM130.015 145.454L130.635 143.553L130.015 145.454ZM105 29.0003V31.0003H112V29.0003V27.0003H105V29.0003ZM114 31.0003H112V33.0003H114H116V31.0003H114ZM112 35.0003V33.0003H105V35.0003V37.0003H112V35.0003ZM103 37.0003H101V43.7824H103H105V37.0003H103ZM106.318 45.578L107.316 47.3114C112.079 44.5696 117.603 43.0003 123.5 43.0003V41.0003V39.0003C116.884 39.0003 110.675 40.7629 105.32 43.8446L106.318 45.578ZM123.5 41.0003V43.0003C141.449 43.0003 156 57.5511 156 75.5003H158H160C160 55.3419 143.658 39.0003 123.5 39.0003V41.0003ZM158 75.5003L156 75.5003C156 82.0888 154.04 88.2132 150.673 93.3322L152.344 94.4311L154.015 95.5301C157.798 89.7792 160 82.8943 160 75.5003L158 75.5003ZM152 95.5629H150V113.996H152H154V95.5629H152ZM151.991 114.005L149.992 114.071C149.997 114.217 150 114.36 150 114.5H152H154C154 114.309 153.996 114.122 153.99 113.939L151.991 114.005ZM152 114.5L150 114.5C150 118.508 148.135 122.429 144.547 126.017C140.951 129.614 135.702 132.787 129.212 135.202L129.909 137.076L130.607 138.951C137.47 136.397 143.265 132.957 147.376 128.845C151.496 124.725 154 119.842 154 114.5L152 114.5ZM130.015 145.454L129.395 147.355C136.739 149.751 142.71 152.983 146.808 156.683C150.903 160.38 153 164.414 153 168.5H155H157C157 162.936 154.126 157.901 149.489 153.714C144.855 149.53 138.334 146.064 130.635 143.553L130.015 145.454ZM155 168.5L153 168.5C153 168.636 152.997 168.776 152.992 168.925L154.99 168.995L156.989 169.066C156.996 168.885 157 168.695 157 168.5L155 168.5ZM155 169.005H153V177H155H157V169.005H155ZM153 179V177H47V179V181H153V179ZM45 177H47V169.005H45H43V177H45ZM45.0096 168.995L47.0083 168.925C47.0031 168.776 47 168.636 47 168.5L45 168.5L43 168.5C43 168.695 43.0044 168.885 43.0108 169.066L45.0096 168.995ZM45 168.5H47C47 164.367 49.1466 160.285 53.3353 156.554C57.5264 152.82 63.6289 149.572 71.1196 147.189L70.5133 145.283L69.9069 143.377C62.06 145.874 55.4058 149.352 50.6747 153.567C45.9412 157.784 43 162.871 43 168.5H45ZM70.6722 136.921L71.3827 135.051C58.4468 130.135 51.0002 122.428 51 114.5L49 114.5L47 114.5C47.0002 125.075 56.6645 133.737 69.9618 138.791L70.6722 136.921ZM49 114.5H51C51 114.36 51.0027 114.217 51.0075 114.071L49.0086 114.005L47.0097 113.939C47.0037 114.122 47 114.309 47 114.5H49ZM49 113.996H51V97.0052H49H47V113.996H49ZM48.5985 95.7924L50.215 94.6147C46.3067 89.2503 44.0001 82.6477 44 75.5003L42 75.5003L40 75.5003C40.0001 83.523 42.5925 90.9451 46.9821 96.9701L48.5985 95.7924ZM42 75.5003H44C44 57.5511 58.5507 43.0003 76.5 43.0003V41.0003V39.0003C56.3416 39.0003 40 55.3419 40 75.5003H42ZM76.5 41.0003V43.0003C82.3967 43.0003 87.9206 44.5696 92.6844 47.3114L93.6821 45.578L94.6797 43.8446C89.3254 40.7629 83.1158 39.0003 76.5 39.0003V41.0003ZM97 43.7824H99V37.0003H97H95V43.7824H97ZM95 35.0003V33.0003H88V35.0003V37.0003H95V35.0003ZM86 33.0003H88V31.0003H86H84V33.0003H86ZM88 29.0003V31.0003H95V29.0003V27.0003H88V29.0003ZM97 27.0003H99V21.0003H97H95V27.0003H97ZM99 19.0003V21.0003H101V19.0003V17.0003H99V19.0003ZM103 21.0003H101V27.0003H103H105V21.0003H103ZM101 19.0003V21.0003V21.0003H103H105C105 18.7912 103.209 17.0003 101 17.0003V19.0003ZM97 21.0003H99V21.0003V19.0003V17.0003C96.7909 17.0003 95 18.7912 95 21.0003H97ZM95 29.0003V31.0003C97.2091 31.0003 99 29.2094 99 27.0003H97H95V27.0003V29.0003ZM88 35.0003V33.0003V33.0003H86H84C84 35.2094 85.7909 37.0003 88 37.0003V35.0003ZM97 37.0003H99C99 34.7912 97.2091 33.0003 95 33.0003V35.0003V37.0003V37.0003H97ZM49.0086 114.005L51.0075 114.071C51.045 112.939 50.1374 112 49.0043 112V114V116C47.8761 116 46.9724 115.066 47.0097 113.939L49.0086 114.005ZM70.5133 145.283L71.1196 147.189C72.5492 146.734 73.304 145.482 73.6839 144.528C74.0936 143.499 74.2807 142.306 74.301 141.185C74.3213 140.064 74.1773 138.866 73.8088 137.821C73.4674 136.853 72.7706 135.579 71.3827 135.051L70.6722 136.921L69.9618 138.791C69.7019 138.692 69.8369 138.586 70.0366 139.152C70.2091 139.641 70.3156 140.343 70.3016 141.113C70.2877 141.884 70.1558 142.576 69.9674 143.049C69.7494 143.597 69.6273 143.466 69.9069 143.377L70.5133 145.283ZM45.0048 169V171C46.14 171 47.0485 170.059 47.0083 168.925L45.0096 168.995L43.0108 169.066C42.9709 167.937 43.8751 167 45.0048 167V169ZM45 169.005H47C47 170.107 46.1067 171 45.0048 171V169V167C43.8976 167 43 167.898 43 169.005H45ZM47 179V177H47H45H43C43 179.209 44.7909 181 47 181V179ZM155 177H153V177V179V181C155.209 181 157 179.209 157 177H155ZM151.996 114V112C150.863 112 149.955 112.939 149.992 114.071L151.991 114.005L153.99 113.939C154.028 115.066 153.124 116 151.996 116V114ZM152 113.996H150C150 112.894 150.893 112 151.996 112V114V116C153.103 116 154 115.103 154 113.996H152ZM86 31.0003H88V31.0003V29.0003V27.0003C85.7909 27.0003 84 28.7912 84 31.0003H86ZM152.344 94.4311L150.673 93.3322C150.248 93.9794 150 94.7513 150 95.5629H152H154C154 95.569 153.998 95.5559 154.015 95.5301L152.344 94.4311ZM93.6821 45.578L92.6844 47.3114C95.2727 48.801 99 47.1531 99 43.7824H97H95C95 43.7936 94.9986 43.795 95 43.7905C95.0012 43.7865 95.0026 43.7844 95.0019 43.7855C94.9996 43.789 94.9821 43.8127 94.9367 43.8368C94.8344 43.8911 94.7394 43.8789 94.6797 43.8446L93.6821 45.578ZM103 43.7824H101C101 47.1531 104.727 48.801 107.316 47.3114L106.318 45.578L105.32 43.8446C105.261 43.8789 105.166 43.8911 105.063 43.8368C105.018 43.8127 105 43.789 104.998 43.7855C104.997 43.7844 104.999 43.7865 105 43.7905C105.001 43.795 105 43.7936 105 43.7824H103ZM154.995 169V171C153.893 171 153 170.107 153 169.005H155H157C157 167.898 156.102 167 154.995 167V169ZM105 35.0003V33.0003C102.791 33.0003 101 34.7912 101 37.0003H103H105V37.0003V35.0003ZM154.99 168.995L152.992 168.925C152.952 170.059 153.86 171 154.995 171V169V167C156.125 167 157.029 167.937 156.989 169.066L154.99 168.995ZM114 33.0003H112V33.0003V35.0003V37.0003C114.209 37.0003 116 35.2094 116 33.0003H114ZM49 97.0052H51C51 96.1254 50.7093 95.2931 50.215 94.6147L48.5985 95.7924L46.9821 96.9701C47.0019 96.9973 47 97.0118 47 97.0052H49ZM112 29.0003V31.0003V31.0003H114H116C116 28.7912 114.209 27.0003 112 27.0003V29.0003ZM129.909 137.076L129.212 135.202C127.818 135.72 127.114 136.993 126.766 137.959C126.391 139.002 126.24 140.2 126.253 141.324C126.266 142.446 126.446 143.641 126.849 144.674C127.222 145.631 127.968 146.89 129.395 147.355L130.015 145.454L130.635 143.553C130.915 143.644 130.791 143.773 130.576 143.221C130.39 142.744 130.262 142.049 130.253 141.276C130.244 140.504 130.355 139.801 130.531 139.311C130.734 138.745 130.869 138.853 130.607 138.951L129.909 137.076ZM49.0043 114V112C50.1065 112 51 112.894 51 113.996H49H47C47 115.103 47.8974 116 49.0043 116V114ZM105 29.0003V27.0003V27.0003H103H101C101 29.2094 102.791 31.0003 105 31.0003V29.0003Z" fill="var(--stroke-0, white)"/>
<g id="Piece">
<mask id="path-2-inside-1_0_4" fill="white">
<path d="M103 27.0003C103 28.1049 103.895 29.0003 105 29.0003H112C113.105 29.0003 114 29.8957 114 31.0003V33.0003C114 34.1049 113.105 35.0003 112 35.0003H105C103.895 35.0003 103 35.8957 103 37.0003V43.7824C103 45.4245 104.895 46.3971 106.318 45.578C111.377 42.6663 117.244 41.0003 123.5 41.0003C142.554 41.0003 158 56.4465 158 75.5003C158 82.4915 155.919 88.9962 152.344 94.4311C152.123 94.7677 152 95.1601 152 95.5629V113.996C152 113.998 151.998 114 151.996 114C151.993 114 151.991 114.002 151.991 114.005C151.997 114.17 152 114.335 152 114.5C152 123.85 143.262 132.108 129.909 137.076C127.647 137.918 127.72 144.705 130.015 145.454C145.058 150.361 155 158.85 155 168.5C155 168.666 154.996 168.831 154.99 168.995C154.99 168.998 154.992 169 154.995 169C154.998 169 155 169.002 155 169.005V177C155 178.105 154.105 179 153 179H47C45.8954 179 45 178.105 45 177V169.005C45 169.002 45.0021 169 45.0048 169C45.0075 169 45.0097 168.998 45.0096 168.995C45.0038 168.831 45 168.666 45 168.5C45 158.737 55.1756 150.163 70.5133 145.283C72.8133 144.551 72.9284 137.778 70.6722 136.921C57.5557 131.936 49.0002 123.752 49 114.5C49 114.335 49.0032 114.17 49.0086 114.005C49.0087 114.002 49.0068 114 49.0043 114C49.0019 114 49 113.998 49 113.996V97.0052C49 96.5686 48.8556 96.1452 48.5985 95.7924C44.4496 90.0977 42.0001 83.0854 42 75.5003C42 56.4465 57.4462 41.0003 76.5 41.0003C82.7562 41.0003 88.623 42.6663 93.6821 45.578C95.1053 46.3971 97 45.4245 97 43.7824V37.0003C97 35.8957 96.1046 35.0003 95 35.0003H88C86.8954 35.0003 86 34.1049 86 33.0003V31.0003C86 29.8957 86.8954 29.0003 88 29.0003H95C96.1046 29.0003 97 28.1049 97 27.0003V21.0003C97 19.8957 97.8954 19.0003 99 19.0003H101C102.105 19.0003 103 19.8957 103 21.0003V27.0003Z"/>
</mask>
<path d="M103 27.0003C103 28.1049 103.895 29.0003 105 29.0003H112C113.105 29.0003 114 29.8957 114 31.0003V33.0003C114 34.1049 113.105 35.0003 112 35.0003H105C103.895 35.0003 103 35.8957 103 37.0003V43.7824C103 45.4245 104.895 46.3971 106.318 45.578C111.377 42.6663 117.244 41.0003 123.5 41.0003C142.554 41.0003 158 56.4465 158 75.5003C158 82.4915 155.919 88.9962 152.344 94.4311C152.123 94.7677 152 95.1601 152 95.5629V113.996C152 113.998 151.998 114 151.996 114C151.993 114 151.991 114.002 151.991 114.005C151.997 114.17 152 114.335 152 114.5C152 123.85 143.262 132.108 129.909 137.076C127.647 137.918 127.72 144.705 130.015 145.454C145.058 150.361 155 158.85 155 168.5C155 168.666 154.996 168.831 154.99 168.995C154.99 168.998 154.992 169 154.995 169C154.998 169 155 169.002 155 169.005V177C155 178.105 154.105 179 153 179H47C45.8954 179 45 178.105 45 177V169.005C45 169.002 45.0021 169 45.0048 169C45.0075 169 45.0097 168.998 45.0096 168.995C45.0038 168.831 45 168.666 45 168.5C45 158.737 55.1756 150.163 70.5133 145.283C72.8133 144.551 72.9284 137.778 70.6722 136.921C57.5557 131.936 49.0002 123.752 49 114.5C49 114.335 49.0032 114.17 49.0086 114.005C49.0087 114.002 49.0068 114 49.0043 114C49.0019 114 49 113.998 49 113.996V97.0052C49 96.5686 48.8556 96.1452 48.5985 95.7924C44.4496 90.0977 42.0001 83.0854 42 75.5003C42 56.4465 57.4462 41.0003 76.5 41.0003C82.7562 41.0003 88.623 42.6663 93.6821 45.578C95.1053 46.3971 97 45.4245 97 43.7824V37.0003C97 35.8957 96.1046 35.0003 95 35.0003H88C86.8954 35.0003 86 34.1049 86 33.0003V31.0003C86 29.8957 86.8954 29.0003 88 29.0003H95C96.1046 29.0003 97 28.1049 97 27.0003V21.0003C97 19.8957 97.8954 19.0003 99 19.0003H101C102.105 19.0003 103 19.8957 103 21.0003V27.0003Z" fill="url(#paint0_linear_0_4)"/>
<path d="M158 75.5003L164 75.5004V75.5003H158ZM152 114.5L158 114.5V114.5H152ZM155 168.5L161 168.5V168.5H155ZM45 168.5H39V168.5L45 168.5ZM49 114.5H43V114.5L49 114.5ZM42 75.5003H36V75.5004L42 75.5003ZM49.0086 114.005L55.0054 114.203L49.0086 114.005ZM70.5133 145.283L72.3323 151.001L70.5133 145.283ZM45.0096 168.995L39.0133 169.208L45.0096 168.995ZM151.991 114.005L157.988 113.806L151.991 114.005ZM152.344 94.4311L157.357 97.728L152.344 94.4311ZM154.99 168.995L160.987 169.208L154.99 168.995ZM48.5985 95.7924L43.7491 99.3255L48.5985 95.7924ZM129.909 137.076L127.817 131.453L129.909 137.076ZM130.015 145.454L131.876 139.75L130.015 145.454ZM105 29.0003V35.0003H112V29.0003V23.0003H105V29.0003ZM114 31.0003H108V33.0003H114H120V31.0003H114ZM112 35.0003V29.0003H105V35.0003V41.0003H112V35.0003ZM103 37.0003H97V43.7824H103H109V37.0003H103ZM106.318 45.578L109.311 50.7782C113.484 48.3763 118.322 47.0003 123.5 47.0003V41.0003V35.0003C116.165 35.0003 109.27 36.9563 103.325 40.3777L106.318 45.578ZM123.5 41.0003V47.0003C139.24 47.0003 152 59.7602 152 75.5003H158H164C164 53.1328 145.868 35.0003 123.5 35.0003V41.0003ZM158 75.5003L152 75.5003C152 81.2832 150.282 86.6473 147.331 91.1342L152.344 94.4311L157.357 97.728C161.555 91.3451 164 83.6999 164 75.5004L158 75.5003ZM152 95.5629H146V113.996H152H158V95.5629H152ZM151.991 114.005L145.995 114.203C145.998 114.313 146 114.411 146 114.5H152H158C158 114.258 157.995 114.026 157.988 113.806L151.991 114.005ZM152 114.5L146 114.5C146 117.175 144.774 120.133 141.719 123.189C138.637 126.271 133.933 129.177 127.817 131.453L129.909 137.076L132.001 142.7C139.238 140.007 145.579 136.3 150.205 131.674C154.857 127.021 158 121.175 158 114.5L152 114.5ZM130.015 145.454L128.154 151.158C135.143 153.438 140.566 156.436 144.128 159.652C147.679 162.859 149 165.893 149 168.5H155H161C161 161.457 157.349 155.422 152.169 150.745C146.999 146.077 139.929 142.377 131.876 139.75L130.015 145.454ZM155 168.5L149 168.5C149 168.576 148.998 168.668 148.994 168.783L154.99 168.995L160.987 169.208C160.994 168.994 161 168.755 161 168.5L155 168.5ZM155 169.005H149V177H155H161V169.005H155ZM153 179V173H47V179V185H153V179ZM45 177H51V169.005H45H39V177H45ZM45.0096 168.995L51.0058 168.783C51.0017 168.668 51 168.576 51 168.5L45 168.5L39 168.5C39 168.755 39.0058 168.994 39.0133 169.208L45.0096 168.995ZM45 168.5H51C51 165.863 52.352 162.787 55.996 159.541C59.647 156.288 65.1977 153.27 72.3323 151.001L70.5133 145.283L68.6942 139.565C60.4911 142.175 53.2852 145.885 48.014 150.58C42.7357 155.282 39 161.374 39 168.5H45ZM70.6722 136.921L72.8037 131.312C60.229 126.534 55.0001 119.781 55 114.5L49 114.5L43 114.5C43.0003 127.723 54.8823 137.339 68.5408 142.53L70.6722 136.921ZM49 114.5H55C55 114.411 55.0017 114.313 55.0054 114.203L49.0086 114.005L43.0119 113.806C43.0046 114.026 43 114.258 43 114.5H49ZM49 113.996H55V97.0052H49H43V113.996H49ZM48.5985 95.7924L53.448 92.2593C50.021 87.5554 48.0001 81.7724 48 75.5003L42 75.5003L36 75.5004C36.0001 84.3983 38.8783 92.6399 43.7491 99.3255L48.5985 95.7924ZM42 75.5003H48C48 59.7602 60.7599 47.0003 76.5 47.0003V41.0003V35.0003C54.1325 35.0003 36 53.1328 36 75.5003H42ZM76.5 41.0003V47.0003C81.6777 47.0003 86.5158 48.3763 90.6891 50.7782L93.6821 45.578L96.675 40.3778C90.7302 36.9563 83.8348 35.0003 76.5 35.0003V41.0003ZM97 43.7824H103V37.0003H97H91V43.7824H97ZM95 35.0003V29.0003H88V35.0003V41.0003H95V35.0003ZM86 33.0003H92V31.0003H86H80V33.0003H86ZM88 29.0003V35.0003H95V29.0003V23.0003H88V29.0003ZM97 27.0003H103V21.0003H97H91V27.0003H97ZM99 19.0003V25.0003H101V19.0003V13.0003H99V19.0003ZM103 21.0003H97V27.0003H103H109V21.0003H103ZM101 19.0003V25.0003C98.7909 25.0003 97 23.2094 97 21.0003H103H109C109 16.582 105.418 13.0003 101 13.0003V19.0003ZM97 21.0003H103C103 23.2094 101.209 25.0003 99 25.0003V19.0003V13.0003C94.5817 13.0003 91 16.582 91 21.0003H97ZM95 29.0003V35.0003C99.4183 35.0003 103 31.4186 103 27.0003H97H91C91 24.7912 92.7909 23.0003 95 23.0003V29.0003ZM88 35.0003V29.0003C90.2091 29.0003 92 30.7912 92 33.0003H86H80C80 37.4186 83.5817 41.0003 88 41.0003V35.0003ZM97 37.0003H103C103 32.582 99.4183 29.0003 95 29.0003V35.0003V41.0003C92.7909 41.0003 91 39.2094 91 37.0003H97ZM49.0086 114.005L55.0054 114.203C55.1177 110.812 52.3987 108 49.0043 108V114V120C45.6148 120 42.8997 117.193 43.0119 113.806L49.0086 114.005ZM70.5133 145.283L72.3323 151.001C75.4711 150.002 76.8587 147.368 77.4004 146.007C78.0314 144.421 78.2737 142.729 78.3003 141.258C78.327 139.784 78.1454 138.091 77.5809 136.49C77.0978 135.121 75.8394 132.466 72.8037 131.312L70.6722 136.921L68.5408 142.53C67.5587 142.156 66.9623 141.555 66.6655 141.172C66.379 140.803 66.2796 140.525 66.2644 140.482C66.2409 140.416 66.3099 140.622 66.3023 141.04C66.2947 141.461 66.2179 141.653 66.2509 141.57C66.2715 141.518 66.3892 141.229 66.7057 140.858C67.0359 140.47 67.6782 139.889 68.6942 139.565L70.5133 145.283ZM45.0048 169V175C48.4049 175 51.1261 172.18 51.0058 168.783L45.0096 168.995L39.0133 169.208C38.8933 165.816 41.6101 163 45.0048 163V169ZM45 169.005H51C51 172.316 48.3159 175 45.0048 175V169V163C41.6884 163 39 165.689 39 169.005H45ZM47 179V173C49.2091 173 51 174.791 51 177H45H39C39 181.419 42.5817 185 47 185V179ZM155 177H149C149 174.791 150.791 173 153 173V179V185C157.418 185 161 181.419 161 177H155ZM151.996 114V108C148.601 108 145.882 110.812 145.995 114.203L151.991 114.005L157.988 113.806C158.1 117.193 155.385 120 151.996 120V114ZM152 113.996H146C146 110.686 148.683 108 151.996 108V114V120C155.313 120 158 117.311 158 113.996H152ZM86 31.0003H92C92 33.2094 90.2091 35.0003 88 35.0003V29.0003V23.0003C83.5817 23.0003 80 26.582 80 31.0003H86ZM152.344 94.4311L147.331 91.1342C146.497 92.403 146 93.9336 146 95.5629H152H158C158 96.3866 157.749 97.1323 157.357 97.728L152.344 94.4311ZM93.6821 45.578L90.6891 50.7782C95.6074 53.6089 103 50.6103 103 43.7824H97H91C91 42.0898 92.0257 40.8536 93.0606 40.3041C94.0568 39.775 95.4308 39.6616 96.675 40.3778L93.6821 45.578ZM103 43.7824H97C97 50.6103 104.393 53.6089 109.311 50.7782L106.318 45.578L103.325 40.3777C104.569 39.6616 105.943 39.775 106.939 40.3041C107.974 40.8536 109 42.0898 109 43.7824H103ZM154.995 169V175C151.684 175 149 172.316 149 169.005H155H161C161 165.689 158.312 163 154.995 163V169ZM105 35.0003V29.0003C100.582 29.0003 97 32.582 97 37.0003H103H109C109 39.2094 107.209 41.0003 105 41.0003V35.0003ZM154.99 168.995L148.994 168.783C148.874 172.18 151.595 175 154.995 175V169V163C158.39 163 161.107 165.816 160.987 169.208L154.99 168.995ZM114 33.0003H108C108 30.7912 109.791 29.0003 112 29.0003V35.0003V41.0003C116.418 41.0003 120 37.4186 120 33.0003H114ZM49 97.0052H55C55 95.239 54.4167 93.589 53.448 92.2593L48.5985 95.7924L43.7491 99.3255C43.2944 98.7015 43 97.8982 43 97.0052H49ZM112 29.0003V35.0003C109.791 35.0003 108 33.2094 108 31.0003H114H120C120 26.582 116.418 23.0003 112 23.0003V29.0003ZM129.909 137.076L127.817 131.453C124.768 132.587 123.493 135.24 123.002 136.606C122.428 138.203 122.236 139.897 122.253 141.371C122.271 142.843 122.502 144.537 123.122 146.127C123.653 147.49 125.021 150.136 128.154 151.158L130.015 145.454L131.876 139.75C132.891 140.081 133.529 140.668 133.855 141.057C134.168 141.43 134.283 141.718 134.302 141.768C134.333 141.848 134.258 141.653 134.253 141.229C134.248 140.807 134.318 140.6 134.295 140.664C134.28 140.706 134.179 140.983 133.89 141.352C133.59 141.733 132.989 142.332 132.001 142.7L129.909 137.076ZM49.0043 114V108C52.3156 108 55 110.685 55 113.996H49H43C43 117.312 45.6882 120 49.0043 120V114ZM105 29.0003V23.0003C107.209 23.0003 109 24.7912 109 27.0003H103H97C97 31.4186 100.582 35.0003 105 35.0003V29.0003Z" fill="var(--stroke-0, black)" mask="url(#path-2-inside-1_0_4)"/>
</g>
<g id="Ring 1">
<mask id="mask0_0_4" style="mask-type:alpha" maskUnits="userSpaceOnUse" x="49" y="108" width="103" height="17">
<rect id="Rectangle 8" x="49" y="108" width="103" height="17" fill="var(--fill-0, #D9D9D9)"/>
</mask>
<g mask="url(#mask0_0_4)">
<path id="Ellipse 8" d="M100.5 111C114.328 111 126.698 114 135.503 118.701C144.436 123.471 149 129.552 149 135.5C149 141.448 144.436 147.529 135.503 152.299C126.698 157 114.328 160 100.5 160C86.672 160 74.3018 157 65.4971 152.299C56.5644 147.529 52 141.448 52 135.5C52 129.552 56.5644 123.471 65.4971 118.701C74.3018 114 86.672 111 100.5 111Z" stroke="var(--stroke-0, black)" stroke-width="6"/>
</g>
</g>
<g id="Ring 2">
<mask id="mask1_0_4" style="mask-type:alpha" maskUnits="userSpaceOnUse" x="49" y="80" width="103" height="28">
<rect id="Rectangle 8_2" x="49" y="80" width="103" height="28" fill="var(--fill-0, #D9D9D9)"/>
</mask>
<g mask="url(#mask1_0_4)">
<path id="Ellipse 8_2" d="M100.5 83C114.328 83 126.698 85.9996 135.503 90.7012C144.436 95.4711 149 101.552 149 107.5C149 113.448 144.436 119.529 135.503 124.299C126.698 129 114.328 132 100.5 132C86.672 132 74.3018 129 65.4971 124.299C56.5644 119.529 52 113.448 52 107.5C52 101.552 56.5644 95.4711 65.4971 90.7012C74.3018 85.9996 86.672 83 100.5 83Z" stroke="var(--stroke-0, black)" stroke-width="6"/>
</g>
</g>
</g>
<defs>
<linearGradient id="paint0_linear_0_4" x1="100" y1="19.0003" x2="100" y2="179" gradientUnits="userSpaceOnUse">
<stop offset="0.5" stop-color="#F3F2F2"/>
<stop offset="1" stop-color="#B7B4AE"/>
</linearGradient>
</defs>
</svg>
