<svg preserveAspectRatio="none" width="100%" height="100%" overflow="visible" style="display: block;" viewBox="0 0 200 200" fill="none" xmlns="http://www.w3.org/2000/svg">
<g id="Frame">
<g id="Piece">
<mask id="path-1-inside-1_0_4" fill="white">
<path d="M72.93 42.2538C72.1682 40.9205 73.132 39.2701 74.6662 39.3369C86.4146 39.8486 96.7952 42.8851 104.502 45.9615C104.567 45.9877 104.636 46.0009 104.707 46.0013C104.971 46.0028 105.234 46.007 105.497 46.0143C105.5 46.0144 105.503 46.0107 105.502 46.0071C105.501 46.0035 105.504 45.9999 105.508 45.9999C179.167 46.0084 155.873 164.673 155.023 168.885C154.996 169.019 155 169.069 155 169.205V177C155 178.104 154.104 179 153 179H46.9996C45.895 179 44.9996 178.104 44.9996 177V169C44.9999 161.451 56.5031 154.878 73.4829 151.474C74.0544 151.359 74.5541 151.006 74.844 150.5L94.0044 117.094C94.4206 116.368 94.0414 115.444 93.2482 115.178C92.7567 115.013 92.2138 115.146 91.8632 115.528L80.1363 128.305C73.6371 137.213 61.1503 139.182 52.2252 132.697C43.3202 126.227 41.3226 113.784 47.734 104.854L72.2818 66.575C74.0269 62.8144 76.4103 59.4104 79.2938 56.5028C79.95 55.841 80.1123 54.8238 79.6499 54.0145L72.93 42.2538Z"/>
</mask>
<path d="M72.93 42.2538C72.1682 40.9205 73.132 39.2701 74.6662 39.3369C86.4146 39.8486 96.7952 42.8851 104.502 45.9615C104.567 45.9877 104.636 46.0009 104.707 46.0013C104.971 46.0028 105.234 46.007 105.497 46.0143C105.5 46.0144 105.503 46.0107 105.502 46.0071C105.501 46.0035 105.504 45.9999 105.508 45.9999C179.167 46.0084 155.873 164.673 155.023 168.885C154.996 169.019 155 169.069 155 169.205V177C155 178.104 154.104 179 153 179H46.9996C45.895 179 44.9996 178.104 44.9996 177V169C44.9999 161.451 56.5031 154.878 73.4829 151.474C74.0544 151.359 74.5541 151.006 74.844 150.5L94.0044 117.094C94.4206 116.368 94.0414 115.444 93.2482 115.178C92.7567 115.013 92.2138 115.146 91.8632 115.528L80.1363 128.305C73.6371 137.213 61.1503 139.182 52.2252 132.697C43.3202 126.227 41.3226 113.784 47.734 104.854L72.2818 66.575C74.0269 62.8144 76.4103 59.4104 79.2938 56.5028C79.95 55.841 80.1123 54.8238 79.6499 54.0145L72.93 42.2538Z" fill="url(#paint0_linear_0_4)"/>
<path d="M44.9996 169L38.9996 169V169H44.9996ZM80.1363 128.305L75.716 124.247L75.488 124.496L75.2893 124.768L80.1363 128.305ZM52.2252 132.697L48.6984 137.551L48.6985 137.551L52.2252 132.697ZM47.734 104.854L52.6078 108.354L52.6997 108.226L52.7847 108.093L47.734 104.854ZM72.2818 66.575L77.3325 69.814L77.5527 69.4706L77.7244 69.1005L72.2818 66.575ZM93.2482 115.178L95.1545 109.489L93.2482 115.178ZM91.8632 115.528L87.4429 111.471L91.8632 115.528ZM94.0044 117.094L99.2091 120.079L94.0044 117.094ZM73.4829 151.474L74.6624 157.357L73.4829 151.474ZM74.844 150.5L80.0487 153.486L74.844 150.5ZM79.2938 56.5028L83.5541 60.7277L79.2938 56.5028ZM79.6499 54.0145L74.4404 56.9912L79.6499 54.0145ZM155.023 168.885L149.142 167.698L155.023 168.885ZM105.502 46.0071L111.194 44.1097L105.502 46.0071ZM105.508 45.9999L105.507 51.9999L105.508 45.9999ZM105.497 46.0143L105.662 40.0166L105.497 46.0143ZM104.502 45.9615L102.277 51.5339L104.502 45.9615ZM104.707 46.0013L104.741 40.0014L104.707 46.0013ZM72.93 42.2538L67.7205 45.2305L72.93 42.2538ZM74.6662 39.3369L74.4051 45.3312C85.2985 45.8057 95.0024 48.6298 102.277 51.5339L104.502 45.9615L106.726 40.3891C98.588 37.1403 87.5306 33.8915 74.9272 33.3426L74.6662 39.3369ZM104.707 46.0013L104.673 52.0012C104.895 52.0024 105.114 52.006 105.331 52.012L105.497 46.0143L105.662 40.0166C105.354 40.0081 105.047 40.0031 104.741 40.0014L104.707 46.0013ZM105.508 45.9999L105.507 51.9999C122.012 52.0018 132.563 58.5095 139.591 68.1471C146.861 78.1165 150.652 91.8757 152.241 106.514C155.414 135.744 149.543 165.708 149.142 167.698L155.023 168.885L160.904 170.072C161.353 167.85 167.553 136.375 164.171 105.219C162.483 89.6629 158.34 73.491 149.287 61.0768C139.992 48.3308 125.833 40.0022 105.508 39.9999L105.508 45.9999ZM155 169.205H149V177H155H161V169.205H155ZM153 179V173H46.9996V179V185H153V179ZM44.9996 177H50.9996V169H44.9996H38.9996V177H44.9996ZM44.9996 169L50.9996 169C50.9996 168.492 51.482 166.527 55.9709 163.822C60.167 161.293 66.5571 158.982 74.6624 157.357L73.4829 151.474L72.3035 145.591C63.429 147.37 55.5775 150.048 49.777 153.544C44.2693 156.863 38.9999 161.959 38.9996 169L44.9996 169ZM74.844 150.5L80.0487 153.486L99.2091 120.079L94.0044 117.094L88.7997 114.109L69.6393 147.515L74.844 150.5ZM91.8632 115.528L87.4429 111.471L75.716 124.247L80.1363 128.305L84.5567 132.362L96.2836 119.585L91.8632 115.528ZM80.1363 128.305L75.2893 124.768C70.7396 131.004 61.999 132.382 55.7519 127.843L52.2252 132.697L48.6985 137.551C60.3017 145.981 76.5345 143.421 84.9834 131.841L80.1363 128.305ZM52.2252 132.697L55.752 127.843C49.5188 123.314 48.1202 114.604 52.6078 108.354L47.734 104.854L42.8601 101.355C34.525 112.964 37.1216 129.14 48.6984 137.551L52.2252 132.697ZM47.734 104.854L52.7847 108.093L77.3325 69.814L72.2818 66.575L67.2311 63.3361L42.6833 101.615L47.734 104.854ZM72.2818 66.575L77.7244 69.1005C79.1734 65.9779 81.1545 63.1473 83.5541 60.7277L79.2938 56.5028L75.0334 52.2779C71.666 55.6735 68.8803 59.651 66.8392 64.0495L72.2818 66.575ZM79.6499 54.0145L84.8595 51.0379L78.1396 39.2771L72.93 42.2538L67.7205 45.2305L74.4404 56.9912L79.6499 54.0145ZM93.2482 115.178L95.1545 109.489C92.4821 108.593 89.4413 109.293 87.4429 111.471L91.8632 115.528L96.2836 119.585C94.9862 120.999 93.0312 121.433 91.342 120.867L93.2482 115.178ZM94.0044 117.094L99.2091 120.079C101.615 115.885 99.3339 110.889 95.1545 109.489L93.2482 115.178L91.342 120.867C88.749 119.998 87.2265 116.851 88.7997 114.109L94.0044 117.094ZM73.4829 151.474L74.6624 157.357C76.8926 156.91 78.8786 155.526 80.0487 153.486L74.844 150.5L69.6393 147.515C70.2296 146.486 71.2161 145.809 72.3035 145.591L73.4829 151.474ZM46.9996 179V173C49.2088 173 50.9996 174.791 50.9996 177H44.9996H38.9996C38.9996 181.418 42.5813 185 46.9996 185V179ZM155 177H149C149 174.791 150.79 173 153 173V179V185C157.418 185 161 181.418 161 177H155ZM79.2938 56.5028L83.5541 60.7277C85.9961 58.2651 86.7374 54.3245 84.8595 51.0379L79.6499 54.0145L74.4404 56.9912C73.4872 55.323 73.904 53.4168 75.0334 52.2779L79.2938 56.5028ZM155.023 168.885L149.142 167.698C149.084 167.985 149.031 168.326 149.01 168.724C149.001 168.891 149 169.027 148.999 169.097C148.999 169.131 148.999 169.163 149 169.176C149 169.194 149 169.199 149 169.205H155H161C161 169.176 161 169.15 160.999 169.139C160.999 169.123 160.999 169.127 160.999 169.135C160.999 169.153 160.999 169.243 160.993 169.364C160.986 169.497 160.973 169.635 160.954 169.775C160.936 169.907 160.917 170.01 160.904 170.072L155.023 168.885ZM105.502 46.0071L111.194 44.1097C112.647 48.4678 109.083 52.0003 105.507 51.9999L105.508 45.9999L105.508 39.9999C101.924 39.9994 98.3548 43.5392 99.8099 47.9044L105.502 46.0071ZM105.497 46.0143L105.331 52.012C109.499 52.1269 112.512 48.0647 111.194 44.1097L105.502 46.0071L99.8099 47.9044C98.494 43.9566 101.502 39.9019 105.662 40.0166L105.497 46.0143ZM104.502 45.9615L102.277 51.5339C103.055 51.8442 103.868 51.9967 104.673 52.0012L104.707 46.0013L104.741 40.0014C105.405 40.0051 106.08 40.1312 106.726 40.3891L104.502 45.9615ZM74.6662 39.3369L74.9272 33.3426C68.448 33.0604 64.7284 39.9939 67.7205 45.2305L72.93 42.2538L78.1396 39.2771C79.608 41.8471 77.816 45.4798 74.4051 45.3312L74.6662 39.3369Z" fill="var(--stroke-0, black)" mask="url(#path-1-inside-1_0_4)"/>
</g>
</g>
<defs>
<linearGradient id="paint0_linear_0_4" x1="101.579" y1="38.9961" x2="101.579" y2="179" gradientUnits="userSpaceOnUse">
<stop offset="0.5" stop-color="#F3F2F2"/>
<stop offset="1" stop-color="#B7B4AE"/>
</linearGradient>
</defs>
</svg>
