<svg preserveAspectRatio="none" width="100%" height="100%" overflow="visible" style="display: block;" viewBox="0 0 200 200" fill="none" xmlns="http://www.w3.org/2000/svg">
<g id="Frame">
<path id="Outline" opacity="0.8" d="M82.6294 120.909L84.6047 121.222L82.6294 120.909ZM81.3534 118.677L80.5719 120.518L81.3534 118.677ZM76.4726 150.918L76.1329 148.947L76.4726 150.918ZM121.865 149.247L119.89 149.56L121.865 149.247ZM123.526 150.918L123.866 148.947L123.526 150.918ZM118.646 118.677L119.427 120.518L118.646 118.677ZM117.37 120.909L115.394 121.223L117.37 120.909ZM80.9226 101.509L81.7338 103.337L80.9226 101.509ZM117.77 97.0514L119.099 98.5458L117.77 97.0514ZM118.443 101.236L117.675 103.083L118.443 101.236ZM99.5 49V51C113.583 51 125 62.4167 125 76.5H127H129C129 60.2076 115.792 47 99.5 47V49ZM127 76.5H125C125 84.0796 121.695 90.8837 116.441 95.557L117.77 97.0514L119.099 98.5458C125.17 93.1458 129 85.2695 129 76.5H127ZM118.443 101.236L117.675 103.083C120.155 104.114 122.043 105.314 123.28 106.555C124.51 107.788 125 108.952 125 110H127H129C129 107.59 127.845 105.468 126.112 103.73C124.388 102.001 121.997 100.548 119.211 99.3898L118.443 101.236ZM127 110H125C125 111.035 124.522 112.182 123.327 113.397C122.123 114.621 120.285 115.809 117.864 116.836L118.646 118.677L119.427 120.518C122.154 119.361 124.493 117.917 126.179 116.202C127.874 114.478 129 112.378 129 110H127ZM117.37 120.909L115.394 121.223L119.89 149.56L121.865 149.247L123.841 148.933L119.345 120.596L117.37 120.909ZM123.526 150.918L123.187 152.889C132.359 154.469 139.985 156.939 145.259 159.91C150.659 162.951 153 166.154 153 169H155H157C157 163.862 152.907 159.626 147.222 156.424C141.411 153.151 133.3 150.572 123.866 148.947L123.526 150.918ZM155 169H153V177H155H157V169H155ZM153 179V177H47V179V181H153V179ZM45 177H47V169H45H43V177H45ZM45 169H47C47 166.154 49.341 162.951 54.7408 159.91C60.0146 156.939 67.6403 154.469 76.8123 152.889L76.4726 150.918L76.1329 148.947C66.6995 150.573 58.5889 153.151 52.7778 156.424C47.0926 159.627 43 163.862 43 169H45ZM78.1336 149.247L80.1089 149.56L84.6047 121.222L82.6294 120.909L80.6541 120.596L76.1583 148.933L78.1336 149.247ZM81.3534 118.677L82.1349 116.836C79.7144 115.809 77.8765 114.621 76.6727 113.397C75.4778 112.182 75 111.035 75 110H73H71C71 112.378 72.1255 114.478 73.8205 116.202C75.5068 117.916 77.8455 119.361 80.5719 120.518L81.3534 118.677ZM73 110H75C75 108.993 75.4513 107.883 76.5738 106.705C77.7062 105.516 79.4393 104.355 81.7338 103.337L80.9226 101.509L80.1114 99.681C77.5114 100.835 75.2833 102.261 73.6779 103.946C72.0628 105.641 71 107.69 71 110H73ZM81.5246 97.3117L82.8326 95.7986C77.42 91.1198 74 84.2106 74 76.5H72H70C70 85.4211 73.9627 93.4185 80.2167 98.8247L81.5246 97.3117ZM72 76.5H74C74 62.4167 85.4167 51 99.5 51V49V47C83.2076 47 70 60.2076 70 76.5H72ZM82.6294 120.909L84.6047 121.222C84.9086 119.307 83.8015 117.544 82.1349 116.836L81.3534 118.677L80.5719 120.518C80.6106 120.535 80.6354 120.561 80.6474 120.581C80.6529 120.591 80.6541 120.597 80.6542 120.597C80.6543 120.597 80.6542 120.597 80.6542 120.596C80.6542 120.595 80.6543 120.595 80.6541 120.596L82.6294 120.909ZM76.4726 150.918L76.8123 152.889C78.4917 152.599 79.8364 151.278 80.1089 149.56L78.1336 149.247L76.1583 148.933C76.1582 148.934 76.1583 148.933 76.1585 148.933C76.1587 148.932 76.1589 148.932 76.159 148.932C76.1591 148.931 76.1583 148.933 76.1559 148.935C76.1507 148.941 76.1432 148.945 76.1329 148.947L76.4726 150.918ZM47 179V177H47H45H43C43 179.209 44.7909 181 47 181V179ZM121.865 149.247L119.89 149.56C120.163 151.278 121.507 152.599 123.187 152.889L123.526 150.918L123.866 148.947C123.856 148.945 123.848 148.941 123.843 148.935C123.841 148.933 123.84 148.931 123.84 148.932C123.84 148.932 123.84 148.932 123.841 148.933C123.841 148.933 123.841 148.934 123.841 148.933L121.865 149.247ZM118.646 118.677L117.864 116.836C116.198 117.544 115.09 119.307 115.394 121.223L117.37 120.909L119.345 120.596C119.345 120.595 119.345 120.595 119.345 120.596C119.345 120.597 119.345 120.597 119.345 120.597C119.345 120.597 119.346 120.591 119.352 120.581C119.364 120.561 119.388 120.535 119.427 120.518L118.646 118.677ZM155 177H153V177V179V181C155.209 181 157 179.209 157 177H155ZM80.9226 101.509L81.7338 103.337C83.2713 102.655 84.0966 101.222 84.2909 99.8531C84.485 98.4859 84.0928 96.888 82.8326 95.7986L81.5246 97.3117L80.2167 98.8247C80.2693 98.8702 80.3692 99.0192 80.3306 99.2909C80.2922 99.5613 80.16 99.6595 80.1114 99.681L80.9226 101.509ZM117.77 97.0514L116.441 95.557C115.194 96.6664 114.825 98.2742 115.042 99.6408C115.259 101.009 116.114 102.434 117.675 103.083L118.443 101.236L119.211 99.3898C119.167 99.3713 119.035 99.2811 118.992 99.0131C118.949 98.7432 119.047 98.5924 119.099 98.5458L117.77 97.0514Z" fill="var(--stroke-0, white)"/>
<g id="Piece">
<mask id="path-2-inside-1_0_4" fill="white">
<path d="M99.5 49C114.688 49 127 61.3122 127 76.5C127 84.6746 123.432 92.0148 117.77 97.0514C116.471 98.2073 116.837 100.569 118.443 101.236C123.709 103.426 127 106.542 127 110C127 113.413 123.793 116.493 118.646 118.677C117.765 119.051 117.22 119.964 117.37 120.909L121.865 149.247C122.001 150.101 122.674 150.771 123.526 150.918C142.132 154.124 155 161.015 155 169V177C155 178.105 154.105 179 153 179H47C45.8954 179 45 178.105 45 177V169C45 161.015 57.8672 154.124 76.4726 150.918C77.3254 150.771 77.998 150.102 78.1336 149.247L82.6294 120.909C82.7794 119.964 82.2345 119.051 81.3534 118.677C76.2065 116.493 73 113.413 73 110C73 106.683 76.0281 103.681 80.9226 101.509C82.5088 100.805 82.8374 98.4465 81.5246 97.3117C75.6913 92.2692 72 84.8158 72 76.5C72 61.3122 84.3122 49 99.5 49Z"/>
</mask>
<path d="M99.5 49C114.688 49 127 61.3122 127 76.5C127 84.6746 123.432 92.0148 117.77 97.0514C116.471 98.2073 116.837 100.569 118.443 101.236C123.709 103.426 127 106.542 127 110C127 113.413 123.793 116.493 118.646 118.677C117.765 119.051 117.22 119.964 117.37 120.909L121.865 149.247C122.001 150.101 122.674 150.771 123.526 150.918C142.132 154.124 155 161.015 155 169V177C155 178.105 154.105 179 153 179H47C45.8954 179 45 178.105 45 177V169C45 161.015 57.8672 154.124 76.4726 150.918C77.3254 150.771 77.998 150.102 78.1336 149.247L82.6294 120.909C82.7794 119.964 82.2345 119.051 81.3534 118.677C76.2065 116.493 73 113.413 73 110C73 106.683 76.0281 103.681 80.9226 101.509C82.5088 100.805 82.8374 98.4465 81.5246 97.3117C75.6913 92.2692 72 84.8158 72 76.5C72 61.3122 84.3122 49 99.5 49Z" fill="url(#paint0_linear_0_4)"/>
<path d="M82.6294 120.909L88.5553 121.849L82.6294 120.909ZM81.3534 118.677L79.0089 124.2L81.3534 118.677ZM76.4726 150.918L75.4536 145.005L76.4726 150.918ZM121.865 149.247L115.94 150.187L121.865 149.247ZM123.526 150.918L124.545 145.005L123.526 150.918ZM118.646 118.677L120.99 124.201L118.646 118.677ZM117.37 120.909L111.444 121.849L117.37 120.909ZM80.9226 101.509L83.3562 106.993L80.9226 101.509ZM117.77 97.0514L121.758 101.535L117.77 97.0514ZM118.443 101.236L116.14 106.777L118.443 101.236ZM99.5 49V55C111.374 55 121 64.6259 121 76.5H127H133C133 57.9985 118.002 43 99.5 43V49ZM127 76.5H121C121 82.8896 118.219 88.6216 113.782 92.5683L117.77 97.0514L121.758 101.535C128.646 95.4079 133 86.4595 133 76.5H127ZM118.443 101.236L116.14 106.777C118.313 107.68 119.697 108.627 120.448 109.38C121.174 110.108 121 110.313 121 110H127H133C133 106.229 131.18 103.147 128.945 100.906C126.734 98.6887 123.839 96.9822 120.747 95.6964L118.443 101.236ZM127 110H121C121 109.692 121.17 109.886 120.475 110.592C119.754 111.326 118.416 112.257 116.301 113.154L118.646 118.677L120.99 124.201C124.022 122.913 126.862 121.212 129.031 119.006C131.226 116.774 133 113.721 133 110H127ZM117.37 120.909L111.444 121.849L115.94 150.187L121.865 149.247L127.791 148.307L123.295 119.969L117.37 120.909ZM123.526 150.918L122.507 156.83C131.418 158.366 138.559 160.727 143.296 163.395C148.411 166.275 149 168.446 149 169H155H161C161 161.569 155.156 156.302 149.185 152.939C142.836 149.364 134.241 146.676 124.545 145.005L123.526 150.918ZM155 169H149V177H155H161V169H155ZM153 179V173H47V179V185H153V179ZM45 177H51V169H45H39V177H45ZM45 169H51C51 168.446 51.5894 166.275 56.7037 163.395C61.4403 160.727 68.5811 158.366 77.4917 156.83L76.4726 150.918L75.4536 145.005C65.7587 146.676 57.1632 149.364 50.8148 152.939C44.8441 156.302 39 161.57 39 169H45ZM78.1336 149.247L84.0595 150.187L88.5553 121.849L82.6294 120.909L76.7036 119.969L72.2077 148.307L78.1336 149.247ZM81.3534 118.677L83.6979 113.154C81.5832 112.257 80.2462 111.326 79.5249 110.593C78.8301 109.886 79 109.692 79 110H73H67C67 113.721 68.7732 116.773 70.9683 119.006C73.137 121.212 75.9767 122.913 79.0089 124.2L81.3534 118.677ZM73 110H79C79 110.296 78.8398 110.125 79.4697 109.464C80.1291 108.772 81.3671 107.876 83.3562 106.993L80.9226 101.509L78.489 96.0248C75.5836 97.314 72.8603 99.005 70.782 101.186C68.6742 103.398 67 106.387 67 110H73ZM81.5246 97.3117L85.4484 92.7726C80.8773 88.8211 78 83 78 76.5H72H66C66 86.6317 70.5054 95.7172 77.6008 101.851L81.5246 97.3117ZM72 76.5H78C78 64.6259 87.6259 55 99.5 55V49V43C80.9985 43 66 57.9985 66 76.5H72ZM82.6294 120.909L88.5553 121.849C89.1669 117.995 86.9356 114.529 83.6979 113.154L81.3534 118.677L79.0089 124.2C77.5334 123.574 76.392 121.933 76.7036 119.969L82.6294 120.909ZM76.4726 150.918L77.4917 156.83C80.8243 156.256 83.5132 153.63 84.0595 150.187L78.1336 149.247L72.2077 148.307C72.4827 146.573 73.8265 145.285 75.4536 145.005L76.4726 150.918ZM47 179V173C49.2091 173 51 174.791 51 177H45H39C39 181.418 42.5817 185 47 185V179ZM121.865 149.247L115.94 150.187C116.486 153.63 119.175 156.256 122.507 156.83L123.526 150.918L124.545 145.005C126.173 145.285 127.516 146.573 127.791 148.307L121.865 149.247ZM118.646 118.677L116.301 113.154C113.064 114.529 110.832 117.995 111.444 121.849L117.37 120.909L123.295 119.969C123.607 121.933 122.466 123.574 120.99 124.201L118.646 118.677ZM155 177H149C149 174.791 150.791 173 153 173V179V185C157.418 185 161 181.418 161 177H155ZM80.9226 101.509L83.3562 106.993C86.3826 105.651 87.901 102.882 88.2512 100.415C88.6008 97.9526 87.9162 94.9058 85.4484 92.7726L81.5246 97.3117L77.6008 101.851C76.4459 100.852 76.2534 99.5525 76.3703 98.7287C76.4878 97.9008 77.0487 96.6639 78.489 96.0248L80.9226 101.509ZM117.77 97.0514L113.782 92.5683C111.34 94.7405 110.7 97.8051 111.091 100.269C111.484 102.738 113.061 105.496 116.14 106.777L118.443 101.236L120.747 95.6964C122.22 96.3088 122.811 97.5528 122.943 98.3854C123.074 99.2123 122.9 100.518 121.758 101.535L117.77 97.0514Z" fill="var(--stroke-0, black)" mask="url(#path-2-inside-1_0_4)"/>
</g>
</g>
<defs>
<linearGradient id="paint0_linear_0_4" x1="100" y1="49" x2="100" y2="179" gradientUnits="userSpaceOnUse">
<stop offset="0.5" stop-color="#F3F2F2"/>
<stop offset="1" stop-color="#B7B4AE"/>
</linearGradient>
</defs>
</svg>
