<svg preserveAspectRatio="none" width="100%" height="100%" overflow="visible" style="display: block;" viewBox="0 0 200 200" fill="none" xmlns="http://www.w3.org/2000/svg">
<g id="Frame">
<g id="Piece">
<mask id="path-1-inside-1_0_4" fill="white">
<path d="M99.5 49C114.688 49 127 61.3122 127 76.5C127 84.6746 123.432 92.0148 117.77 97.0514C116.471 98.2073 116.837 100.569 118.443 101.236C123.709 103.426 127 106.542 127 110C127 113.413 123.793 116.493 118.646 118.677C117.765 119.051 117.22 119.964 117.37 120.909L121.865 149.247C122.001 150.101 122.674 150.771 123.526 150.918C142.132 154.124 155 161.015 155 169V177C155 178.105 154.105 179 153 179H47C45.8954 179 45 178.105 45 177V169C45 161.015 57.8672 154.124 76.4726 150.918C77.3254 150.771 77.998 150.102 78.1336 149.247L82.6294 120.909C82.7794 119.964 82.2345 119.051 81.3534 118.677C76.2065 116.493 73 113.413 73 110C73 106.683 76.0281 103.681 80.9226 101.509C82.5088 100.805 82.8374 98.4465 81.5246 97.3117C75.6913 92.2692 72 84.8158 72 76.5C72 61.3122 84.3122 49 99.5 49Z"/>
</mask>
<path d="M99.5 49C114.688 49 127 61.3122 127 76.5C127 84.6746 123.432 92.0148 117.77 97.0514C116.471 98.2073 116.837 100.569 118.443 101.236C123.709 103.426 127 106.542 127 110C127 113.413 123.793 116.493 118.646 118.677C117.765 119.051 117.22 119.964 117.37 120.909L121.865 149.247C122.001 150.101 122.674 150.771 123.526 150.918C142.132 154.124 155 161.015 155 169V177C155 178.105 154.105 179 153 179H47C45.8954 179 45 178.105 45 177V169C45 161.015 57.8672 154.124 76.4726 150.918C77.3254 150.771 77.998 150.102 78.1336 149.247L82.6294 120.909C82.7794 119.964 82.2345 119.051 81.3534 118.677C76.2065 116.493 73 113.413 73 110C73 106.683 76.0281 103.681 80.9226 101.509C82.5088 100.805 82.8374 98.4465 81.5246 97.3117C75.6913 92.2692 72 84.8158 72 76.5C72 61.3122 84.3122 49 99.5 49Z" fill="url(#paint0_linear_0_4)"/>
<path d="M82.6294 120.909L88.5553 121.849L82.6294 120.909ZM81.3534 118.677L79.0089 124.2L81.3534 118.677ZM76.4726 150.918L75.4536 145.005L76.4726 150.918ZM121.865 149.247L115.94 150.187L121.865 149.247ZM123.526 150.918L124.545 145.005L123.526 150.918ZM118.646 118.677L120.99 124.201L118.646 118.677ZM117.37 120.909L111.444 121.849L117.37 120.909ZM80.9226 101.509L83.3562 106.993L80.9226 101.509ZM117.77 97.0514L121.758 101.535L117.77 97.0514ZM118.443 101.236L116.14 106.777L118.443 101.236ZM99.5 49V55C111.374 55 121 64.6259 121 76.5H127H133C133 57.9985 118.002 43 99.5 43V49ZM127 76.5H121C121 82.8896 118.219 88.6216 113.782 92.5683L117.77 97.0514L121.758 101.535C128.646 95.4079 133 86.4595 133 76.5H127ZM118.443 101.236L116.14 106.777C118.313 107.68 119.697 108.627 120.448 109.38C121.174 110.108 121 110.313 121 110H127H133C133 106.229 131.18 103.147 128.945 100.906C126.734 98.6887 123.839 96.9822 120.747 95.6964L118.443 101.236ZM127 110H121C121 109.692 121.17 109.886 120.475 110.592C119.754 111.326 118.416 112.257 116.301 113.154L118.646 118.677L120.99 124.201C124.022 122.913 126.862 121.212 129.031 119.006C131.226 116.774 133 113.721 133 110H127ZM117.37 120.909L111.444 121.849L115.94 150.187L121.865 149.247L127.791 148.307L123.295 119.969L117.37 120.909ZM123.526 150.918L122.507 156.83C131.418 158.366 138.559 160.727 143.296 163.395C148.411 166.275 149 168.446 149 169H155H161C161 161.569 155.156 156.302 149.185 152.939C142.836 149.364 134.241 146.676 124.545 145.005L123.526 150.918ZM155 169H149V177H155H161V169H155ZM153 179V173H47V179V185H153V179ZM45 177H51V169H45H39V177H45ZM45 169H51C51 168.446 51.5894 166.275 56.7037 163.395C61.4403 160.727 68.5811 158.366 77.4917 156.83L76.4726 150.918L75.4536 145.005C65.7587 146.676 57.1632 149.364 50.8148 152.939C44.8441 156.302 39 161.57 39 169H45ZM78.1336 149.247L84.0595 150.187L88.5553 121.849L82.6294 120.909L76.7036 119.969L72.2077 148.307L78.1336 149.247ZM81.3534 118.677L83.6979 113.154C81.5832 112.257 80.2462 111.326 79.5249 110.593C78.8301 109.886 79 109.692 79 110H73H67C67 113.721 68.7732 116.773 70.9683 119.006C73.137 121.212 75.9767 122.913 79.0089 124.2L81.3534 118.677ZM73 110H79C79 110.296 78.8398 110.125 79.4697 109.464C80.1291 108.772 81.3671 107.876 83.3562 106.993L80.9226 101.509L78.489 96.0248C75.5836 97.314 72.8603 99.005 70.782 101.186C68.6742 103.398 67 106.387 67 110H73ZM81.5246 97.3117L85.4484 92.7726C80.8773 88.8211 78 83 78 76.5H72H66C66 86.6317 70.5054 95.7172 77.6008 101.851L81.5246 97.3117ZM72 76.5H78C78 64.6259 87.6259 55 99.5 55V49V43C80.9985 43 66 57.9985 66 76.5H72ZM82.6294 120.909L88.5553 121.849C89.1669 117.995 86.9356 114.529 83.6979 113.154L81.3534 118.677L79.0089 124.2C77.5334 123.574 76.392 121.933 76.7036 119.969L82.6294 120.909ZM76.4726 150.918L77.4917 156.83C80.8243 156.256 83.5132 153.63 84.0595 150.187L78.1336 149.247L72.2077 148.307C72.4827 146.573 73.8265 145.285 75.4536 145.005L76.4726 150.918ZM47 179V173C49.2091 173 51 174.791 51 177H45H39C39 181.418 42.5817 185 47 185V179ZM121.865 149.247L115.94 150.187C116.486 153.63 119.175 156.256 122.507 156.83L123.526 150.918L124.545 145.005C126.173 145.285 127.516 146.573 127.791 148.307L121.865 149.247ZM118.646 118.677L116.301 113.154C113.064 114.529 110.832 117.995 111.444 121.849L117.37 120.909L123.295 119.969C123.607 121.933 122.466 123.574 120.99 124.201L118.646 118.677ZM155 177H149C149 174.791 150.791 173 153 173V179V185C157.418 185 161 181.418 161 177H155ZM80.9226 101.509L83.3562 106.993C86.3826 105.651 87.901 102.882 88.2512 100.415C88.6008 97.9526 87.9162 94.9058 85.4484 92.7726L81.5246 97.3117L77.6008 101.851C76.4459 100.852 76.2534 99.5525 76.3703 98.7287C76.4878 97.9008 77.0487 96.6639 78.489 96.0248L80.9226 101.509ZM117.77 97.0514L113.782 92.5683C111.34 94.7405 110.7 97.8051 111.091 100.269C111.484 102.738 113.061 105.496 116.14 106.777L118.443 101.236L120.747 95.6964C122.22 96.3088 122.811 97.5528 122.943 98.3854C123.074 99.2123 122.9 100.518 121.758 101.535L117.77 97.0514Z" fill="var(--stroke-0, black)" mask="url(#path-1-inside-1_0_4)"/>
</g>
</g>
<defs>
<linearGradient id="paint0_linear_0_4" x1="100" y1="49" x2="100" y2="179" gradientUnits="userSpaceOnUse">
<stop offset="0.5" stop-color="#F3F2F2"/>
<stop offset="1" stop-color="#B7B4AE"/>
</linearGradient>
</defs>
</svg>
