<svg preserveAspectRatio="none" width="100%" height="100%" overflow="visible" style="display: block;" viewBox="0 0 200 200" fill="none" xmlns="http://www.w3.org/2000/svg">
<g id="Frame">
<path id="Outline" opacity="0.8" d="M155 168.5H157V168.5L155 168.5ZM45 168.5L43 168.5V168.5H45ZM50.0089 49.0041L48.01 49.0694L50.0089 49.0041ZM62.1724 67.7294L60.1774 67.5881L62.1724 67.7294ZM61.2546 65.8828L60.1374 67.5417L61.2546 65.8828ZM55.3924 152.412L56.5303 154.057L55.3924 152.412ZM56.2838 150.871L54.2888 150.73L56.2838 150.871ZM45.0096 168.995L47.0083 168.924L45.0096 168.995ZM154.99 168.995L156.989 169.066L154.99 168.995ZM143.715 150.871L141.72 151.012L143.715 150.871ZM144.607 152.412L143.469 154.057L144.607 152.412ZM138.744 65.8829L137.626 64.2239L138.744 65.8829ZM137.826 67.7295L139.821 67.5882L137.826 67.7295ZM149.991 49.0041L147.992 48.9387L149.991 49.0041ZM82 38.9998V40.9998H84V38.9998V36.9998H82V38.9998ZM86 36.9998H88V30.9998H86H84V36.9998H86ZM88 28.9998V30.9998H112V28.9998V26.9998H88V28.9998ZM114 30.9998H112V36.9998H114H116V30.9998H114ZM116 38.9998V40.9998H118V38.9998V36.9998H116V38.9998ZM120 36.9998H122V30.9998H120H118V36.9998H120ZM122 28.9998V30.9998H148V28.9998V26.9998H122V28.9998ZM150 30.9998H148V48.9953H150H152V30.9998H150ZM149.991 49.0041L147.992 48.9387C147.812 54.448 144.195 59.8011 137.626 64.2239L138.744 65.8829L139.861 67.5418C147.004 62.7314 151.752 56.3569 151.99 49.0694L149.991 49.0041ZM137.826 67.7295L135.831 67.8708L141.72 151.012L143.715 150.871L145.71 150.73L139.821 67.5882L137.826 67.7295ZM144.607 152.412L143.469 154.057C149.736 158.393 153 163.419 153 168.5L155 168.5L157 168.5C157 161.565 152.554 155.478 145.745 150.767L144.607 152.412ZM155 168.5H153C153 168.635 152.997 168.776 152.992 168.924L154.99 168.995L156.989 169.066C156.996 168.885 157 168.695 157 168.5H155ZM155 169.005H153V177H155H157V169.005H155ZM153 179V177H47V179V181H153V179ZM45 177H47V169.005H45H43V177H45ZM45.0096 168.995L47.0083 168.924C47.0031 168.776 47 168.635 47 168.5H45H43C43 168.695 43.0044 168.885 43.0108 169.066L45.0096 168.995ZM45 168.5L47 168.5C47.0001 163.419 50.2632 158.393 56.5303 154.057L55.3924 152.412L54.2544 150.767C47.4453 155.478 43.0001 161.565 43 168.5L45 168.5ZM56.2838 150.871L58.2788 151.012L64.1674 67.8707L62.1724 67.7294L60.1774 67.5881L54.2888 150.73L56.2838 150.871ZM61.2546 65.8828L62.3718 64.2239C55.8046 59.8013 52.1879 54.4478 52.0079 48.9387L50.0089 49.0041L48.01 49.0694C48.2482 56.3563 52.9943 62.7313 60.1374 67.5417L61.2546 65.8828ZM50 48.9953H52V30.9998H50H48V48.9953H50ZM52 28.9998V30.9998H78V28.9998V26.9998H52V28.9998ZM80 30.9998H78V36.9998H80H82V30.9998H80ZM78 28.9998V30.9998V30.9998H80H82C82 28.7906 80.2091 26.9998 78 26.9998V28.9998ZM50.0089 49.0041L52.0079 48.9387C51.9727 47.8632 51.0914 46.9998 50.0045 46.9998V48.9998V50.9998C48.9223 50.9998 48.045 50.1402 48.01 49.0694L50.0089 49.0041ZM62.1724 67.7294L64.1674 67.8707C64.2723 66.3892 63.548 65.016 62.3718 64.2239L61.2546 65.8828L60.1374 67.5417C60.1571 67.555 60.1686 67.5702 60.174 67.5811C60.1788 67.5907 60.1771 67.5924 60.1774 67.5881L62.1724 67.7294ZM55.3924 152.412L56.5303 154.057C57.5194 153.372 58.1899 152.267 58.2788 151.012L56.2838 150.871L54.2888 150.73C54.2891 150.726 54.2901 150.727 54.2857 150.735C54.2808 150.743 54.271 150.756 54.2544 150.767L55.3924 152.412ZM45.0048 169V171C46.14 171 47.0485 170.058 47.0083 168.924L45.0096 168.995L43.0108 169.066C42.9709 167.937 43.875 167 45.0048 167V169ZM45 169.005H47C47 170.106 46.1067 171 45.0048 171V169V167C43.8976 167 43 167.897 43 169.005H45ZM47 179V177H47H45H43C43 179.209 44.7909 181 47 181V179ZM155 177H153V177V179V181C155.209 181 157 179.209 157 177H155ZM154.995 169V171C153.893 171 153 170.106 153 169.005H155H157C157 167.897 156.102 167 154.995 167V169ZM154.99 168.995L152.992 168.924C152.952 170.058 153.86 171 154.995 171V169V167C156.125 167 157.029 167.937 156.989 169.066L154.99 168.995ZM143.715 150.871L141.72 151.012C141.809 152.267 142.48 153.372 143.469 154.057L144.607 152.412L145.745 150.767C145.728 150.756 145.718 150.743 145.713 150.735C145.709 150.727 145.71 150.726 145.71 150.73L143.715 150.871ZM138.744 65.8829L137.626 64.2239C136.45 65.016 135.726 66.3892 135.831 67.8708L137.826 67.7295L139.821 67.5882C139.821 67.5924 139.819 67.5908 139.824 67.5812C139.829 67.5703 139.841 67.555 139.861 67.5418L138.744 65.8829ZM149.996 48.9998V46.9998C148.909 46.9998 148.027 47.8629 147.992 48.9387L149.991 49.0041L151.99 49.0694C151.955 50.1405 151.077 50.9998 149.996 50.9998V48.9998ZM150 48.9953H148C148 47.8931 148.894 46.9998 149.996 46.9998V48.9998V50.9998C151.102 50.9998 152 50.1024 152 48.9953H150ZM148 28.9998V30.9998V30.9998H150H152C152 28.7906 150.209 26.9998 148 26.9998V28.9998ZM120 30.9998H122V30.9998V28.9998V26.9998C119.791 26.9998 118 28.7906 118 30.9998H120ZM118 38.9998V40.9998C120.209 40.9998 122 39.2089 122 36.9998H120H118V36.9998V38.9998ZM114 36.9998H112C112 39.2089 113.791 40.9998 116 40.9998V38.9998V36.9998V36.9998H114ZM112 28.9998V30.9998V30.9998H114H116C116 28.7906 114.209 26.9998 112 26.9998V28.9998ZM86 30.9998H88V30.9998V28.9998V26.9998C85.7909 26.9998 84 28.7906 84 30.9998H86ZM50 30.9998H52V30.9998V28.9998V26.9998C49.7909 26.9998 48 28.7906 48 30.9998H50ZM84 38.9998V40.9998C86.2091 40.9998 88 39.2089 88 36.9998H86H84V36.9998V38.9998ZM50.0045 48.9998V46.9998C51.1066 46.9998 52 47.8932 52 48.9953H50H48C48 50.1023 48.8974 50.9998 50.0045 50.9998V48.9998ZM82 38.9998V36.9998V36.9998H80H78C78 39.2089 79.7909 40.9998 82 40.9998V38.9998Z" fill="var(--stroke-0, white)"/>
<g id="Piece">
<mask id="path-2-inside-1_0_4" fill="white">
<path d="M80 36.9998C80 38.1043 80.8954 38.9998 82 38.9998H84C85.1046 38.9998 86 38.1043 86 36.9998V30.9998C86 29.8952 86.8954 28.9998 88 28.9998H112C113.105 28.9998 114 29.8952 114 30.9998V36.9998C114 38.1043 114.895 38.9998 116 38.9998H118C119.105 38.9998 120 38.1043 120 36.9998V30.9998C120 29.8952 120.895 28.9998 122 28.9998H148C149.105 28.9998 150 29.8952 150 30.9998V48.9953C150 48.9978 149.998 48.9998 149.996 48.9998C149.993 48.9998 149.991 49.0017 149.991 49.0041C149.782 55.4025 145.6 61.2663 138.744 65.8829C138.133 66.2941 137.774 66.9951 137.826 67.7295L143.715 150.871C143.759 151.493 144.094 152.057 144.607 152.412C151.145 156.936 155 162.492 155 168.5C155 168.665 154.996 168.83 154.99 168.995C154.99 168.998 154.992 169 154.995 169C154.998 169 155 169.002 155 169.005V177C155 178.104 154.105 179 153 179H47C45.8954 179 45 178.104 45 177V169.005C45 169.002 45.0021 169 45.0048 169C45.0075 169 45.0097 168.998 45.0096 168.995C45.0038 168.83 45 168.665 45 168.5C45.0001 162.492 48.8542 156.936 55.3924 152.412C55.9053 152.057 56.2397 151.493 56.2838 150.871L62.1724 67.7295C62.2244 66.995 61.8653 66.2941 61.2546 65.8829C54.3994 61.2663 50.2181 55.4021 50.0089 49.0041C50.0089 49.0017 50.0069 48.9998 50.0045 48.9998C50.002 48.9998 50 48.9978 50 48.9953V30.9998C50 29.8952 50.8954 28.9998 52 28.9998H78C79.1046 28.9998 80 29.8952 80 30.9998V36.9998Z"/>
</mask>
<path d="M80 36.9998C80 38.1043 80.8954 38.9998 82 38.9998H84C85.1046 38.9998 86 38.1043 86 36.9998V30.9998C86 29.8952 86.8954 28.9998 88 28.9998H112C113.105 28.9998 114 29.8952 114 30.9998V36.9998C114 38.1043 114.895 38.9998 116 38.9998H118C119.105 38.9998 120 38.1043 120 36.9998V30.9998C120 29.8952 120.895 28.9998 122 28.9998H148C149.105 28.9998 150 29.8952 150 30.9998V48.9953C150 48.9978 149.998 48.9998 149.996 48.9998C149.993 48.9998 149.991 49.0017 149.991 49.0041C149.782 55.4025 145.6 61.2663 138.744 65.8829C138.133 66.2941 137.774 66.9951 137.826 67.7295L143.715 150.871C143.759 151.493 144.094 152.057 144.607 152.412C151.145 156.936 155 162.492 155 168.5C155 168.665 154.996 168.83 154.99 168.995C154.99 168.998 154.992 169 154.995 169C154.998 169 155 169.002 155 169.005V177C155 178.104 154.105 179 153 179H47C45.8954 179 45 178.104 45 177V169.005C45 169.002 45.0021 169 45.0048 169C45.0075 169 45.0097 168.998 45.0096 168.995C45.0038 168.83 45 168.665 45 168.5C45.0001 162.492 48.8542 156.936 55.3924 152.412C55.9053 152.057 56.2397 151.493 56.2838 150.871L62.1724 67.7295C62.2244 66.995 61.8653 66.2941 61.2546 65.8829C54.3994 61.2663 50.2181 55.4021 50.0089 49.0041C50.0089 49.0017 50.0069 48.9998 50.0045 48.9998C50.002 48.9998 50 48.9978 50 48.9953V30.9998C50 29.8952 50.8954 28.9998 52 28.9998H78C79.1046 28.9998 80 29.8952 80 30.9998V36.9998Z" fill="url(#paint0_linear_0_4)"/>
<path d="M155 168.5H161V168.5L155 168.5ZM45 168.5L39 168.5V168.5H45ZM50.0089 49.0041L44.0121 49.2001L50.0089 49.0041ZM62.1724 67.7295L56.1874 67.3056L62.1724 67.7295ZM61.2546 65.8829L57.9031 70.8596L61.2546 65.8829ZM55.3924 152.412L58.8062 157.346L55.3924 152.412ZM56.2838 150.871L50.2988 150.447L56.2838 150.871ZM45.0096 168.995L51.0058 168.783L45.0096 168.995ZM154.99 168.995L160.987 169.207L154.99 168.995ZM143.715 150.871L137.73 151.295L143.715 150.871ZM144.607 152.412L141.193 157.346L144.607 152.412ZM138.744 65.8829L135.392 60.906L138.744 65.8829ZM137.826 67.7295L143.811 67.3056L137.826 67.7295ZM149.991 49.0041L143.994 48.8081L149.991 49.0041ZM82 38.9998V44.9998H84V38.9998V32.9998H82V38.9998ZM86 36.9998H92V30.9998H86H80V36.9998H86ZM88 28.9998V34.9998H112V28.9998V22.9998H88V28.9998ZM114 30.9998H108V36.9998H114H120V30.9998H114ZM116 38.9998V44.9998H118V38.9998V32.9998H116V38.9998ZM120 36.9998H126V30.9998H120H114V36.9998H120ZM122 28.9998V34.9998H148V28.9998V22.9998H122V28.9998ZM150 30.9998H144V48.9953H150H156V30.9998H150ZM149.991 49.0041L143.994 48.8081C143.872 52.5392 141.385 56.8708 135.392 60.906L138.744 65.8829L142.095 70.8597C149.814 65.6617 155.692 58.2657 155.988 49.2001L149.991 49.0041ZM137.826 67.7295L131.841 68.1535L137.73 151.295L143.715 150.871L149.7 150.447L143.811 67.3056L137.826 67.7295ZM144.607 152.412L141.193 157.346C146.919 161.308 149 165.273 149 168.5L155 168.5L161 168.5C161 159.711 155.372 152.564 148.02 147.478L144.607 152.412ZM155 168.5H149C149 168.575 148.998 168.667 148.994 168.783L154.99 168.995L160.987 169.207C160.994 168.993 161 168.755 161 168.5H155ZM155 169.005H149V177H155H161V169.005H155ZM153 179V173H47V179V185H153V179ZM45 177H51V169.005H45H39V177H45ZM45.0096 168.995L51.0058 168.783C51.0017 168.667 51 168.575 51 168.5H45H39C39 168.755 39.0058 168.993 39.0133 169.207L45.0096 168.995ZM45 168.5L51 168.5C51 165.272 53.081 161.307 58.8062 157.346L55.3924 152.412L51.9785 147.478C44.6274 152.564 39.0001 159.712 39 168.5L45 168.5ZM56.2838 150.871L62.2688 151.295L68.1574 68.1534L62.1724 67.7295L56.1874 67.3056L50.2988 150.447L56.2838 150.871ZM61.2546 65.8829L64.6061 60.9062C58.6148 56.8714 56.1277 52.5395 56.0057 48.8081L50.0089 49.0041L44.0121 49.2001C44.3084 58.2647 50.184 65.6612 57.9031 70.8596L61.2546 65.8829ZM50 48.9953H56V30.9998H50H44V48.9953H50ZM52 28.9998V34.9998H78V28.9998V22.9998H52V28.9998ZM80 30.9998H74V36.9998H80H86V30.9998H80ZM78 28.9998V34.9998C75.7909 34.9998 74 33.2089 74 30.9998H80H86C86 26.5815 82.4183 22.9998 78 22.9998V28.9998ZM50.0089 49.0041L56.0057 48.8081C55.9004 45.5862 53.2605 42.9998 50.0045 42.9998V48.9998V54.9998C46.7533 54.9998 44.1173 52.4172 44.0121 49.2001L50.0089 49.0041ZM62.1724 67.7295L68.1574 68.1534C68.3681 65.1775 66.9132 62.4599 64.6061 60.9062L61.2546 65.8829L57.9031 70.8596C56.8174 70.1284 56.0806 68.8125 56.1874 67.3056L62.1724 67.7295ZM55.3924 152.412L58.8062 157.346C60.7476 156.003 62.0904 153.814 62.2688 151.295L56.2838 150.871L50.2988 150.447C50.3891 149.172 51.0629 148.111 51.9785 147.478L55.3924 152.412ZM45.0048 169V175C48.4049 175 51.1261 172.18 51.0058 168.783L45.0096 168.995L39.0133 169.207C38.8933 165.815 41.6101 163 45.0048 163V169ZM45 169.005H51C51 172.316 48.3158 175 45.0048 175V169V163C41.6885 163 39 165.688 39 169.005H45ZM47 179V173C49.2091 173 51 174.791 51 177H45H39C39 181.418 42.5817 185 47 185V179ZM155 177H149C149 174.791 150.791 173 153 173V179V185C157.418 185 161 181.418 161 177H155ZM154.995 169V175C151.684 175 149 172.316 149 169.005H155H161C161 165.688 158.312 163 154.995 163V169ZM154.99 168.995L148.994 168.783C148.874 172.18 151.595 175 154.995 175V169V163C158.39 163 161.107 165.815 160.987 169.207L154.99 168.995ZM143.715 150.871L137.73 151.295C137.909 153.814 139.251 156.003 141.193 157.346L144.607 152.412L148.02 147.478C148.936 148.111 149.61 149.172 149.7 150.447L143.715 150.871ZM138.744 65.8829L135.392 60.906C133.085 62.4597 131.63 65.1775 131.841 68.1535L137.826 67.7295L143.811 67.3056C143.917 68.8126 143.181 70.1286 142.095 70.8597L138.744 65.8829ZM149.996 48.9998V42.9998C146.74 42.9998 144.1 45.5853 143.994 48.8081L149.991 49.0041L155.988 49.2001C155.883 52.4181 153.246 54.9998 149.996 54.9998V48.9998ZM150 48.9953H144C144 45.6838 146.685 42.9998 149.996 42.9998V48.9998V54.9998C153.311 54.9998 156 52.3117 156 48.9953H150ZM148 28.9998V34.9998C145.791 34.9998 144 33.2089 144 30.9998H150H156C156 26.5815 152.418 22.9998 148 22.9998V28.9998ZM120 30.9998H126C126 33.2089 124.209 34.9998 122 34.9998V28.9998V22.9998C117.582 22.9998 114 26.5815 114 30.9998H120ZM118 38.9998V44.9998C122.418 44.9998 126 41.4181 126 36.9998H120H114C114 34.7906 115.791 32.9998 118 32.9998V38.9998ZM114 36.9998H108C108 41.4181 111.582 44.9998 116 44.9998V38.9998V32.9998C118.209 32.9998 120 34.7906 120 36.9998H114ZM112 28.9998V34.9998C109.791 34.9998 108 33.2089 108 30.9998H114H120C120 26.5815 116.418 22.9998 112 22.9998V28.9998ZM86 30.9998H92C92 33.2089 90.2091 34.9998 88 34.9998V28.9998V22.9998C83.5817 22.9998 80 26.5815 80 30.9998H86ZM50 30.9998H56C56 33.2089 54.2091 34.9998 52 34.9998V28.9998V22.9998C47.5817 22.9998 44 26.5815 44 30.9998H50ZM84 38.9998V44.9998C88.4183 44.9998 92 41.4181 92 36.9998H86H80C80 34.7906 81.7909 32.9998 84 32.9998V38.9998ZM50.0045 48.9998V42.9998C53.3157 42.9998 56 45.6841 56 48.9953H50H44C44 52.3115 46.6883 54.9998 50.0045 54.9998V48.9998ZM82 38.9998V32.9998C84.2091 32.9998 86 34.7906 86 36.9998H80H74C74 41.4181 77.5817 44.9998 82 44.9998V38.9998Z" fill="var(--stroke-0, black)" mask="url(#path-2-inside-1_0_4)"/>
</g>
</g>
<defs>
<linearGradient id="paint0_linear_0_4" x1="100" y1="28.9998" x2="100" y2="179" gradientUnits="userSpaceOnUse">
<stop offset="0.5" stop-color="#F3F2F2"/>
<stop offset="1" stop-color="#B7B4AE"/>
</linearGradient>
</defs>
</svg>
